<svg xmlns="http://www.w3.org/2000/svg" viewBox="0 0 339.93 511.87"><defs><style>.cls-1{fill:#255e61;}.cls-2{fill:#fefefe;}.cls-3{fill:#e4ff55;}.cls-4{fill:#b1effa;}</style></defs><g id="Layer_2" data-name="Layer 2"><g id="Layer_1-2" data-name="Layer 1"><path class="cls-1" d="M317.94,0C328,4.21,336.22,10.16,339.21,21.52a20.16,20.16,0,0,1,.7,5.27q0,229.14,0,458.29c0,11-8.43,21.57-20.54,25.77-.64.22-1.28.23-1.45,1H22C11.92,507.66,3.71,501.71.72,490.35A20.2,20.2,0,0,1,0,485.08Q0,255.93,0,26.79C0,15.79,8.43,5.21,20.55,1,21.18.8,21.82.79,22,0Z"/><path class="cls-2" d="M20,281q0-97.95-.1-195.9c0-4,.75-5.25,5.06-5.24q144.93.21,289.87,0c4,0,5.22.8,5.21,5.07q-.19,196.15-.15,392.3c0,10.75-3.94,14.55-14.48,14.56Q170,492,34.54,491.77c-11.21,0-14.43-2.82-14.46-14.86C19.9,411.61,20,346.31,20,281Z"/><path class="cls-1" d="M170,60c-48.31,0-96.61,0-144.92.11-4.11,0-5.52-.89-5.15-5.13.74-8.4-.67-16.85.76-25.28,1.5-8.86,5.24-8,11.84-9.65a13.05,13.05,0,0,1,3,0q134.41,0,268.85-.07a36.76,36.76,0,0,1,8.7,1.25c5.51,1.32,6.45,6.36,6.72,10.77.51,8.47,0,17,.19,25.48.06,3.49-2.31,2.53-4.07,2.54q-31.49.06-63,0Z"/><path class="cls-3" d="M169.76,355.91C106.29,357.05,54.49,305.44,54.26,241,54.05,179.65,104,121.43,178.64,125.89,232.47,129.1,289.5,176.25,285,249.59,281.61,304.9,234.11,357.14,169.76,355.91Z"/><path class="cls-1" d="M170.41,401.9c26.47,0,52.94.13,79.41-.12,4.8,0,7.84,2,9.85,5.62s.06,10.31-3.53,12.75c-7.54,5.13-15.23,10.05-23,14.86q-28.41,17.67-56.93,35.16c-4.26,2.63-8.35,2.61-12.71-.12-25.83-16.12-51.77-32.08-77.6-48.2-7.85-4.9-8.5-13.29-2-18.61,1.83-1.49,3.63-1.33,5.55-1.33Q130,401.88,170.41,401.9Z"/><path class="cls-1" d="M101.68,267.93c.16-26.63,23.47-43.21,46.3-35.21,4.36,1.53,6.84.7,9.92-2.45,14.56-14.88,29.36-29.52,44.1-44.22,6.21-6.2,11.32-6.22,17.55-.08,5,4.91,10,9.84,14.84,14.84,4.68,4.8,5.07,11,1.11,15.18s-10.08,3.87-15.06-.92c-.48-.46-.95-.93-1.42-1.4-8.31-8.28-8.31-8.28-16.79.19a22.9,22.9,0,0,1-2.49,2.44c-3.1,2.23-3,4.17,0,6.57s5.35,5,5.31,9.17-1.84,7.38-5.72,9.13a9.55,9.55,0,0,1-10.71-1.49c-2.15-1.77-3.82-5.62-6.21-5.15s-4.42,3.74-6.6,5.78a9.37,9.37,0,0,1-.71.7c-5.54,4.28-7.39,8.59-5,16.37,4.06,13.42-.14,25.79-11.24,34.9-11.35,9.3-24.18,10.88-37.37,4.59C108.38,290.66,102,279.76,101.68,267.93Z"/><path class="cls-2" d="M126.33,422h87.26c-6.8,4.36-12.64,8.18-18.56,11.87-7.27,4.53-14.74,8.77-21.84,13.55-2.21,1.49-3.7,1.63-5.73.36Z"/><path class="cls-4" d="M121.84,265.25c.11-8.39,6.57-14.55,15.1-14.4,8.29.15,14.42,6.73,14.22,15.27-.2,8.22-6.47,14.2-14.84,14.12S121.71,273.85,121.84,265.25Z"/></g></g></svg>