<svg xmlns="http://www.w3.org/2000/svg" viewBox="0 0 383.2 375.2"><g id="Layer_2" data-name="Layer 2"><g id="Layer_1-2" data-name="Layer 1"><path d="M383.2,340.4c-1.8,3-4.5,4.6-7.8,5.7l-87.3,28.3a13,13,0,0,1-8.7,0L102.8,317a9.4,9.4,0,0,0-6.4,0C68.3,326.2,40,335.1,12,344.6c-7,2.4-12-2.2-12-8.7Q.3,203.5.1,71c0-6.5,1.4-8.3,7.5-10.3L94.9,32.4a13.8,13.8,0,0,1,9.4-.1L231.6,73.8l4.3,1.2a3.4,3.4,0,0,1,3.2,2.2,159.7,159.7,0,0,0,8.3,14.5c.6,1.1,1.7,2.4,0,3.6a9.2,9.2,0,0,1-4-.8c-26.1-8.8-52.4-17-78.5-25.6-17.5-5.8-35.1-11.5-52.6-17.1-3.7-1.2-4.1-.9-4.1,3V92.2a18,18,0,0,1-.4,5.2c-1.4,2.7-4.2,3.7-6.5,5.3a43.9,43.9,0,0,0-13.2,15.8c-.7,1.5-1.1,3.7-3.6,3.6-5.1-3.4-9.1-8.1-13.2-12.6L46.7,82.9c-3.4-3.6-6.7-7.4-10.1-11a5.7,5.7,0,0,0-6.7-1.5c-3.5,1.3-7.1,2.4-10.7,3.6a4,4,0,0,0-3,4.1V264.7c0,6.3,0,6.3,5.7,3.4,19.2-10,39.1-18.2,60.5-22.2l1.8-.4c6.9-1.2,6.9-1.2,6.9-8.4V173.6a15.1,15.1,0,0,1,.4-5.2c1.9-2.4,2.6.2,3.2,1,3,4.4,6,8.8,9.1,13.1,1.5,2.1,3.5,3.8,4.2,6.5.4,16.5.3,33.1,0,49.7,0,5.2,1.6,7.9,6.5,9.6s10.7,4.6,16.6,5.4c3.9.5,7.6.4,10.3-2.9a11.7,11.7,0,0,0,1.8-12.3,28.4,28.4,0,0,0-3.2-5c-4.9-6.7-10-13.1-12.6-21.1a5.6,5.6,0,0,1,1.5-3.7c2.5-2.6,4.6-5.5,7.1-8,1-1,1.9-2.4,3.7-1.6a4.4,4.4,0,0,1,1.2,1.9c3.2,9.1,8.5,16.9,14.3,24.4a28.8,28.8,0,0,1-2.5,38.2c-5.8,5.7-13.1,7.9-21.2,7.3s-13.4-2.6-19.8-5.3c-3.5-1.4-3.5-1.5-3.5,2.2-.1,10.1,0,20.1-.1,30.2,0,2.9,1,4.3,3.7,5.2q31.2,9.9,62.2,20.2c2.3.7,3.6.3,4.8-1.9,7.6-14.5,20-21.2,36.1-21.8,4.8-.2,9.7-.7,14.5-1.2,2.2.4,3.1,2.3,4.4,3.7s3.4,4.2,5.3,6.2,2.1,1.9,1,3.4c-4.4,3-9.5,3.9-14.6,4.1s-8.7.8-13,1.1c-6.9.4-12.8,3.2-16.7,9.1-1.9,2.9-1.7,3.7,1.7,4.8L271,354.8c4,1.3,4.2,1.1,4.2-3.1V294.9a52.3,52.3,0,0,1,.1-5.6,15.7,15.7,0,0,1,2.5-5,116,116,0,0,0,11.1-19.4c.4-.9.5-3.5,2.9-1.7.7,1.9.5,3.9.5,5.9v83c.1,3.7.4,4,3.9,2.8,11.3-3.8,22.6-7.3,33.8-11l32.7-10.6c3.3-1,4.5-2.7,4.5-6.1-.1-39,0-78,0-117,0-4.5-.6-5.1-5.1-5.5-14.4-1.5-25,5.2-33.8,15.6-7.6,8.9-14.4,18.5-23,26.5a43.9,43.9,0,0,1-7.8,5.8c-1.2.8-2.5,1.6-4.2,1.1a1.6,1.6,0,0,1-.6-1.3c.8-5.3-.8-10.5-.5-15.9,2.4-4,6.2-6.6,9.1-10.2,5.8-7.3,11.3-14.9,18-21.5,12.1-11.9,26.2-18.3,43.4-17.3,4.5.2,4.5.1,4.5-4.5V84.3c-.2-3.3-.6-3.7-3.8-2.6l-27.8,9c-4,1.3-8,2.7-12,3.9a4.7,4.7,0,0,1-3.3.2c-1.8-1.1-.7-2.4,0-3.5,2.8-4.5,5.5-9.1,7.9-13.9.6-1.3,1.6-2.5,3.3-2.4l39.6-12.8c6.2-2,8.7-1.1,12.1,4.4Z" style="fill:#255e61"/><path d="M247.7,94.9c-3-5.4-6-10.8-8.9-16.2-.8-1.5-1.3-3-2.9-3.7,1.1-1.9-.3-3.3-.9-4.8-9.8-24.4,1.4-53.4,24.9-64.7s53.7-4.2,67.7,17.9c9.3,14.7,11.2,30.6,4.7,47.2-.6,1.3-2,2.7-.8,4.4-.8.7-1.7,1.1-2.2,2.3-2.6,5.9-6.3,11.3-9.6,16.9.5,1.5-.7,2.3-1.4,3.2-8,11.8-17.3,22.5-26.6,33.2-2.1,1.8-3.4,4.2-5.4,6.1s-3.4,1.7-5.1,0-3.4-4.3-5.4-6c-9.3-10.7-18.5-21.3-26.5-32.9C248.7,96.9,247.8,96.1,247.7,94.9Z" style="fill:#255e61"/><path d="M247.7,94.9c3.8,3.4,6.1,8,9.3,11.9,6.5,7.8,12.9,15.6,19.3,23.5a8.3,8.3,0,0,1,1.1,4.6c0,24.2.1,48.5,0,72.7a9.2,9.2,0,0,1-.3,2.9c-.6,1.8-1.7,1.5-2.9.8l-4.2-2.4c-27.1-14.6-60.3,2.2-64.4,32.6-1.5,10.8,1.7,20.7,6.7,30.1a160.9,160.9,0,0,0,15.4,22.9c1,1.4,2.4,2.6,2.1,4.6-7.3,1.9-14.9.9-22.3,2.3-13,2.5-22.7,9.2-28.2,21.4-1,2.4-1.9,2.8-4.3,2-21.7-7.2-43.5-14.2-65.3-21.3-1.3-.4-2.7-.6-2.6-2.8.1-12.6,0-25.1,0-38,5.1,1.8,9.8,4.2,14.9,5.5s9.9,2.2,15.1,1.6c10-1.2,17.1-6.4,20.9-15.8s2.9-19.9-3.9-28.5-11.9-16.6-14.9-26.5c-.3-.5-.5-1-.2-1.4,2.7-3.4,4.7-7.4,8.7-9.5,4.5,1.6,7.6,5.2,11.3,7.9,6.4,4.8,13,9.1,21.1,10.6,15.2,2.7,29.7-6.1,33.2-21,2.4-10-.4-19-7.3-26.7s-18.5-13.3-29.6-16.4c-1.6-.4-3.2-.6-4.5-1.8-1.3-3-.7-6.1-1.2-9.2-3.2-19.4-17-33.6-36.4-36.6a41.7,41.7,0,0,0-20.7,1.6c-2.1.7-4,2.1-6.4,1.4V49.1l26.9,8.6,110.5,36A28.5,28.5,0,0,1,247.7,94.9Z" style="fill:#e4ff55"/><path d="M92.3,167.7q-.1,37.4-.1,74.7c0,2.3-.4,3.3-2.9,3.6-17.9,2.1-34.7,8.2-51.2,15.4-7.6,3.3-15,7.1-22.2,11-1.2-.7-.8-1.6-.8-2.4V77.1c0-2.2.5-3.3,2.7-3.9,4.4-1.2,8.6-2.6,12.8-4.2,2.5-1,4.1-.7,6.1,1.4,15.2,16.3,30,33,45.7,48.9l3,2.7c.9,1,.5,2.2.1,3.2-4.5,13.6-.8,26,5.7,38C92,164.6,93.3,165.9,92.3,167.7Z" style="fill:#e4ff55"/><path d="M293.5,253.5c6.9-3,12.3-8,17.1-13.6,6.2-7.2,12.1-14.8,18.4-22,8.5-9.7,18.8-15.4,32.2-14.4,7,.5,7.1.4,7.1,7.3,0,39.4-.1,78.8,0,118.2,0,2.9-.8,4-3.5,4.8-24.4,7.8-48.7,15.8-73.7,23.9v-95C290.1,259.2,291.4,256.2,293.5,253.5Z" style="fill:#e4ff55"/><path d="M291.1,130.3c7.8-9.8,16.4-19,23.6-29.2l5-6.9c6.7-1.1,12.8-3.8,19.2-5.7L368.1,79V189.3c-23.8-4-41,6.8-55.4,24.1-4.2,5.2-8.3,10.6-12.5,15.8a37.1,37.1,0,0,1-7.5,7.3c-2.4-1.4-2.4-3.8-2.6-6.1-.3-31.2,0-62.4-.1-93.6C290,134.5,289.8,132.3,291.1,130.3Z" style="fill:#e4ff55"/><path d="M92.3,167.7c-1.7-3.5-3.5-6.9-5.1-10.4-5.4-11.5-6.3-23.3-1.8-35.3a46.7,46.7,0,0,1,21.8-24.1c18.4-8.5,39.1-5.1,52.6,9.1,8.9,9.4,12.9,20.7,12.5,33.7,1.2,1.4.5,3,.2,4.5-.6,3.6-2.1,6.8-2.9,10.3-3.7,7.3-7.4,14.7-12.4,21.4-2.1,3-4.3,6-6.5,8.9-.9,1.1-1.6,2.2-3,2.7-3,3.4-6.2,6.5-8.5,10.5-4.3,3.7-7.8,8.2-11.3,12.7-1.2.9-1.8-.2-2.4-.8-5.7-6.2-11.2-12.6-16.6-19a20.1,20.1,0,0,1-1.6-3.3Z" style="fill:#255e61"/><path d="M291.1,231c.5,1.9,1.1,3.7,1.6,5.5a53.9,53.9,0,0,1,.8,17l-2.4,9.2a170.4,170.4,0,0,1-15,26.2,19,19,0,0,1-2.7,4.8c-6.6,8.6-13.7,16.7-20.8,24.8-3.2,3.7-4.6,3.6-7.4-.4-1.7-2.4-4.9-3.6-5-7l-10.4-12c-6.3-8.6-12.7-17.1-18.1-26.4-10.6-18.3-9.9-37.2,2.5-53.7s38-21.3,55.3-11.5c2.3,1.3,4.4,2.8,6.7,4.1a1.1,1.1,0,0,1,1.3.2C283.7,217,289.3,222.7,291.1,231Z" style="fill:#255e61"/><path d="M92.2,260.6v40.6c0,1.2-.5,1.6-1.6,2L15.1,327.7V291.6a2.6,2.6,0,0,1,1.6-2.5c21.7-12.2,43.9-22.8,68.6-27.4Z" style="fill:#e4ff55"/><path d="M240.2,311.1c2.2,2.6,4.6,5.2,6.7,7.9s2.4,1.9,4,.1c8.2-9.5,16.5-18.8,23.9-28.9a15.9,15.9,0,0,1,1.3-1.3v68.7l-30.5-9.9c-16.6-5.4-33.2-10.9-49.9-16.2-3.4-1-3.3-2.1-1.7-4.7,4.3-7.3,11.1-10.3,19.2-11.1s13.7-.2,20.4-2.1A37.4,37.4,0,0,0,240.2,311.1Z" style="fill:#e4ff55"/><path d="M107.3,188.6l18.9,21.8c.5.6.9,1.3,1.7,1.3a92.7,92.7,0,0,0,14,22.4c3.2,3.9,4.3,8.3,2.6,13.2s-5.5,8-11.3,7.6c-9-.6-16.8-5-25-8.1-1.3-.5-1.1-1.6-1.1-2.6C107.2,225.7,107.2,207.1,107.3,188.6Z" style="fill:#e4ff55"/><path d="M92.1,108.1,49.9,62.8,92.1,49.1Z" style="fill:#e4ff55"/><path d="M291.1,231c-3.6-7.5-8.1-14.3-14.9-19.4V135.5c0-1.8.1-3.5.1-5.2,2,2.1,4.1,4.2,6,6.4s1.8,1.2,2.9,0,3.9-4.3,5.9-6.4Z" style="fill:#255e61"/><path d="M283.9,33.6a18.5,18.5,0,0,1,18.5,18.9c0,10-8.9,18.6-19.1,18.5S264.9,62.1,265,52.1A18.5,18.5,0,0,1,283.9,33.6Z" style="fill:#e4ff55"/><path d="M147.7,188.5l8.9-12c3.4.2,5.4,2.9,7.7,4.8,4.3,3.4,8.6,6.8,13.7,9s9.4,2.8,14,.2c8.1-4.5,9.6-14.4,3.2-21.4s-13.3-9.4-21.3-11.7c-1.6-.5-3.5-.4-4.7-2s1.3-4.8,1.6-7.2,1-5,1.5-7.5c12.2,2.5,23.6,6.8,32.8,15.8,13.6,13.3,13.6,33.6-.5,44.7-10.8,8.7-22.8,8.7-35.1,2.8C161.4,200.1,154.9,193.7,147.7,188.5Z" style="fill:#255e61"/><path d="M169.2,155.4a58,58,0,0,1,21.1,8.2,26.8,26.8,0,0,1,6.6,6c4.1,5.4,4.5,11.8,1,17s-9.9,7.6-16.4,6c-4.9-1.3-9.1-4-13.1-7l-11.8-9.1c4-6.3,8.2-12.6,11.1-19.6A2.5,2.5,0,0,1,169.2,155.4Z" style="fill:#e4ff55"/><path d="M127.3,152.7a14.5,14.5,0,0,1-14.9-14.8c-.1-8.1,6.7-14.6,15.2-14.5a14.5,14.5,0,0,1,14.7,14.7C142.3,146.6,136,152.7,127.3,152.7Z" style="fill:#e4ff55"/><path d="M263.6,247.4c.6,7.5-4.9,15-15,14.9-8.3,0-14.4-6.4-14.4-15s6.2-14.7,14.9-14.7S263.6,238.5,263.6,247.4Z" style="fill:#e4ff55"/></g></g></svg>