<svg xmlns="http://www.w3.org/2000/svg" viewBox="0 0 350.2 342.4"><g id="Layer_2" data-name="Layer 2"><g id="Layer_1-2" data-name="Layer 1"><path d="M225,223.4c-3.1-3.9-5.9-8.1-9.3-11.6s-10.1-5-15.7-2.7a14,14,0,0,0-9.1,13c-.1,3.1-.2,6.3,0,9.4.7,7.7.1,13.6-9.2,17.1s-11.6,11.6-11.5,20.8c0,14.4-.1,28.7,0,43,0,3.7.1,6.5-5,6.9-22.9,1.6-45.4.9-67.9-4.6s-33.1-22.4-36.8-44.2c-4.4-26.2-3.4-52.1,4.8-77.6,3.3-10.2,8-19.7,18-25.2,4-2.2,3.3-5.5,3.4-8.8.2-12.8-.5-25.7.8-38.3,3.1-30,28.6-50.8,59.2-49.2s52.8,24.8,53.5,54.4c.3,11.2.1,22.4.2,33.6,0,2.7-1.1,5.7,2.1,7.6,17.2,9.8,20.1,27.4,24,44.4.7,3.3.9,6.8,1.3,10.1Z" style="fill:#255e61"/><path d="M48.1,257.6c-21.5-20.2-35.2-42.7-42.5-68.9C-17.5,106.4,33.5,21.9,116.9,3.6c85.9-18.9,168.4,38.7,180.4,126.2,1,6.9,3.4,7.7,9.3,7.6,18.6-.1,19.2,1,10,16.9-7.5,12.9-14.9,25.9-22.5,38.7-4.7,8.1-8.4,8.1-13.1,0q-13-22-25.8-44.3c-4.6-8.2-2.8-11.1,6.7-11.4,14.6-.4,14.6-.4,11.7-14.5-13.8-66.5-79-109.3-145.7-98.5C42.1,38.2-9.9,139.3,44.6,219.7c2.4,3.5,3.9,6.8,3.2,11.2C46.6,238.9,47.2,247,48.1,257.6Z" style="fill:#255e61"/><path d="M265.2,342.4H198.7c-13.7-.1-17.8-4.3-17.9-18-.1-17.5-.1-34.9,0-52.4.1-11.8,3.6-15.8,15.2-16.6,4.7-.4,5.8-2,5.7-6.2-.2-8.1,0-16.2,0-24.3,0-2.2,0-4.5,2.3-5.7s4.7.5,6.4,2.3c9.7,9.6,19.6,19.2,29.1,29.1a14.5,14.5,0,0,0,11.4,4.7c26.9-.2,53.7-.1,80.6-.1,14.1,0,18.6,4.5,18.7,18.2v51.4c-.1,12.7-4.9,17.5-17.6,17.5C310.1,342.5,287.7,342.4,265.2,342.4Z" style="fill:#e4ff55"/><path d="M179,139.6c0,5.9,2.3,13.6-.6,17.2s-10.8-.3-16.5-.7a191.1,191.1,0,0,0-48.4,1.7c-5,.9-5.8-.9-5.7-5.2.2-8.7.1-17.4.1-26.1.1-20.2,15.9-33.3,35.8-34s34.3,13.6,35.7,33.1c.3,4.7,0,9.4,0,14Z" style="fill:#fefefe"/><path d="M144.2,262.5c-13.7,0-13.9,0-11-13.8,1.4-6.8,2.7-12.3-3.7-18.4s-4.8-17.7,2.3-24.2a18.8,18.8,0,0,1,25.5.2c6.8,6.3,8.9,18.4,2,24.3s-4.8,11.8-3.7,18.3C158.1,262.5,158.2,262.5,144.2,262.5Z" style="fill:#fdfdfd"/><path d="M318.7,306.9c-3.1.4-2.5,8.9-8.2,5.2s2.8-6.7,1.6-11.2a50.3,50.3,0,0,0-5.3-2c-2.7-.6-2.4-2.1-1.8-4.1s1.2-3.6,3.8-2.5c4.4,1.8,7.2,1.5,6.5-4.4-.4-3.1.9-4.4,4.2-4.4s4.1,1.9,4,4.8-.7,6,4.1,4.7c2.6-.7,5.3-2.6,6.3,2.2s-3.3,3.3-5,4.8a7.7,7.7,0,0,1-2.5,1c-1.2,4.1,7.9,6.4,2.3,10.8S323.4,307.7,318.7,306.9Z"/><path d="M204.2,301a47.3,47.3,0,0,0-5-2c-2.3-.5-3.1-1.6-2.4-3.9s1.8-3.8,4.6-2.6c4.8,2.1,7,.5,6.2-4.8-.5-3.3,1.1-4.2,4.2-4.2s3.4,2.4,3.6,4.9-1.7,6.5,3.7,4.7c2.9-.9,5.9-2.5,7,2.2s-3.6,3-5.2,4.7a7.7,7.7,0,0,1-2.5,1c-1.5,4.2,8.9,6.7,1.7,11.2-5.2,3.2-4.7-4.3-8.1-5s-4.3,10-10.3,4.3C197.4,307.5,204.2,305.5,204.2,301Z"/><path d="M242.7,293.2c3.2-2.3-3.1-9.4,4.5-9.6s1.6,7.1,5.5,10.1c2.3,1.6,7.4-5.5,9.2,1.3s-6,2.6-7.1,6.4,1.6,3.9,2.9,5.8.4,3.7-1.6,5.2-4-.2-5-1.9c-2.3-3.9-4.3-4.8-7.1-.5-1.2,1.9-2.1,4.6-5.7,2.3s-1.3-4.6,0-6.8,1.7-2.6,2.3-3.7c-1.6-3.7-9.4-.3-7.7-6.8S239.7,295.6,242.7,293.2Z"/><path d="M290.6,301c-1.3,4.3,8.1,6.7,1.6,11.1s-4.9-4.8-7.4-5.1c-5.2-.3-4.7,9.2-10.7,4.8s3.6-6,.8-11.4c-.2,0-2.2-1-4.4-1.6s-2.3-2.3-1.4-4.1.8-3.9,3.6-2.5c5.2,2.7,7.4.9,6.6-4.8-.4-2.7.8-3.8,3.6-3.9s4.5.8,4.4,4.2-1.1,6.9,4.4,5.3c2.7-.8,5.3-2.2,6.3,2.3s-2.7,3.3-4.5,4.4A22.1,22.1,0,0,1,290.6,301Z"/></g></g></svg>