<svg xmlns="http://www.w3.org/2000/svg" viewBox="0 0 314.6 383.1"><g id="Layer_2" data-name="Layer 2"><g id="Layer_1-2" data-name="Layer 1"><path d="M295.7,337.4h10.9c5,.2,7.9,3,7.9,7.9q.2,15,0,30c0,4.7-3,7.5-7.8,7.7H7.5c-4.4-.3-7.4-3-7.4-7.4q-.2-15.3,0-30.6c0-4.5,3-7.4,7.5-7.6H18.9c1.7-1.4,3.7-1.1,5.7-1.1H68.7c5.7,0,5.8-.1,5.8-5.9,0-54.7-.7-109.4.2-164,.8-42.5.2-84.9.7-127.4a5.5,5.5,0,0,1,.2-2.2c1.6-4.5,5-5.6,9.4-5.5,7.2.2,7.2.1,7.2-7,0-4.7.2-9.4,0-14.1S93.5,2.2,97.4,0H217.1c4,2.2,5.5,5.5,5.3,10.1-.2,6.1.1,12.1-.1,18.2-.1,2.5.8,3.3,3.1,3s3.5.1,5.2,0c4.2-.2,6.9,1.6,8.4,5.4.5,9.6,0,19.2.2,28.7.4,15,1.2,29.9.9,44.8-.1,4,.5,4.5,4.6,4.5h19.8c8.9,0,12.2,3.3,12.2,12.2V330.7c.1,5.3.3,5.5,5.4,5.6,3,0,6-.1,9,0S294.4,336.2,295.7,337.4Z" style="fill:#255e61"/><path d="M75.6,36.7c0,2.9-.1,5.7-.1,8.6q0,143.8,0,287.6c0,3.8-.9,4.7-4.7,4.7-17.3-.3-34.6-.2-51.9-.2V162.1c0-5,0-5,5.1-5H69.6c5.9,0,5.3.6,5.3-5.1V41.4C74.9,39.8,74.4,38.1,75.6,36.7Z" style="fill:#e4ff55"/><path d="M90.4,191.5q0-70.5-.1-141c0-3.2.5-4.4,4.1-4.3H220.1c3.1,0,4.2.4,4.2,3.9q-.2,141.8,0,283.6c0,3-.6,4-3.8,3.9q-9-.5-18,0c-2.7.1-3.2-.9-3.2-3.4.1-19.2.1-38.4.1-57.6-.1-7.5-2.4-9.8-9.9-9.8H125.1c-7.7,0-9.9,2.3-9.9,10.1,0,19,0,37.9.1,56.9,0,2.7-.4,3.9-3.6,3.8a178.1,178.1,0,0,0-17.9,0c-2.9.1-3.5-.8-3.5-3.5Q90.5,262.9,90.4,191.5Z" style="fill:#fefefe"/><path d="M130.2,309.6c0-8.4,0-16.7-.1-25.1,0-2,.5-2.8,2.7-2.8,16.3.1,32.6.1,49,0,2.2,0,2.6.8,2.6,2.8V335c0,1.9-.4,2.5-2.4,2.5H132.6c-2,0-2.5-.6-2.5-2.5C130.2,326.5,130.2,318,130.2,309.6Z" style="fill:#fefefe"/><path d="M157.1,31.3c-15.5,0-31.1-.1-46.7.1-2.6,0-3.5-.7-3.3-3.3a52.4,52.4,0,0,0,0-9.7c-.2-2.8.6-3.5,3.5-3.5h94.1c2,0,2.9.4,2.7,2.7a83.4,83.4,0,0,0,.1,10c.2,2.9-.6,3.8-3.7,3.8C188.3,31.2,172.7,31.3,157.1,31.3Z" style="fill:#fefefe"/><path d="M43.4,257c0-13.7,0-27.4.1-41.1,0-4.1,2.1-7.1,5.4-7.9a7.4,7.4,0,0,1,9.2,5.6,21.2,21.2,0,0,1,.3,4.4v78.5a18.2,18.2,0,0,1-.1,3.3c-.5,4.3-3.7,7.2-7.7,7s-7.1-3.1-7.1-7.6c-.1-9.2-.1-18.4-.1-27.6Z" style="fill:#255e61"/><path d="M157.1,238.7c-10.2,0-20.4-.1-30.7.1-2.7,0-3.6-.7-3.6-3.6.1-13.4.1-26.9,0-40.4,0-2.6.9-3.3,3.4-3.3h62.1c2.6,0,3.5.7,3.5,3.3q-.2,20.4,0,40.8c0,2.5-.9,3.2-3.3,3.2Z" style="fill:#e4ff55"/><path d="M149.8,115.6v-37c0-5.7,3-9.1,7.7-9s7.3,3.4,7.3,9V153c0,5.6-3,9.1-7.7,9s-7.3-3.5-7.3-9Z" style="fill:#255e61"/><path d="M130.2,116v22.8c0,3.1-1.1,5.8-4.1,7.4a7.5,7.5,0,0,1-10.9-7c0-15.6,0-31.2.1-46.8,0-4.7,2.9-7.7,7.1-7.8s7.6,3,7.7,7.8C130.3,100.3,130.2,108.1,130.2,116Z" style="fill:#255e61"/><path d="M199.4,116.1c0,7.4,0,14.9-.1,22.4,0,5.2-2.9,8.5-7.3,8.5s-7.6-3.2-7.6-8.3c-.1-15.3-.1-30.7,0-46,0-4.8,3.2-8.1,7.4-8.1s7.5,3.1,7.5,8.3C199.4,100.6,199.4,108.3,199.4,116.1Z" style="fill:#255e61"/></g></g></svg>