<svg xmlns="http://www.w3.org/2000/svg" viewBox="0 0 511.8 428.47"><defs><style>.cls-1{fill:#255e61;}.cls-2{fill:#fefefe;}.cls-3{fill:#e4ff55;}.cls-4{fill:#fe796f;}.cls-5{fill:#fefdfd;}</style></defs><g id="Layer_2" data-name="Layer 2"><g id="Layer_1-2" data-name="Layer 1"><path class="cls-1" d="M0,398.17V30.31C1.79,9,20.31.85,37.16.1,39.49,0,41.82,0,44.15,0q211.76,0,423.5,0c7.53,0,15.1.15,22.15,2.88,12.5,4.83,21,13.22,22,27.43V398.17c-1.79,21.33-20.3,29.45-37.16,30.21-2.32.1-4.66.08-7,.08H44.16c-7.68,0-15.39-.2-22.61-3.05C9.18,420.55,1.11,412.05,0,398.17Z"/><path class="cls-2" d="M255.89,99.28q115.17,0,230.34-.1c4.47,0,5.7,1,5.69,5.62q-.23,139.65-.19,279.3c0,5.11-.27,10.35-4,14.76-4.11,4.84-9.25,6.32-15.26,6.32q-216.35,0-432.69,0c-12.22,0-19.54-6.44-19.77-19.6-.12-7.16,0-14.32,0-21.48q0-129.66-.11-259.32c0-4.58,1.18-5.64,5.68-5.63Q140.73,99.39,255.89,99.28Z"/><path class="cls-3" d="M255.57,78.29q-115.15,0-230.32.11c-4.47,0-5.52-1.12-5.37-5.45.35-9.81-.13-19.66.21-29.47.19-5.26.39-10.57,4.87-14.87,4.17-4,8.79-5.3,14.2-5.3H275q98.92,0,197.84,0a19.45,19.45,0,0,1,14.86,6.14c3.69,3.78,3.76,8.42,4,12.71.53,11,0,22,.26,33,.09,4-2.32,3.16-4.51,3.16H255.57Z"/><path class="cls-4" d="M281,252c0,13.66-.08,27.32.06,41a10,10,0,0,1-3.17,7.89q-29.28,29-58.31,58.31a9.52,9.52,0,0,1-7.45,3q-41-.15-82,0a10,10,0,0,1-7.89-3.16Q93.26,329.72,64,300.7a9.44,9.44,0,0,1-3-7.43q.15-41.24,0-82.46a9.47,9.47,0,0,1,3-7.48q29.28-29,58.31-58.31a10.1,10.1,0,0,1,7.93-3.17q41,.15,82,0a10.14,10.14,0,0,1,7.9,3.25q28.86,29.1,58,58a9.48,9.48,0,0,1,3.11,7.43C280.92,224.32,281,238.14,281,252Z"/><path class="cls-1" d="M388.36,310.2c-17.65,0-35.3-.24-52.95.12-7,.14-10.53-4.75-11.38-10.45-.81-5.4,4.85-10.63,11-10.63q53.7-.09,107.41,0c6.85,0,10.41,3.88,10.37,10.85,0,6.48-3.66,10.08-10.51,10.1C424.33,310.24,406.35,310.2,388.36,310.2Z"/><path class="cls-1" d="M388.43,200.24H440.9c7.78,0,11.44,3.07,12,9.18.72,7.87-4.3,11-11.58,11.76a84.21,84.21,0,0,1-9,0q-47.47,0-94.94,0c-7.89,0-11.31-2.5-12.95-9.21-1.35-5.54,3.35-11.74,9-11.75Q361,200.2,388.43,200.24Z"/><path class="cls-1" d="M388.33,265.22c-17.48,0-35-.4-52.44.19A11.15,11.15,0,0,1,324,255c-.52-5.69,4.89-10.44,11.59-10.8.33,0,.67,0,1,0q52.18,0,104.38,0c5.18,0,9.71,2,11.41,6.59,1.49,4,1.28,8.84-2.83,12.24a10,10,0,0,1-6.8,2.22C424.62,265.19,406.47,265.22,388.33,265.22Z"/><path class="cls-1" d="M418.16,61.3c-8.15,0-16.3,0-24.45,0A10.76,10.76,0,0,1,383,50.8c0-5,5-10.4,10.32-10.44,16.62-.14,33.27-.47,49.88.14,7.12.26,10.22,4.28,9.67,11.42-.45,5.83-4,9.35-10.28,9.37Q430.39,61.32,418.16,61.3Z"/><path class="cls-1" d="M76.17,61.3c-2.32,0-4.65,0-7,0-6.69,0-10-3.6-10.27-10.35-.2-5,1.63-8.68,6.42-9.63,7.67-1.51,15.56-2.67,23,.93,4.33,2.08,6.16,7,4.38,12.25-1.31,3.89-4,6.71-8.62,6.8C81.49,61.34,78.83,61.29,76.17,61.3Z"/><path class="cls-1" d="M133.08,61.3c-2.33,0-4.65,0-7,0-6.66,0-10-3.63-10.21-10.4-.17-4.74,1.55-8.46,6-9.46,7.81-1.73,15.86-2.73,23.51.84,4.22,2,5.9,6.33,4.36,11.81-1.16,4.16-4,7.13-8.77,7.21C138.39,61.33,135.74,61.29,133.08,61.3Z"/><path class="cls-1" d="M190,61.3h-5.49c-8.14,0-11.6-3.18-11.59-10.59,0-6.75,4.16-10.63,11.82-10.33,5.7.22,11.6-1.5,17.1,1.34,4.47,2.31,6.36,7,5,12.4a9.76,9.76,0,0,1-9.39,7.17C195,61.33,192.51,61.3,190,61.3Z"/><path class="cls-2" d="M180.79,236.69c0,4.5.23,9-.06,13.48a9.33,9.33,0,0,1-9.91,9.07,9.52,9.52,0,0,1-9.65-9.44q-.28-13,0-26a9.31,9.31,0,0,1,9.54-9.44c5.67-.11,9.62,3.17,10,8.83C181,227.69,180.78,232.2,180.79,236.69Z"/><path class="cls-5" d="M180.77,289.56a10.23,10.23,0,0,1-9.4,10.31c-5.27.23-10.26-4.66-10.25-10.06a9.85,9.85,0,0,1,9.74-9.88A9.7,9.7,0,0,1,180.77,289.56Z"/></g></g></svg>