<svg xmlns="http://www.w3.org/2000/svg" viewBox="0 0 484 404"><g id="Layer_2" data-name="Layer 2"><g id="Layer_1-2" data-name="Layer 1"><g id="Layer_1-2-2" data-name="Layer 1-2"><path d="M0,375.4V28.6C1.7,8.5,19.2.8,35.1.1H442.2c7.2,0,14.3.1,21,2.7C475,7.3,483.1,15.2,484,28.6V375.4c-1.7,20.2-19.2,27.8-35.1,28.5H41.8c-7.3,0-14.6-.2-21.4-2.9C8.7,396.5,1,388.5,0,375.4Z" style="fill:#255e61"/><path d="M242,93.6H459.8c4.2,0,5.4,1,5.4,5.3q-.1,131.7-.2,263.4c0,4.8-.2,9.7-3.8,13.9s-8.7,5.9-14.4,5.9H37.6c-11.5,0-18.5-6-18.7-18.4-.1-6.8,0-13.5,0-20.3q0-122.2-.1-244.5c0-4.3,1.1-5.3,5.4-5.3Q133.1,93.6,242,93.6Z" style="fill:#fefefe"/><path d="M241.7,73.8H23.9c-4.2,0-5.2-1-5.1-5.1.3-9.3-.1-18.6.2-27.8.2-5,.4-10,4.6-14s8.3-5,13.4-5H447.2a18.1,18.1,0,0,1,14,5.8c3.5,3.5,3.6,7.9,3.8,12,.5,10.3,0,20.7.2,31.1.1,3.7-2.2,2.9-4.2,2.9Z" style="fill:#e4ff55"/><path d="M391,234.2v21.4a5.2,5.2,0,0,1-1.7,4.2q-16.1,15.1-31.9,30.5a5.4,5.4,0,0,1-4.1,1.6H308.5a6.1,6.1,0,0,1-4.3-1.7q-15.9-15.3-31.9-30.5a4.9,4.9,0,0,1-1.6-3.9q.2-21.6,0-43.2a4.9,4.9,0,0,1,1.6-3.9q16.1-15.1,31.9-30.5a5.8,5.8,0,0,1,4.4-1.7h44.8a6.1,6.1,0,0,1,4.3,1.7q15.8,15.3,31.7,30.4a4.6,4.6,0,0,1,1.7,3.9C391,219.7,391,226.9,391,234.2Z" style="fill:#fe796f"/><path d="M395.4,57.8H372.3a10.1,10.1,0,0,1-10.1-9.9c0-4.7,4.7-9.8,9.8-9.8,15.7-.2,31.4-.5,47.1.1,6.8.2,9.7,4,9.2,10.8s-3.8,8.8-9.8,8.8Z" style="fill:#255e61"/><path d="M72,57.8H65.4c-6.3,0-9.4-3.4-9.7-9.8-.2-4.7,1.5-8.1,6.1-9,7.2-1.5,14.7-2.6,21.7.8,4.1,2,5.8,6.6,4.2,11.6s-3.8,6.3-8.2,6.4Z" style="fill:#255e61"/><path d="M125.9,57.8h-6.7c-6.3,0-9.4-3.4-9.6-9.8-.2-4.5,1.4-8,5.7-8.9,7.3-1.7,14.9-2.6,22.2.8,4,1.9,5.6,5.9,4.1,11.1s-3.8,6.7-8.3,6.8Z" style="fill:#255e61"/><path d="M179.7,57.8h-5.2c-7.7,0-11-3-11-10s4-10,11.2-9.7c5.4.2,11-1.4,16.2,1.2s6,6.6,4.7,11.7a9.2,9.2,0,0,1-8.9,6.8Z" style="fill:#255e61"/><path d="M340.2,210.1c0,4.2.2,8.5,0,12.7a8.9,8.9,0,0,1-9.1,8.6h-.3a8.9,8.9,0,0,1-9.1-8.8h0c-.2-8.1-.2-16.3,0-24.5a8.8,8.8,0,0,1,8.6-8.9h.4c5.3-.1,9.1,3,9.4,8.4S340.2,205.8,340.2,210.1Z" style="fill:#fefefe"/><path d="M340.2,255.7a9.5,9.5,0,0,1-8.9,9.5,9.7,9.7,0,0,1-9.7-9.3,9.3,9.3,0,0,1,18.6-.3Z" style="fill:#fefdfd"/><path d="M88.9,252.3c-4.4-4.1-7.1-8.8-9.8-13.4-5.5-9.1-16.9-7.7-21.5.3-2.8,4.9-6.4,9.4-9.8,13.9s-5.7,3-8-.4c-3.5-5.1-7-10.3-10.6-15.4-1.5-2.1-1.7-3.7,0-5.9,4.2-5.8,6.9-14,12.4-16.9s13.9-1,21-1c45.9,0,91.7-.2,137.6.1,11.2.1,13.8-3.1,16.5-13.1,4.6-17.6,13.1-33,24.6-46.9,17.4-21.2,39.6-34.4,65.8-40.3,23.5-5.4,46.6-3.2,69.1,5.7A116.6,116.6,0,0,1,419,148c17.1,18.3,28.5,39.7,32.4,65,.5,3.2.2,6.7,1.6,10.2H419.5c-2.9,0-3.5-1.8-3.8-3.9-3.7-25.3-17.2-44.2-37.5-58.1-14.7-10.1-31.1-13.7-48.8-13.2-24.2.7-44.1,10.6-60,28.6a82.7,82.7,0,0,0-20.3,44.8c-2.6,18.8-.1,36.8,8.7,53.4,13.3,25.1,33.8,40.4,61.7,44.7,30.1,4.7,55.5-4.8,76.1-27.4a78.4,78.4,0,0,0,19.9-41.5c.6-3.6,1.6-5.2,5.4-5,9.2.2,18.5.2,27.7,0,3-.1,3.9.8,3.6,3.8a108.4,108.4,0,0,1-8.6,33.2c-16.2,38.7-50.5,66.4-91.1,73.5-27.2,4.8-52.7.3-76.8-12.9q-39.4-21.7-55.8-64.7a140.5,140.5,0,0,1-4.3-14.4c-1.2-5.1-4.9-9.2-11.4-8.9-12.7.4-25.5,0-38.2.2-4,0-6.7-.9-8.8-4.7a166.7,166.7,0,0,0-9.6-14.1c-3.5-5-12.6-5.6-16.9-.7a68.5,68.5,0,0,0-9.8,13.5c-2.7,4.8-4.6,4-7.5.6s-3.9-4.5-6.8-5.6c-4.5-1.7-8.8-1.8-12.4,1.9Z" style="fill:#255e61;stroke:#255e61;stroke-miterlimit:10;stroke-width:16px"/></g></g></g></svg>