<svg xmlns="http://www.w3.org/2000/svg" viewBox="0 0 273.8 383.1"><g id="Layer_2" data-name="Layer 2"><g id="Layer_1-2" data-name="Layer 1"><path d="M258.1,0c2.8,1.8,5.3,3.8,5.2,7.5a7.4,7.4,0,0,1-7.4,7.4,85.1,85.1,0,0,1-10.1,0c-2-.1-3.1.4-2.7,2.6a12,12,0,0,1,0,1.9q0,155.9-.1,311.6c0,3.7,1,4.6,4.5,4.4,5.8-.3,11.7-.1,17.6-.1s8.7,2.9,8.7,8.8q.1,15.1,0,30.3c0,5.9-2.9,8.7-8.8,8.7H8.8c-5.9,0-8.7-2.8-8.8-8.7V344.1c.1-5.9,2.9-8.7,8.8-8.8H28.2c1.9,0,2.9-.5,2.6-2.5a11.5,11.5,0,0,1-.1-1.9q0-155.7.1-311.6c0-3.9-1-4.9-4.7-4.5a60.6,60.6,0,0,1-7.4.1c-4.1-.1-6.9-2.1-7.9-5.6S11.3,3,14.9.7l.8-.7Z" style="fill:#255e61"/><path d="M228.1,175.1q0,78.2.1,156.4c0,3-.6,3.9-3.8,3.9H49.3c-2.9,0-3.7-.7-3.7-3.7q.1-156.4,0-313.1c0-3.3,1.1-3.7,4-3.7H224.3c3.1,0,3.9.6,3.9,3.8Q228.1,96.9,228.1,175.1Z" style="fill:#fff"/><path d="M136.7,368.2c-39.3,0-78.5-.1-117.8.1-3.4,0-4.2-1-4-4.2a83.7,83.7,0,0,0,0-11.2c-.1-2.2.7-2.9,2.8-2.6H254.4c4,0,4.9,1.1,4.5,4.7a52.4,52.4,0,0,0,0,9.7c.3,3.1-.9,3.6-3.7,3.6Z" style="fill:#fefefe"/><path d="M136.7,309.8H75c-3,0-4-.8-4-4,.2-19.9.2-39.9,0-59.8,0-3,.9-3.8,3.8-3.8H199c2.9,0,3.8.8,3.8,3.8-.1,20.1-.1,40.1,0,60.2,0,2.8-.8,3.6-3.6,3.6Z" style="fill:#e4ff55"/><path d="M137,215.5H73c-6.6,0-9.3-2.7-9.3-9.2,0-33.3-.2-66.6,0-99.9C63.9,64,98.4,31.2,140.8,33c35.2,1.5,65.3,30,68.8,65.1a103.7,103.7,0,0,1,.6,11.2v96.1c0,7.7-2.4,10.1-10,10.1Z" style="fill:#255e61"/><path d="M136.9,200.5H82.3c-2.7,0-3.8-.4-3.8-3.5.2-30.2,0-60.4.2-90.6.1-33.8,27.4-59.9,61.2-58.6,29.8,1.2,54.8,26.5,55.2,56.7s.1,62.1.2,93.2c0,2.9-1.4,2.8-3.4,2.8Z" style="fill:#255e61"/><path d="M91.9,170.4c0-2.5-.1-5,0-7.5a7.3,7.3,0,0,1,6.7-7.2,7,7,0,0,1,7.8,5.9,61,61,0,0,1,0,18.1,7,7,0,0,1-7.9,5.8,7.2,7.2,0,0,1-6.6-6.9c-.1-2.7,0-5.5,0-8.2Z" style="fill:#e4ff55"/></g></g></svg>