<svg xmlns="http://www.w3.org/2000/svg" viewBox="0 0 179.2 383.2"><g id="Layer_2" data-name="Layer 2"><g id="Layer_1-2" data-name="Layer 1"><path d="M138.3,276.9c2.2,14.4,4.2,28.8,6.6,43.2.8,5.1-.3,8.7-4.6,11.9-20.6,16-41,32.1-61.5,48.2-5.1,4-7.5,3.9-12.6,0C45.8,364.1,25.3,347.9,4.7,332,.6,328.8-.6,325.3.2,320.3c4.8-30.1,9.4-60.3,14-90.4s9.3-60.1,13.9-90.1c3.6-23.6,7.2-47.3,10.9-70.9.3-2.1.5-3.2-2.4-3.4-4.6-.2-6.8-2.7-7.5-7.4C26.7,42,24.3,25.9,21.8,9.7c-.7-4.6,1.4-7.5,5.1-9.7h91.3c4.6,2.4,5.7,6.1,4.9,11.2-2.6,15.6-4.8,31.2-7.1,46.8-.7,4.9-2.8,7.2-7.7,7.6-2.3.1-2.6.8-2.2,2.8,1.2,6.4,2.1,12.8,3.2,19.1,3.4,10.9,4.2,22.3,5.9,33.5,7.8,49.8,15.4,99.7,23.1,149.6C138.6,272.8,137.9,274.8,138.3,276.9Z" style="fill:#255e61"/><path d="M138.3,276.9c-1.7-10.7-3.5-21.4-5.1-32.1-4.9-31.6-9.7-63.2-14.6-94.9l-9.3-60.5a12,12,0,0,1,0-1.9c2.9,6.1,6,12,8.9,18.1l30.9,64.7q14.7,31,29.6,62c.7,1.7.8,2.9-.3,4.4L151,277.2c-1.2,1.8-2.5,2.1-4.4,1.2s-4.2-1.5-6.3-2.3S138.6,275.6,138.3,276.9Z" style="fill:#e4ff55"/><path d="M111.6,204.2c2,12.2,3.9,24.5,5.8,36.8,1.3,8.2,2.5,16.4,3.7,24.7a13.7,13.7,0,0,1-2.9,3.8C93.8,294,69.2,318.3,45,342.9l-1,.6-27-21a3,3,0,0,1-1.4-3.1c1.3-7.7,2.5-15.4,3.8-23.1a17.9,17.9,0,0,1,3.5-4.3l84.9-84.9C108.9,205.9,109.9,204.5,111.6,204.2Z" style="fill:#e4ff55"/><path d="M111.6,204.2l-2.4,2.8-87,86.9c-.9.9-1.9,1.6-2.8,2.4,1.8-12.3,3.5-24.6,5.4-36.9s4-25.8,6.1-38.7a16.4,16.4,0,0,1,3.6-4.7L99,151.6c1.1-1.2,2-3,4.2-2.7C106.2,167.3,109.1,185.7,111.6,204.2Z" style="fill:#fefefe"/><path d="M103.2,148.9l-3.3,3-69,68.8c3.1-20.5,6.3-41,9.3-61.5.3-2.4,1.3-2.8,3.3-2.8H66.7c5.3-.1,8.8-3.1,8.7-7.6s-3.5-7.3-8.6-7.4h-19c-5.2,0-5.2,0-3.8-5.4C59.3,121,74.4,105.7,89.6,90.6c1.2-1.2,2.2-2.8,4.1-3.2,1.9,12.2,3.9,24.3,5.8,36.4C100.8,132.2,101.9,140.6,103.2,148.9Z" style="fill:#e4ff55"/><path d="M44,343.5c.1-1.3,1-2,1.8-2.8l74.4-74.4.9-.6c2.5,16.1,4.7,32.2,7.8,48.2,1.1,5.9-.8,8.9-5.2,12.2-16.3,12.4-32.4,25.2-48.4,38-2,1.6-3.2,1.8-5.3.1C61.4,357.1,52.7,350.4,44,343.5Z" style="fill:#fefefe"/><path d="M72.6,15h31.7c2.4,0,3,.5,2.7,2.9-1.6,10.2-3.1,20.4-4.6,30.6-.2,1.6-.8,2.3-2.6,2.3H45.3c-1.9,0-2.4-.8-2.6-2.4-1.5-10.2-2.9-20.4-4.6-30.6-.4-2.5.6-2.8,2.8-2.8Z" style="fill:#fefefe"/><path d="M93.7,87.4l-12,12.3Q64.5,117.1,47,134.3c-.8.8-1.2,2.6-3,1.8l7.2-48.3c1-6.4,2-12.8,2.9-19.2.3-2.3,1.2-3,3.5-3,10,.1,19.9.1,29.9,0,2.4,0,3.3.7,3.6,3C91.8,74.9,92.8,81.1,93.7,87.4Z" style="fill:#fefefe"/></g></g></svg>