<svg xmlns="http://www.w3.org/2000/svg" viewBox="0 0 385 313"><g id="Layer_2" data-name="Layer 2"><g id="Layer_1-2" data-name="Layer 1"><path d="M191.8,0H368.3c6.4,0,11.8,1.4,15.6,7.3a7.9,7.9,0,0,1,1.1,4.5V235.2c0,7.5-5,12.9-12.5,13.6a41.7,41.7,0,0,1-5,.1H232.2c-3.1,0-4.1.6-3.8,4,.8,7.5,1.2,15,1.6,22.5.4,9.7,5.4,16.5,13.3,21.3,4,2.5,8.2,4.6,12.3,7,1.8,1.1,3.7,2.1,4.9,3.8s.9,5.1-2.3,5.5-4.1.1-6.2.1H127.9c-2,0-4.4.5-5-2.4s1-3.8,3.2-5c6.2-3.5,12.5-7.1,18.4-11.1a20.7,20.7,0,0,0,9.1-15.6c.9-8.9,1.4-17.9,2.3-26.8.3-3-.8-3.3-3.3-3.3H12.7C4.4,248.6.4,244.7,0,236.4V16.5c0-1.7,0-3.4.1-5C.6,4.6,4.6.5,11.4.2H191.8Z" style="fill:#255e61"/><path d="M192.5,221.5H22.2c-3.4,0-4.2-.8-4.1-4.2q.1-93.7-.1-187.5c0-3.5.9-4.3,4.3-4.3H362.9c3.2,0,3.9.9,3.9,4.1q-.2,93.9,0,187.9c0,3.2-.7,4-4,4Z" style="fill:#e4ff55"/><path d="M272.3,94.6c0,7.8.2,15.6-.1,23.3a17.1,17.1,0,0,0,2.9,10.1c5,7.8,9.5,16,15.1,23.5s9,14,13.9,20.8c1.7,2.4,1,3.3-1.3,4.4-14.6,7.1-29.6,7.9-44.9,3.1-19.7-6.2-32.7-19.2-39.6-39-3.2-9.1-4.2-18.2-2-27.2,6.2-25.8,25.1-45.5,53.3-48.2,2.4-.3,2.8.5,2.7,2.6C272.2,76.9,272.3,85.7,272.3,94.6Z" style="fill:#255e61"/><path d="M342.4,123.8c-.3,13.2-3.5,25.5-11.1,36.2a65,65,0,0,1-13.8,13.9c-1.4,1.2-1.9.8-2.9-.5-5-7.3-10.1-14.5-14.8-22s-9.3-14.1-14.2-21c-1.4-2-1.3-3.1.8-4.6,15.1-10.7,30.2-21.6,45.2-32.5,2.2-1.6,2.5-.1,3.3,1.2C340.1,103.6,342.2,113.5,342.4,123.8Z" style="fill:#255e61"/><path d="M145.8,68.1c-1.6-1.1-3.9-2-3.1-4.6s2.9-3,4.8-3.1c8.4-.1,16.7-.1,25.1.1,2.1,0,3.5,1.4,3.5,3.8.1,8.1.1,16.3.1,24.5,0,2.6-1.4,4.2-4.1,4.1s-3.8-2-3.8-4.5c-.1-4.1,0-8.2,0-12.8-7.9,7-14,15-20.8,22.2q-7.8,8.3-15.3,16.8c-3,3.4-4.9,3.7-8.6,1.1-1.7-1.2-3.3-2.6-4.9-3.9-8.5-6.6-17-13.2-25.4-20-1.6-1.2-2.4-1-3.9.1A81.1,81.1,0,0,0,83,97.4L53,125.2c-1.1,1-2.4,1.8-3.6,2.7s-4.1,3.1-6,.6a5.1,5.1,0,0,1,.8-7c4.4-4,8.9-7.8,13.2-11.8L85.8,83.5c3.9-3.7,5.4-3.7,9.6-.4l27.3,21.5c4.4,3.4,4.5,3.5,8.1-.7,9.9-11.7,20.9-22.4,30.5-34.3,0-2.2-1.6-1.1-2.5-1.2C154.5,68.1,150.2,68.7,145.8,68.1Z" style="fill:#255e61"/><path d="M176.3,146.4c0,10.1,0,20.2-.1,30.3,0,5.1-.8,5.9-5.8,6s-7.4.1-11.1,0c-7.4,0-7.9-.5-7.9-7.8,0-19.4,0-38.7-.1-58a13.4,13.4,0,0,1,.1-2c.1-4.3,1.3-5.5,5.5-5.6h13.8c4.4.1,5.5,1.1,5.5,5.6.1,10.5,0,21,0,31.5Z" style="fill:#255e61"/><path d="M281.3,119.7V62.9c-.1-2.1.9-2.4,2.5-2.2s5.7.3,8.4,1.1c13,3.8,24.8,9.6,33.9,20.3,2.1,2.5,1.7,3.8-.9,5.7-10.6,7.6-21,15.6-31.7,23.2Z" style="fill:#255e61"/><path d="M103.3,152.3c0,8.1.1,16.1,0,24.2,0,5.1-1,6.2-6,6.2H83.4c-3.3.1-5-1.4-5-4.8-.1-17.1-.1-34.3,0-51.4,0-3.3,1.6-4.9,5-4.9s9.7.1,14.6,0,5.3,1.8,5.3,5.4v25.3Z" style="fill:#255e61"/><path d="M114.9,158c0-6.3.1-12.7,0-19-.1-3.5,1.5-5.1,4.8-5.1h15.4c3.4,0,4.8,1.8,4.7,5.2v38.5c0,3.4-1.4,5.1-4.8,5.1H119.6c-3.2,0-4.7-1.6-4.7-4.8Z" style="fill:#255e61"/><path d="M66.8,164.3v13.3c0,3.5-1.5,5.2-5.1,5.2s-10.1-.1-15.1-.1c-3.1,0-4.7-1.6-4.8-4.7V150.7c0-3,1.7-4.6,4.6-4.6H62.2c3.2,0,4.6,1.9,4.6,5Z" style="fill:#255e61"/><path d="M145.8,68.1H161c.6,0,1.7-.4,1.6.9s-.8.3-1.3.5c-3.5-1.5-7.2-.4-10.7-.7C149,68.7,147.2,69.5,145.8,68.1Z" style="fill:#9c9c9c"/></g></g></svg>