<svg xmlns="http://www.w3.org/2000/svg" viewBox="0 0 314.3 383.1"><g id="Layer_2" data-name="Layer 2"><g id="Layer_1-2" data-name="Layer 1"><path d="M169.1,0c5.2,1,10.4,1.8,15.5,3,46.8,11,84.9,52.8,91.3,100.2a142.1,142.1,0,0,1,1,20.6c-.1,15.4,0,30.9-.1,46.3,0,2.7.4,3.8,3.4,3.6s7.2-.1,10.8-.1c13.7.1,23.2,9.7,23.3,23.4V359.7c-.1,13.7-9.7,23.4-23.3,23.4H23.2c-13.4,0-23.2-9.7-23.2-23V196.6c0-13.2,9.7-22.8,22.9-23,3.7,0,7.5-.2,11.2.1s3.4-.9,3.4-3.6c-.1-17.1-.1-34.1-.1-51.2.2-35.8,14.8-65.1,41-88.8A115.7,115.7,0,0,1,142.6.7a1,1,0,0,0,1.1-.7h6.7a56.2,56.2,0,0,0,14.2,0Z" style="fill:#255e61"/><path d="M157.2,368.1H25.1c-7.8,0-10.1-2.3-10.1-10.2V198.5c0-7.6,2.4-9.9,10.1-9.9h264c7.9,0,10.2,2.3,10.2,10.3V357.8c0,8.1-2.2,10.3-10.5,10.3Z" style="fill:#e4ff55"/><path d="M157.1,173.6H93.5c-2.7,0-3.8-.4-3.8-3.6.2-16.6.1-33.1.1-49.7.1-39,31.1-69.1,70-68,34.4,1,63.7,30,64.6,64.4.4,18,0,36.1.2,54.2,0,2.7-1.3,2.6-3.2,2.6Z" style="fill:#fefefe"/><path d="M239.4,139.9c-.4-8.8.7-19.7-.6-30.5-3.9-32.8-30.1-62.1-62.3-69.8C130.3,28.7,84,59.3,75.8,106.3a63,63,0,0,0-1,11.5c.1,17.5,0,34.9.1,52.4,0,2.7-.6,3.6-3.4,3.5-5.5-.3-11-.2-16.5-.1-1.7,0-2.7-.1-2.7-2.3.5-20.5-1.2-41.2.9-61.7,5.5-52.8,42-85.7,86.4-92.4,34.3-5.2,65.1,3.1,90.7,27.1,17.3,16.2,26.4,36.8,30.1,60,2.5,15.8,1.2,31.8,1.5,47.8.1,6.3-.1,12.7,0,19,.1,2-.5,2.6-2.5,2.5-5.7-.1-11.4-.1-17.2.1-2.3,0-2.8-.7-2.8-3C239.5,161.1,239.4,151.5,239.4,139.9Z" style="fill:#fefefe"/><path d="M156.9,323.2c-29.3,0-58.6.1-87.8,0-10.7,0-16.7-5.9-16.7-16.5V249.8c0-10.3,6-16.3,16.5-16.3H245.4c10.5,0,16.5,6,16.5,16.3v57.3c0,10.1-6.1,16.1-16.3,16.1C216,323.3,186.5,323.2,156.9,323.2Z" style="fill:#fff"/><path d="M169.4,283.9c1.2,1.7,2.3,3.1,3.2,4.5a7.6,7.6,0,0,1-1.7,10.1c-3.2,2.5-7.4,1.9-10.3-1.2-1.3-1.4-1.8-4-3.6-3.8s-2.2,2.5-3.3,3.8c-3,3.2-7.1,3.7-10.4,1.1a7.4,7.4,0,0,1-1.5-10c.9-1.5,1.9-2.9,3-4.4-3.5-1.9-8.1-1.9-9.6-6.4a6.9,6.9,0,0,1,0-5.1c1.8-4.8,4.9-5.5,14.2-3.2.6-3.8-.7-8.2,3.1-11a7.4,7.4,0,0,1,5.2-1.6c4.8.4,6.4,3.2,7.1,12.5,3.8-.5,7.5-3,11.4-.5a7.9,7.9,0,0,1,3.1,4.5C180.6,277.9,178.2,280.5,169.4,283.9Z" style="fill:#255e61"/><path d="M204.7,284c-9-3.8-11.3-6.5-9.8-11.1s5-5.9,14.6-3.6a50,50,0,0,1,.1-5.5,7.3,7.3,0,0,1,7.2-7.1c4.1-.1,7.2,2.9,7.7,7.1.2,1.8-.9,4.3.6,5.2s3.2-.8,4.9-1.1c4.5-.9,7.8,1,9,5s-.6,7.5-4.8,9.2l-4.7,1.7c.5,1.8,1.9,2.9,2.8,4.4,2.2,3.6,1.6,8-1.6,10.3s-7.4,1.9-10.3-1.3-3.4-3.8-6.8,0-7.1,3.8-10.4,1.3-3.8-6.8-1.4-10.4Z" style="fill:#255e61"/><path d="M105.1,269.2c9.6-2.2,12.5-1.4,14.2,3.6s-.3,6.9-9.6,11.3c1,1.4,2.1,2.8,3,4.2,2.2,3.7,1.4,8-1.9,10.3s-7.2,1.8-10-1.3l-.3-.3c-3.2-3.8-3.2-3.8-6.4-.1s-7.2,4.2-10.6,1.6-3.8-6.8-1.2-10.7,2.6-4-1.8-5.6-6.5-5.3-5.3-9.3,5.1-6.1,9.8-4.9l4.7,1.5c.1-5.9-.4-12.3,7.7-12.8C102.1,256.5,103.6,259.1,105.1,269.2Z" style="fill:#255e61"/></g></g></svg>