<svg xmlns="http://www.w3.org/2000/svg" viewBox="0 0 306.9 383.2"><g id="Layer_2" data-name="Layer 2"><g id="Layer_1-2" data-name="Layer 1"><path d="M264.9,0c4.8,2.7,6.3,5.5,5.3,9.5s-3.9,5.4-9.1,5.5H34.4c-10.1,0-16.8,7-15.8,16.5A14.4,14.4,0,0,0,31.3,44.2a52.4,52.4,0,0,0,5.6.2H282c12.1,0,21.2,6.4,24.1,16.8,4,14.9-6.8,29-22.8,29.2s-31,0-46.4,0H160.2c-2.8,0-3.9.5-3.8,3.6.3,7.3.2,14.7.2,22,1.7,3.9.7,7.9.8,11.8s.1,5.3,5,6.4q38.1,8.4,52.7,44.6a62.5,62.5,0,0,1,4.5,23.8V274c0,29.4-17.9,55.9-45.4,66.1C129.3,356.7,83.8,326.5,79,282a163.8,163.8,0,0,1-.7-19.8c0-18.9-.1-37.9,0-56.8.1-13.6,3.2-26.5,10.3-38.2,10.7-17.5,26.2-28.4,46.2-32.8,5.6-1.2,5.5-1.1,5.7-7,.1-3.8-1-7.7.9-11.3,0-10.3.1-20.5.1-30.7,0-7.5,2.4-9.9,9.8-9.9H280.7a16.9,16.9,0,0,0,5.5-.5,7.9,7.9,0,0,0,5.7-7.9,7.8,7.8,0,0,0-6.2-7.4,30.3,30.3,0,0,0-5.2-.3q-122.4,0-244.6,0C23.3,59.4,13.4,55,7.2,44-2.5,26.9,7.4,5.1,26.5.8c.7-.2,1.6.1,2-.8Z" style="fill:#255e61"/><path d="M141.4,116.1c0,5.3,0,10.7.1,16,.1,1.7-.4,2.3-2.2,2.6-31.4,5.4-53.1,26.6-58.8,57.6a74.4,74.4,0,0,0-1,11.5q-.1,34.9,0,70c.2,33.7,22.7,61.3,55.7,68.5,38.7,8.4,77.9-19.5,82.7-58.9a96.5,96.5,0,0,0,.6-12c0-21.8-.3-43.6.1-65.4.8-38-27.2-67.1-59.9-71.3-1.8-.2-2.3-.9-2.2-2.6.1-5.3.1-10.7.1-16.1H270.4A27.3,27.3,0,0,1,298,143.6q-.3,106.1,0,212.1a27.5,27.5,0,0,1-27.7,27.5q-121.2-.3-242.4-.1C11.6,383.1,0,371.6,0,355.5V143.7c0-15.8,11.8-27.6,27.6-27.7Z" style="fill:#e4ff55"/><path d="M149.1,238.7c17.1,0,34.2.1,51.2-.1,2.6,0,3.4.6,3.3,3.3-.1,10.8,0,21.7,0,32.5-.2,28-22,52-49,54.1-29.4,2.2-54.5-16.9-59.3-45.3-1.6-9.1-.7-18.4-.8-27.6-.1-4.5.1-9-.1-13.5-.2-2.8.6-3.5,3.5-3.5C114.9,238.8,132,238.7,149.1,238.7Z" style="fill:#e4ff55"/><path d="M149,223.7H98.1c-2.7,0-3.9-.5-3.7-3.6.4-10.3-.8-20.6,2-30.8A54.5,54.5,0,0,1,203,195.7c1.2,8.7.3,17.4.6,26.1.1,2.7-1.8,1.9-3,1.9-14.2.1-28.4,0-42.6,0Z" style="fill:#fefefe"/><path d="M156.5,192.5c0,2.1.1,4.2-.1,6.3a7,7,0,0,1-6.8,7c-4,.3-7.6-2.3-7.9-6.3a79.5,79.5,0,0,1,0-13.8c.4-4,3.9-6.5,7.9-6.3a7.1,7.1,0,0,1,6.8,7.1C156.6,188.5,156.5,190.5,156.5,192.5Z" style="fill:#255e61"/></g></g></svg>