<svg xmlns="http://www.w3.org/2000/svg" viewBox="0 0 331.5 383.1"><g id="Layer_2" data-name="Layer 2"><g id="Layer_1-2" data-name="Layer 1"><path d="M51.3,0H257.1a18.6,18.6,0,0,1,6.2,4.6c4.6,4.6,9.1,9.3,13.8,13.7a14,14,0,0,1,4.6,11.2c-.1,29.3,0,58.6,0,87.8,0,7,0,7,6.9,7a67.7,67.7,0,0,1,7.8.1c1.4.2,3.1,0,3.4,2.1-1.4,1.5-3.2,1.3-4.9,1.4h-9.7c-2.6,0-3.4,1.1-3.5,3.6-.3,7.7-.4,7.6,7.6,7.8,2.6.1,5.8-1.3,7.5,2.1-1.4,1.6-3.3,1.4-5.2,1.4s-4,.2-6,.1-4,.9-3.9,3.9c0,4.8.2,9.7-.2,14.5.4,2.2-.9,3.6-2.3,4.8-12.4,10.9-23.2,23.4-35.5,34.2a12.9,12.9,0,0,0-1.7,1.6c-15.9,16.4-33,31.8-49,48.2-4.7,4.8-9.8,9.2-14.7,13.8a17.8,17.8,0,0,1-25,.1c-4.7-4.3-9.4-8.6-13.9-13.1-16.3-16.5-33-32.5-49.7-48.6-11.6-11.1-22.5-22.9-34.6-33.5-2.3-1.9-5.2-3.7-5.1-7.4s-.1-7.5-.2-11.2c-.1-8,.7-7.2-7.5-7.4-2.6,0-5.3.7-7.5-1.2.2-2.4,2.1-2.1,3.6-2.3s5.5-.1,8.2-.1,3.2-.9,3.2-3.1c.1-9.6.3-8-7.5-8.2-2.2,0-4.5.1-6.7-.1s-3.1,0-3.9-1.6c.9-2,2.8-1.9,4.5-1.9s6.4-.1,9.7-.1,4-1,3.9-3.7,0-2.8,0-4.1V6.7C49.8,4.4,49.4,1.9,51.3,0Z" style="fill:#e4ff55"/><path d="M299.6,126.3c19.4,2.7,31.5,16.5,31.9,36.2.1,6.6,0,13.2,0,19.8V345.4c0,16.1-6.8,28-21.6,34.9a32.5,32.5,0,0,1-13.8,2.8H35.4c-19.1,0-34-14.5-35.2-33.6-.1-1.3-.2-2.5-.2-3.7q0-91.2,0-182.2c0-9.6,2.5-18.2,8.9-25.5s13.9-10.6,23-11.8c5.5,0,10.9.1,16.4-.1,2.3-.1,3,.7,2.9,3a66.1,66.1,0,0,0,0,8.9c.2,2.5-.9,2.9-3,2.9-4.5,0-9-.4-13.4.3-1.5,1.2-2.2,2.2-.3,3.9,4.6,4.3,9,8.9,13.4,13.3,1.1,1.2,2.5,2.2,2.7,3.9l50.7,49.7,51.8,50.3c7.6,7.4,17.7,7.4,25.3,0L280.6,163c.2-.1.2-.4.4-.6.1-1.7,1.5-2.7,2.6-3.9,4.5-4.5,8.9-9,13.5-13.3,1.9-1.8,1.7-2.8-.4-3.9-4.3-.7-8.6-.3-13-.3-2.5.1-3.6-.5-3.4-3.2a61.7,61.7,0,0,0,0-8.6c-.1-2.3.6-3.1,2.9-3C288.7,126.4,294.2,126.3,299.6,126.3Z" style="fill:#255e61"/><path d="M165.8,82.2h60.9c3.4-.1,6.2.9,7.8,4a7.4,7.4,0,0,1-4.1,10.4,17.5,17.5,0,0,1-5.6.5H106.7a24.1,24.1,0,0,1-3.8-.1,7.5,7.5,0,0,1-6.7-8c.3-3.9,3.2-6.7,7.5-6.8,9.1-.1,18.2,0,27.3,0Z" style="fill:#255e61"/><path d="M165.9,118h60.2c2.2,0,4.5,0,6.4,1.6a7.4,7.4,0,0,1-2.2,12.9,15.3,15.3,0,0,1-5.2.5H104.3c-5-.3-8.3-3.4-8.1-7.8s3.3-7.1,8.4-7.1Z" style="fill:#255e61"/><path d="M165.8,46.3h62.8a7.3,7.3,0,0,1,6.7,6.4,7.4,7.4,0,0,1-5,7.9,12.8,12.8,0,0,1-5.1.6H103.3c-4.3-.5-7.2-3.7-7.1-7.7s3.1-7.1,7.5-7.2h62.1Z" style="fill:#255e61"/><path d="M201,153.9h26.9a7.2,7.2,0,0,1,7.3,5.7,7.7,7.7,0,0,1-3.8,8.2,9.7,9.7,0,0,1-4.7,1H175.2c-5.4,0-8.8-3.2-8.7-7.7s3.4-7.1,8.7-7.2Z" style="fill:#255e61"/><path d="M50.6,162.4,31.4,140.9c.2.3,1.8.4,3.4.4,4.4.1,8.9.1,13.3.3,1.2,0,3-.5,3,1.3C51,149.4,52,155.9,50.6,162.4Z" style="fill:#fefefe"/><path d="M300.7,367.8H30.3L50,352l92.7-74.4c1.8-1.4,2.9-1.7,5.1-.4,12,7.7,24.1,7.6,36.1,0,1.7-1.1,2.7-1.4,4.5,0q55.5,44.7,111.1,89.1Z" style="fill:#fefefe"/><path d="M17.7,151.5,134.4,265.1,18.2,358.3c-2.6-3.6-3.2-7.5-3.2-11.5V162.4A20.5,20.5,0,0,1,17.7,151.5Z" style="fill:#fefefe"/><path d="M313.8,151.8c2.6,3.8,2.7,8,2.7,12.2V345a27.9,27.9,0,0,1-1.6,10.7c-.9,2.3-1.7,2.6-3.7.9L280.6,332l-81.1-64.9c-1.4-1.2-2.7-1.7-.6-3.8q57-55.2,113.9-110.8Z" style="fill:#fefefe"/></g></g></svg>