<svg xmlns="http://www.w3.org/2000/svg" viewBox="0 0 385 385.7"><g id="Layer_2" data-name="Layer 2"><g id="Layer_1-2" data-name="Layer 1"><path d="M112.2,181a19.9,19.9,0,0,1,17.6,19,3.1,3.1,0,0,1,.1,1V365.3c-.1,9.8-6.1,17.3-15.7,19.7a27,27,0,0,1-6.3.7h-86C9.2,385.6.1,377.4,0,365.7V201.1c0-9.4,5.4-16.6,14.4-19.4l3.8-1h91.7C110.6,181.1,111.5,180.6,112.2,181Z" style="fill:#255e61"/><path d="M112.2,181a3.1,3.1,0,0,1-2.3-.3h2.2A.4.4,0,0,0,112.2,181Z" style="fill:#4c4caa"/><path d="M8.8,271.7c0-23.6-.1-47.2,0-70.8,0-6.4,3.9-11,10.3-12.1h88.6c8.3,0,13.4,4.6,13.4,12.3q0,71.4.1,142.7c0,1.6-.5,2-2.2,2H10.9c-1.8,0-2.2-.5-2.2-2.1Q8.9,307.8,8.8,271.7Z" style="fill:#e4ff55"/><path d="M64.9,353.7h53.7c2.2,0,2.7.6,2.6,2.5s0,6.4-.1,9.6c-.1,7.2-5.2,11.9-13.2,12H22c-8-.1-13.2-4.7-13.2-12-.1-3.4,0-6.8-.1-10.2-.1-1.6.5-1.9,2.1-1.9Z" style="fill:#fefefe"/><path d="M64.8,198.5h36.5a4,4,0,0,1,3.6,3.7,3.8,3.8,0,0,1-3.4,4,11.8,11.8,0,0,1-2.6.2H29.7c-2.9-.1-4.7-1.7-4.7-4s1.8-4,4.7-4H64.8Z" style="fill:#255e61"/><path d="M65,369.7H61.9a4.2,4.2,0,0,1-4.2-3.8,4,4,0,0,1,3.9-4.1h6.7a4,4,0,1,1-.3,7.9Z" style="fill:#255e61"/><path d="M385,364.1c-.6.4-.4,1.1-.6,1.6a16.2,16.2,0,0,1-15.5,11.6H196.7c-9.3,0-15-5.2-17-10.6a19.1,19.1,0,0,1-1-6.7V352c.1-2.7,1.6-4.2,4.4-4.2s3.9-.1,5.8,0,2-.4,1.8-1.7a6.6,6.6,0,0,1,0-1.4V241.9c0-7.7,4.2-13.2,11.3-15.1a20.4,20.4,0,0,1,4.9-.5H356.8c9.9,0,16.2,6,16.2,15.6V345.3c0,2.9-.3,2.5,2.6,2.5h4.2a4.8,4.8,0,0,1,5.2,2.8Z" style="fill:#255e61"/><path d="M308.9,201.9a3.5,3.5,0,0,1-2.2,3.5,4.1,4.1,0,0,1-4.8-.9,27.5,27.5,0,0,0-11.6-6.6c-10.5-2.8-19.8-.8-27.9,6.1a7,7,0,0,1-2.5,1.7,4.3,4.3,0,0,1-4.6-1.7,3.9,3.9,0,0,1,.8-4.9,33.1,33.1,0,0,1,12-7.6c14.3-5,27.3-2.8,38.8,6.9C308.1,199.4,309,200.5,308.9,201.9Z" style="fill:#255e61"/><path d="M281.7,205.8a19.8,19.8,0,0,1,13.1,4.9c1.9,1.8,2.1,4.1.6,5.7s-4,1.8-6,.1c-4.9-4-10.3-4-15.1,0-2.1,1.6-4.3,1.7-5.9,0s-1.5-4,.5-5.8A19,19,0,0,1,281.7,205.8Z" style="fill:#255e61"/><path d="M365,293.4c0,17.5-.1,34.9,0,52.3,0,1.8-.5,2.1-2.2,2.1H304c-4.2,0-5.2.9-5.5,4.9-.1,1-.5,1.2-1.3,1.1H266.5c-1.1,0-1.2-.5-1.3-1.4-.1-3.5-1.4-4.7-5.1-4.7H200.9c-1.8,0-2.2-.4-2.2-2.1V242.1c0-5.5,2.7-8.1,8.4-8.1H356.6c5.7,0,8.4,2.6,8.4,8.1Z" style="fill:#e4ff55"/><path d="M281.9,369.6c-28.4,0-56.7-.1-85,.1-6.8,0-10.5-4.3-10.2-9.7s.1-4.5,4.7-4.5c21.3,0,42.5.1,63.7,0,1.6,0,2.2.3,2.1,2s1.6,4.1,4.9,4.1h39.5c3.5,0,4.8-1.2,4.9-4.7,0-1.1.3-1.4,1.5-1.4h67.6c1.1,0,1.4.4,1.4,1.3s0,3.4-.1,5.1a8.3,8.3,0,0,1-8,7.7h-87Z" style="fill:#fefefe"/><path d="M281.7,332H235.4q-7.5,0-7.5-7.2V274.3c0-4.7,2.7-7.4,7.5-7.4h92.9c4.8,0,7.5,2.7,7.5,7.4.1,16.8.1,33.7,0,50.5q0,7.2-7.5,7.2Z" style="fill:#fef49a"/><path d="M281.9,249.5H232.2a3.9,3.9,0,0,1-3.7-3.7,3.8,3.8,0,0,1,3.4-3.9h97.6a8.5,8.5,0,0,1,3.2.4,3.8,3.8,0,0,1-1.1,7.3H281.9Z" style="fill:#255e61"/><path d="M37.8,319H14.6c-2.5,0-3.8-1.5-3.8-4.5V283c0-2.9,1.4-4.5,3.8-4.5,15.5-.1,31-.1,46.4,0,2.5,0,3.8,1.6,3.8,4.5v31.5c0,3-1.3,4.5-3.8,4.5Z" style="fill:#255e61"/><path d="M98.6,305.7H87.1c-1.3,0-1.9-.9-1.9-2.6V284.9c0-1.7.7-2.7,1.9-2.7h23.2c1.2,0,1.9,1,1.9,2.7v18.2c0,1.7-.7,2.6-1.9,2.6Z" style="fill:#255e61"/><path d="M98.6,336.6H87.1c-1.3,0-1.9-.9-1.9-2.6V315.8c0-1.7.7-2.6,1.9-2.6h23.2c1.2,0,1.9.9,1.9,2.6V334c0,1.7-.7,2.6-1.9,2.6Z" style="fill:#255e61"/><path d="M261.5,148.4a18.1,18.1,0,0,1-2.7,5.8,13.6,13.6,0,0,1-9.3,5.4c-.9.2-1.3.4-1.5,1.3-.6,2.9-1.4,5.8-2.2,8.6-3.4,12.2-15.4,19.1-28.1,16.3a39.3,39.3,0,0,1-4.4-1c-1.2-.4-1.6,0-1.8,1.1a21.8,21.8,0,0,1-1.1,4.4,3.9,3.9,0,0,1-4.9,2.9l-21.5-5c-7-1.8-11.3-7.6-10.8-14.3s5.9-11.8,13-12.6c3.2-.3,6.2.8,9.2,1.5l16.2,3.7c3.1.8,4.1,2.5,3.5,5.5s-1.8,3.7-.9,5,3.2,1,4.9,1.4c9,2.1,17-2.6,19.3-11.3.7-2.7,1.3-5.4,2-8,.3-.9.1-1.2-.6-1.7-5.2-3.8-7-8.7-5.5-14.8,4.3-17,8.5-34.1,12.8-51.1,1.4-5.7,5.2-9.3,11.3-10.4,1-.2,1.4-.5,1.6-1.6,5-33.5-18.5-64.9-53.1-70.9s-69.1,16-76,49.7a58.1,58.1,0,0,0-.6,21.2c.1,1,.5,1.3,1.5,1.5,6.2,1.2,10,4.8,11.4,10.6,4.3,17,8.5,34,12.8,51.1,1.9,7.7-2.3,14.8-9.8,16.6s-14.9-2.4-17.1-10.2l-.3-.7a3.8,3.8,0,0,1-.9-1.8c-3.8-15.1-7.5-30.2-11.3-45.2a7,7,0,0,1-.3-3.2c-.7-3.2-.8-6.3.7-9.4a13,13,0,0,1,4.8-5.6,1.8,1.8,0,0,0,.9-2c-3.6-27.4,5.9-49.9,28.5-67C161.6,6.3,173.6,2,186.7.4c.5,0,1.1.3,1.4-.4h1.2c.2.3.5.2.8.2s.8.1,1.1-.2h7.9c.3.3.7.2,1.1.2s.6.1.8-.2h.8c1.9.8,4,.7,6,1.1,30.1,4.9,54.8,28.6,59.6,57.4a67.7,67.7,0,0,1,.2,22.9c-.1.6-.2,1,.4,1.5,5.8,3.7,7.4,9,6,15.3a7,7,0,0,1-.3,3.2c-3.8,15-7.5,30.1-11.3,45.2A3.8,3.8,0,0,1,261.5,148.4Z" style="fill:#255e61"/><path d="M191.2,0c-.3.5-.7.4-1.2.3s-.1-.1-.1-.2h1.3Z" style="fill:#6161b4"/><path d="M200.3.3c-.5.1-.9.2-1.2-.3h1.2V.2Z" style="fill:#6161b4"/><path d="M190,0c.1.1,0,.2,0,.3s-.6.2-.7-.3Z" style="fill:#9393cc"/><path d="M200.3.3c0-.1-.1-.2,0-.3h.7C201,.5,200.6.4,200.3.3Z" style="fill:#9393cc"/><path d="M116.3,98.2l6,23.7c2.1,8.5,4.3,17.1,6.4,25.6a2.8,2.8,0,0,1,.1.9,26.3,26.3,0,0,1-19.9-6.1c-6.4-5.3-9.7-12-9.5-20.1.2-10.1,5.2-17.7,14.5-22.7Z" style="fill:#e4ff55"/><path d="M261.5,148.4c1.5-6.1,2.9-12.2,4.4-18.3,2.6-10.5,5.3-20.9,7.9-31.4,0-.2.1-.3.2-.5,2.7,1.5,5.5,2.8,7.9,4.9a25.9,25.9,0,0,1,8.7,15.6c2.2,13.2-6.8,25.6-19.6,29A21.8,21.8,0,0,1,261.5,148.4Z" style="fill:#e4ff55"/><path d="M142.6,152.2c-2.9-.1-5.1-1.9-5.9-5.1L131.6,127c-2.5-10.3-5.1-20.6-7.7-31a5.9,5.9,0,0,1,4.3-7.5,6,6,0,0,1,7.3,4.7l12.9,51.4C149.4,148.8,146.7,152.2,142.6,152.2Z" style="fill:#fefefe"/><path d="M247.6,152.2a5.7,5.7,0,0,1-5.8-6.9c2.4-9.9,4.9-19.8,7.3-29.7,1.8-7.1,3.6-14.1,5.3-21.2a8.3,8.3,0,0,0,.4-1.5,6.1,6.1,0,0,1,7.2-4.4,6,6,0,0,1,4.5,7.3c-2.6,10.5-5.3,21-7.9,31.5-1.7,6.6-3.3,13.3-5,19.9C252.8,150.3,250.6,152.2,247.6,152.2Z" style="fill:#fefefe"/><path d="M181,174.9a6.2,6.2,0,0,1,7.4-5.9c5.7,1.2,11.4,2.6,17.1,3.9,1,.2,1.1.6.9,1.4l-2.4,9.5c-.2.9-.4,1.2-1.5.9-5.6-1.3-11.2-2.5-16.7-3.9A6.1,6.1,0,0,1,181,174.9Z" style="fill:#fefefe"/></g></g></svg>