<svg xmlns="http://www.w3.org/2000/svg" viewBox="0 0 404.58 511.8"><defs><style>.cls-1{fill:#255e61;}.cls-2{fill:#e4ff55;}.cls-3{fill:#fefefe;}</style></defs><g id="Layer_2" data-name="Layer 2"><g id="Layer_1-2" data-name="Layer 1"><path class="cls-1" d="M192.26,0h20C233.08,1.72,245,14.38,252.13,32.72c1.57,4,4.36,5,8.19,5,17,0,34,.19,51-.1,7.36-.13,13.39,2,18.36,7.27,2.32,2.44,5.16,2.79,8.22,2.8,12,.06,24,.31,36,0,16.09-.47,30.77,14.82,30.75,30.94q-.27,202.33-.05,404.67c0,8-3.15,14.45-7.73,20.57-4.18,5.57-10.44,6.66-16.61,8H24.32C13.69,510.75,6.62,505,2.43,495.34a23.15,23.15,0,0,1-2.35-9.62c0-1.83,0-3.66,0-5.49Q0,280.9,0,81.55C0,75.66.35,70,3.31,64.65c6-10.84,14.87-16.79,27.36-16.93,11.83-.13,23.65-.07,35.48,0A12.86,12.86,0,0,0,76,43.86a21.08,21.08,0,0,1,15.76-6.24c17.14.21,34.3.11,51.45.05,6.88,0,7.33-.44,9.83-6.84a52.51,52.51,0,0,1,23.39-27C181.35,1,187,1.42,192.26,0Z"/><path class="cls-2" d="M72.13,100c2.44,14.29,9.22,20,23.74,20H308.63c14.51,0,21.27-5.7,23.75-20,6.13-4.1,12.72-2.38,19.15-1.22,1.82.32,2.53,2.45,2.72,4.41.28,2.82.26,5.65.26,8.48q0,169.42,0,338.84c0,13.64,0,13.67-13.57,13.68H63.57C50,464.13,50,464.1,50,450.46Q50,281,50,111.62c0-13.88.39-14.26,14.33-13.93C67.08,97.76,70.1,97.23,72.13,100Z"/><path class="cls-3" d="M72.13,100c-5.33,0-10.67.08-16,0-2.78,0-4,1.11-3.84,3.87.08,1.32,0,2.66,0,4V454.15c0,7.67,0,7.67,7.51,7.67H344.69c7.5,0,7.51,0,7.51-7.67V107.31c0-7.34,0-7.34-7.33-7.35H332.38c-.06-9,0-18-.22-27-.05-2.46.8-3.07,3.14-3,11.32.1,22.7-.66,34,.25,10.63.85,11.17,2.37,12.91,12.89a15.9,15.9,0,0,1,0,2.49q0,195.36.06,390.73a30.55,30.55,0,0,1-1.17,8.21c-1.5,5.43-6.28,6.47-11,7.28a21.37,21.37,0,0,1-3.49,0q-164.38,0-328.78.07a35.55,35.55,0,0,1-8.69-1.27c-5.49-1.37-5.75-6.45-6.75-10.83a16.24,16.24,0,0,1,0-3.49q0-195.36-.07-390.73a36.75,36.75,0,0,1,1.23-8.7c1.33-5.51,6.35-6.57,10.75-6.73,11.81-.44,23.65-.1,35.48-.2,2.42,0,2.64,1.14,2.61,3C72.21,82,72.18,91,72.13,100Z"/><path class="cls-1" d="M201.93,100c-34.65,0-69.3-.12-103.95.14-5,0-6-1.41-5.8-6,.37-9.81.29-19.66,0-29.48-.1-3.67.77-4.73,4.6-4.69,21,.21,42-.25,63,.24,11.22.26,12.73-4.58,13.37-12.48C174.38,32.2,186.07,22.31,198,21.06c18.72-2,29.34,9.17,33.09,22.78.71,2.6.51,5.47,1.09,8.23,1.07,5,4.07,7.9,9.24,7.9,22,0,44,.1,66-.08,3.8,0,5.08.79,5,4.83-.32,10.32-.28,20.66,0,31,.09,3.59-1,4.35-4.43,4.34C272.56,99.91,237.24,100,201.93,100Z"/><path class="cls-1" d="M252,174c-16,0-32,.06-47.95,0-8.68,0-13.69-6.26-11-13.48,2-5.36,6.49-6.54,11.68-6.53q39.21.06,78.41,0c5.66,0,11.33,0,17,0,7.19.07,11.92,4,12,9.85s-4.78,10.12-12.24,10.14Q276,174,252,174Z"/><path class="cls-1" d="M252.52,235.9c16,0,32-.07,48,0,8.83.05,14,6.8,10.75,14-2.21,4.9-6.57,6-11.58,6q-45-.08-89.9,0c-1.67,0-3.33,0-5,0-7.57-.06-12.39-3.9-12.46-9.92s4.8-10.06,12.29-10.08C220.56,235.87,236.54,235.9,252.52,235.9Z"/><path class="cls-1" d="M252.49,315.87c16,0,32-.07,47.95,0,8.84.05,14,6.75,10.79,14-2.2,4.92-6.55,6.05-11.56,6q-42.19-.09-84.41,0h-9.49c-8.5,0-13.56-3.6-13.44-9.89.1-5.25,3.58-10.4,13.21-10.21C221.19,316.1,236.84,315.87,252.49,315.87Z"/><path class="cls-1" d="M252.57,395.84c16,0,32-.07,47.94,0,8.66.05,13.6,6.32,10.84,13.56-1.68,4.42-5.26,6.38-9.74,6.39q-49.44.09-98.88,0a10.13,10.13,0,0,1-10.45-9.91c0-5.69,4.63-10,11.35-10C219.94,395.77,236.26,395.84,252.57,395.84Z"/><path class="cls-1" d="M117.33,430.86c-2.51-.47-4.91-.93-6.8-2.85-5-5.1-10.21-10-15.15-15.21-4.18-4.38-4.12-9.67-.18-13.75s9.62-4.16,14.2-.05l.36.34c7.8,7.24,7.8,7.24,15.24-.19,4.94-4.94,9.83-9.95,14.86-14.8,4.57-4.42,10.06-4.57,14.18-.61,4.33,4.17,4.36,9.78-.32,14.56-9.55,9.75-19.28,19.33-28.91,29A12.84,12.84,0,0,1,117.33,430.86Z"/><path class="cls-1" d="M157.24,151.13a11.87,11.87,0,0,1-3.41,7.22c-9.66,9.64-19.23,19.38-29,28.93-5,4.95-10.21,4.81-15.3-.16-4.77-4.64-9.52-9.32-14.1-14.14-4.33-4.56-4.21-10,0-14.11,4-3.86,9.41-3.79,13.84.16,8.41,7.49,8.4,7.48,16.31-.41,5.07-5.06,10.09-10.16,15.26-15.11,3.11-3,6.93-3.21,10.66-1.47C155.12,143.7,156.91,146.85,157.24,151.13Z"/><path class="cls-1" d="M157.22,231.34a11.8,11.8,0,0,1-3.38,7c-9.66,9.65-19.24,19.38-29,28.94-5.06,4.95-10.21,4.81-15.31-.15-4.77-4.65-9.51-9.33-14.1-14.15-4.33-4.56-4.21-10,0-14.11,4-3.86,9.4-3.8,13.84.15,8.41,7.49,8.4,7.49,16.31-.4,5.06-5.06,10.08-10.16,15.26-15.1,3.1-3,6.94-3.24,10.65-1.48C155.08,223.68,157,226.78,157.22,231.34Z"/><path class="cls-1" d="M101.62,316c4.9.09,7.46,2.69,10.07,5.31,6.28,6.32,5,6.21,11.33-.1,5.55-5.51,11-11.11,16.62-16.57,4.8-4.69,10.31-4.87,14.54-.68s4.13,9.76-.59,14.57Q139.41,332.91,125,347.09c-5.11,5-10.29,5-15.31.1s-10-9.83-14.78-14.88a8.82,8.82,0,0,1-1.61-10.58A9.77,9.77,0,0,1,101.62,316Z"/><path class="cls-1" d="M212.25,50.24C212.24,57,209.05,60,202,60c-6.72,0-9.76-3.2-9.74-10.25,0-6.73,3.19-9.76,10.24-9.75C209.23,40,212.26,43.18,212.25,50.24Z"/></g></g></svg>