<svg xmlns="http://www.w3.org/2000/svg" viewBox="0 0 279.06 383.86"><defs><style>.cls-1{fill:#255e61;}.cls-2{fill:#fefefe;}.cls-3{fill:#e4ff55;}</style></defs><g id="Layer_2" data-name="Layer 2"><g id="Layer_1-2" data-name="Layer 1"><path class="cls-1" d="M143.27,0a235.4,235.4,0,0,0,38.89,29.2,249.73,249.73,0,0,0,57.56,25.72,229.55,229.55,0,0,0,31.94,7.36c4.15.62,7.4,2.56,7.39,8.58q-.19,89,0,178a67.36,67.36,0,0,1-11.67,38.28c-4.56,6.92-10.82,12.16-17,17.43-7.27,6.22-14.79,12.14-22.31,18.06-11.36,8.93-22.62,18-34.26,26.55-14.15,10.4-28.24,20.91-43.26,30.08-2.45,1.49-5.32,2.35-7.3,4.6h-7.5c-10.29-6.66-20.71-13.12-30.68-20.28q-23.75-17.07-46.8-35.07C44.94,318.05,31.36,307.83,19.22,296A61.93,61.93,0,0,1,.7,259.76a52.81,52.81,0,0,1-.61-7.71Q.06,161.41,0,70.74C0,64.31,3.31,63,7.56,62.28A245,245,0,0,0,59,48,244.51,244.51,0,0,0,111.5,19.56a189.53,189.53,0,0,0,21-16.76c1.06-1,2.82-1.15,3.27-2.8Z"/><path class="cls-2" d="M15.82,167.37q0-43.29,0-86.58c0-2.64.25-3.83,3.61-4.51a264.32,264.32,0,0,0,73.83-26.6c15.68-8.53,30.66-18.14,44.14-29.94,1.46-1.29,2.7-1.41,4.22-.1C158.79,34.54,178,46.4,198.51,56.11a254.57,254.57,0,0,0,62.2,20.3c1.9.36,2.63,1,2.53,2.83-.06.88,0,1.75,0,2.63q0,84.69,0,169.4c0,11.09-4.21,20.68-11,29.24-7,8.81-16.18,15.19-24.71,22.23-11.85,9.79-24.11,19.09-36.4,28.33-16.29,12.25-32.51,24.61-50,35.17-1.18.72-1.61,1.07-3,.18C121.54,356.25,106,344.69,90.55,333q-19.87-15.09-39.49-30.54a230.39,230.39,0,0,1-19.68-16.78c-9.83-9.78-15.67-21.52-15.6-35.84C15.91,222.33,15.82,194.85,15.82,167.37Z"/><path class="cls-1" d="M196.64,273.65a5.52,5.52,0,0,1-4.48-1.19c-2.27-2.39-4.17-1.13-6.08.05A83.73,83.73,0,0,1,162.86,282c-1.63.42-3.34.63-3.23,3.42.15,3.62-3.64,6.9-7.64,7-8.37.14-16.74.17-25.11,0a7.57,7.57,0,0,1-7.5-7.5c0-2-1-2.2-2.33-2.55a92.58,92.58,0,0,1-25.53-10.53,3,3,0,0,0-3.88.11c-4.07,2.87-7.78,2.46-11.22-1-5.31-5.29-10.47-10.73-15.94-15.85-3.78-3.53-4.63-7.63-1.5-12.05.89-1.25,1-2,.32-3.19-4.67-8.27-8.77-16.77-10.58-26.21a2.58,2.58,0,0,0-2.35-2.12c-5.86-.06-7.78-4.31-7.88-8.76-.18-8.43-.89-16.9.49-25.34.69-4.23,3.43-5.8,7-6.33,1.69-.26,2.51-1,2.8-2.27a86.93,86.93,0,0,1,10.84-26.19c.75-1.22.34-1.93-.39-3-3.17-4.42-2.89-7.95.91-11.81q7.74-7.89,15.62-15.65c4.1-4.06,7.75-4.39,12.06-1.43a3.12,3.12,0,0,0,4,.15,77.68,77.68,0,0,1,25.52-10.4c1.57-.35,1.83-1.15,2.08-2.54.81-4.56,2.72-7.52,8.27-7.32,8,.3,16,.29,24,0,5.59-.2,7.36,3,8.11,7.08.32,1.76.75,2.38,2.6,2.83a78.46,78.46,0,0,1,24.81,10.23,3.27,3.27,0,0,0,4.27-.12c4.14-3,8.14-2.29,11.8,1.34q7.85,7.8,15.63,15.64c4,4,4.3,7.39,1,12.09-.91,1.28-.73,2,0,3.26a91.51,91.51,0,0,1,10.54,25.59c.25,1,.53,2.14,2.23,2.43,5.74,1,7.76,2.56,8,8.66.31,8.53,1.05,17.14-.55,25.65-.66,3.52-2.7,5.78-6.36,6.05-1.75.13-3,.84-3.31,2.41-1.93,9.26-5.77,17.73-10.51,25.84-.72,1.23-.64,2.15.35,3.53,3.07,4.28,2.1,8.43-1.44,11.76-5.55,5.22-10.84,10.7-16.19,16.14A7.33,7.33,0,0,1,196.64,273.65Z"/><path class="cls-1" d="M192.25,88.42a6.82,6.82,0,0,1-4.24-.77c-15.94-8-31.95-15.83-46.3-26.58-1.38-1-2.6-1-4.19.13-14.61,10.23-30.29,18.58-46.3,26.35-4.87,2.36-10.14.82-12-3.51-1.77-4.17.6-9.33,5.14-11.16,11.1-4.47,21.34-10.57,31.57-16.69,6.17-3.69,12-7.81,17.94-11.92,4.57-3.18,6.7-3.22,11.29,0a317.62,317.62,0,0,0,44.52,26.55c2.72,1.33,5.76,1.93,8.1,4.18a7.82,7.82,0,0,1,2,8.81A6.58,6.58,0,0,1,192.25,88.42Z"/><path class="cls-1" d="M96.78,299.14c5.59-.41,8.32,3.87,11.9,6.38,9.57,6.73,18.94,13.77,28.33,20.76,1.89,1.41,3.31,1.26,5.15-.11,11.35-8.48,22.81-16.81,34.17-25.28,3.6-2.69,8.9-2.52,11.7.65a7.74,7.74,0,0,1-1.09,11.18c-5.41,4.58-11.06,8.9-16.79,13.06-8.28,6-16.7,11.82-25.11,17.66-4.31,3-6.68,2.94-11,0-13.84-9.28-27.08-19.4-40.44-29.33-2.23-1.66-4.36-3.58-4.32-6.95C89.31,301.9,91.87,299.14,96.78,299.14Z"/><path class="cls-2" d="M83.42,127.51a13.18,13.18,0,0,1,1.28.69c3.82,2.56,7.4,1.59,10.82-.81a75,75,0,0,1,31.12-12.77c3.55-.59,6.31-2.7,6.86-6.62.4-2.84,2.61-1.59,3.72-1.42,2.77.42,6.67-2.09,8.11,1.43s3.46,6,7,6.6c11.67,1.8,22.12,6.46,31.8,13,3.25,2.19,6.34,3.08,9.76.66,1.53-1.09,2.66-.7,3.74.68a12.15,12.15,0,0,0,2.12,2.12c2.72,2.13,4.48,4.31,2,7.89-1.87,2.69-.31,5.17,1.27,7.43a79.08,79.08,0,0,1,11.67,25.07c.76,2.81,1.26,5.69,2.05,8.49s2.75,4.91,5.92,5.21c1.29.12,2.26.48,2.29,1.86.07,3,0,6,0,9,0,1-.66,1-1.46,1.19-4.78,1-6.75,2.83-7.47,7.71-1.67,11.2-6.26,21.2-12.51,30.47-2.33,3.46-3.31,6.72-1,10.42.9,1.46.61,2.42-.66,3.42a33,33,0,0,0-2.66,2.63c-1.86,1.85-3.12,4.11-6.66,1.77-2.38-1.56-5.74-.57-8.45,1.31a75.53,75.53,0,0,1-30.76,12.86c-4,.67-7.67,2.37-7.77,7.39,0,1.2-.52,1.5-1.57,1.47q-2.62,0-5.25,0c-2.73.05-5.28.71-5.75-3.71-.37-3.54-4.17-4.69-7.34-5.18-11.19-1.75-21.16-6.34-30.43-12.62-3.39-2.3-6.73-3-10.31-.69-1.22.81-2,.41-2.92-.48-1.66-1.69-3.27-3.44-5-5-1.21-1.06-1.08-2-.36-3.16,2.23-3.73,1.3-7-1.06-10.43A76,76,0,0,1,62.94,205c-.77-4.47-2.44-7.33-7.38-7.8a2.58,2.58,0,0,1-1.29-.43c-.45-.38-.28-10.22.13-10.72.23-.29.55-.7.84-.72,7.41-.35,7.37-6.34,8.53-11.33a74.28,74.28,0,0,1,11-25.68c2.55-3.7,5.06-7.45,1.35-11.9a1.83,1.83,0,0,1-.35-1C75.77,134.39,82.44,127.53,83.42,127.51Z"/><path class="cls-3" d="M139.51,242.91c-27.82,1-52.79-22.92-51.77-53.56a51.81,51.81,0,0,1,103.56,3.77C190.49,220.18,167.94,243.69,139.51,242.91Z"/></g></g></svg>