<svg xmlns="http://www.w3.org/2000/svg" viewBox="0 0 384 384"><defs><style>.cls-1{fill:#fefefe;}.cls-2{fill:#255e61;}.cls-3{fill:#e4ff55;}</style></defs><g id="Layer_2" data-name="Layer 2"><g id="Layer_1-2" data-name="Layer 1"><path class="cls-1" d="M296.21,383.94q-146.31,0-292.64.06C1,384,0,383.74,0,380.68Q.15,192,0,3.32C0,.26,1,0,3.57,0Q149.9.11,296.21.06C296,2,294.35,1.9,293.13,2.17a58.59,58.59,0,0,0-26.89,14.16c-2.25,2-3.95,2.21-6.34,0-4.63-4.35-10.47-2.19-11.71,4.08a32.19,32.19,0,0,0-.32,6.36V175.55c0,1.25,0,2.5,0,3.75-.06,5.64-.65,6.3-6.21,6.32q-24.37.06-48.73,0c-1.82,0-4.34.58-5.12-1.29-.89-2.11,1.43-3.51,2.81-4.84A70,70,0,0,0,201,166.71a75.27,75.27,0,0,0,11.56-39.81c.3-18.37.06-36.74.09-55.11,0-6.28.59-6.83,6.84-6.88,2.62,0,5.26.14,7.87-.1,3.86-.36,6.47-3,6.53-6.46.06-3.29-2.3-6-5.94-6.69a23.17,23.17,0,0,0-4.48-.23H31.9a19.85,19.85,0,0,0-5.95.5,6.9,6.9,0,0,0-5.08,7.38c.33,3.27,2.61,5.28,6.45,5.53,2.87.18,5.75,0,8.62.07,5.84.07,6.49.67,6.5,6.45q0,28.68,0,57.36a52.65,52.65,0,0,0,.53,8.59c3.63,22.28,14.35,39.95,33.71,52,3.29,2.05,3.28,3.26,0,5.31-20,12.49-30.7,30.86-34,53.9a42.73,42.73,0,0,0-.24,6q0,28.88,0,57.74c0,6.25-.55,6.76-6.88,6.81-2.75,0-5.5-.11-8.24.07-3.85.26-6.12,2.26-6.45,5.53A6.92,6.92,0,0,0,26,332.07a16.08,16.08,0,0,0,4.83.5H224.2a18.76,18.76,0,0,0,3.74-.24c3.63-.73,6-3.4,5.93-6.69-.06-3.46-2.68-6.11-6.54-6.44-3-.26-6,0-9-.12-4.84-.12-5.68-.88-5.69-5.75-.08-18.25.16-36.49-.08-54.73-.29-20.81-6.79-39.23-22-54.08-1.37-1.34-3.74-2.77-2.79-4.84s3.55-1.28,5.49-1.29q24-.06,48,0c6,0,6.58.57,6.58,6.7q0,76.1,0,152.2a27.65,27.65,0,0,0,.48,7.09c1.45,5.56,6.93,7.32,11.34,3.65,3.46-2.87,3.52-2.94,6.81-.06a59.93,59.93,0,0,0,26.64,13.87C294.35,382.1,296,382.05,296.21,383.94Z"/><path class="cls-2" d="M296.21,383.94c-5-1.69-10.24-2.58-15-4.9A65.82,65.82,0,0,1,262.81,366c-1.67,2.33-3.08,4.87-6.25,5.24-5.5.64-9.27-2.53-9.81-8.35-.08-.86,0-1.74,0-2.62q0-78.33.07-156.67c0-3.1-.46-4.21-4-4.16-17.24.22-34.48.1-51.72.1h-3.92c5.46,5.63,10.6,10.54,14.43,16.66a72.45,72.45,0,0,1,11.3,32.47c1.89,21.78.46,43.62.7,65.43,0,3.43,1,4.24,4.15,4s6.24-.07,9.37,0a8.08,8.08,0,0,1,8.3,7.58c.26,3.7-3.82,7.9-7.92,8.15-.63,0-1.25,0-1.88,0H29.28c-6.41,0-10-3.26-9.7-8.84a6.85,6.85,0,0,1,7.11-6.9c3.87,0,7.75-.17,11.61,0,2.5.14,3.08-.7,3.07-3.11-.09-20.24-.19-40.49,0-60.72.14-15.26,5.27-29,14-41.38A67.39,67.39,0,0,1,79.29,192,60,60,0,0,1,62.67,179.9a75.41,75.41,0,0,1-20.7-42c-1-6.48-.54-12.9-.6-19.33q-.23-24.55,0-49.1c0-2.78-.61-3.73-3.47-3.5-3.35.28-6.74.07-10.11.07-5.41,0-8.12-2.41-8.23-7.29a8,8,0,0,1,7.83-8.45c.37,0,.75,0,1.12,0H226.42c6.35,0,10,4.56,8.27,10.57A6.73,6.73,0,0,1,227.9,66c-3.49,0-7,.18-10.49,0-2.81-.18-3.77.52-3.74,3.59.16,19.24.45,38.49,0,57.72-.5,20-7.05,37.88-21.58,52.27-1.47,1.45-3,2.83-5.27,4.94h4.71c17,0,34-.14,51,.11,3.78,0,4.34-1.1,4.34-4.54q-.18-78.34-.09-156.68c0-2.58.13-5.17,1.67-7.34,3-4.21,10.28-5.48,14.33,1.94A72.82,72.82,0,0,1,279.84,5.57C285,2.91,290.75,1.86,296.21.06h19.5c24.79,2.14,47,25.78,49.67,52.36,3.08,30.75-18.41,59.64-48.88,64.74-19.28,3.22-36.4-1.49-51-14.71a6,6,0,0,0-2-1.38v48.36c14.71-13.47,31.42-19,50.32-16.57s33.49,12.46,43.48,28.73c14.63,23.81,9.72,55-11.55,74.89-18.62,17.44-55.15,23.39-82.23-1.74-.05,16.55,0,32.54,0,48.67A57.11,57.11,0,0,1,288,268.54c34.36-10.49,70.14,10.56,76.54,46.23,5.17,28.8-10.27,56-37.58,66.82-3.87,1.53-8,1.7-12,2.35Z"/><path class="cls-1" d="M315,383.94c6.9-1.75,13.68-3.71,19.91-7.38,14.7-8.66,24.18-21.08,28.08-37.75,3.14-13.38,2-26.46-4.13-38.65-9.13-18.21-23.71-29.49-44.28-32.47-18.5-2.69-34.65,2.07-48.42,14.76-1.06,1-2.17,1.88-3.64,3.14v-53.4c13.57,13.2,29.24,19.67,47.73,18.28s33.08-9.82,43.72-24.88A58.58,58.58,0,0,0,343.75,147c-22.81-19.09-57.14-19-81,4.44V98.36A59.57,59.57,0,0,0,281.62,112c15.12,6.74,30.38,6.93,45.66,1.16,14.4-5.44,25.24-15.34,31.53-29.3,9.44-20.9,7.83-41.32-5.7-60.1A55.46,55.46,0,0,0,316.05.64c-.15,0-.23-.38-.34-.58,21.85,0,43.7,0,65.55,0,2.1,0,2.74.25,2.74,2.62q-.12,189.38,0,378.74c0,2.37-.65,2.63-2.74,2.62C359.16,383.91,337.06,383.94,315,383.94Z"/><path class="cls-1" d="M127.78,66c22.11,0,44.22.09,66.33-.1,3.47,0,4,1,4,4.15-.15,19.24.44,38.49-.23,57.71-.62,17.87-7.4,33.26-21.85,44.68-9,7.12-19.09,11.17-30.65,11.28a42,42,0,0,0-5.79.9c-3.12.46-5.19,4.82-4.45,9.38a6.07,6.07,0,0,0,5.9,5.46c11.17.81,21.94,2.84,31.49,9.3,13,8.77,20.43,21.12,24,36.07a64.91,64.91,0,0,1,1.58,15.38q-.17,27.17,0,54.34c0,2.88-.79,3.44-3.52,3.44q-67.08-.13-134.16,0c-2.95,0-3.41-.9-3.4-3.56.11-20.37-.27-40.74.18-61.09.28-12.54,5-23.79,12.95-33.57,7.54-9.3,17.23-15.22,28.76-18.45,4.94-1.38,10-.68,14.93-1.81,3.7-.86,6.19-3.52,6.22-7.51s-2.42-7.14-6.13-7.52c-8.63-.87-17.33-1.58-25.21-5.58-16-8.13-25.86-21.14-30.15-38.5A56.46,56.46,0,0,1,57,126.56c.1-19,.12-38,0-57,0-3,.88-3.63,3.72-3.62C83.06,66.09,105.42,66,127.78,66Z"/><path class="cls-3" d="M306.12,282.72c22.72-.2,43.55,19.45,42.54,44.36-.87,21.85-17.51,41.27-42.53,41.46-24.7.19-43.2-18.2-43.29-43.2A42.54,42.54,0,0,1,306.12,282.72Z"/><path class="cls-3" d="M306,149.26c23-.64,43.52,19.91,42.7,44.31-.7,20.61-18.66,42.73-45.41,41.2-22.74-1.3-40.83-20.3-40.57-42.94C263,167.15,283.25,148.71,306,149.26Z"/><path class="cls-3" d="M348.69,58.68c.11,22.68-19.35,43.49-44.33,42.62a43,43,0,0,1-41.58-42.62c-.33-21.76,17.38-44.68,46.49-42.93C329.51,17,348.91,35.11,348.69,58.68Z"/><path class="cls-3" d="M127.54,293.22c-13.86,0-27.72-.09-41.57.07-3.18,0-4.33-.64-4.25-4.09.23-10.85-.15-21.72.15-32.58.31-11.49,5.76-20.28,15.33-26.56a32.05,32.05,0,0,1,19.1-5.12c8,.22,16,.36,24,0,14.76-.7,29.94,12.47,32.26,27.31,1.53,9.8.38,19.66.73,29.48.1,2.74-.15,5.5.06,8.23s-.94,3.34-3.46,3.33C155.75,293.17,141.64,293.22,127.54,293.22Z"/><path class="cls-3" d="M127.65,102.78c14,0,28,.09,41.94-.07,3,0,3.89.92,3.72,3.82-.57,9.41,1,18.9-1.47,28.25-3.36,12.87-17.35,24.71-30.94,24.28-9.11-.28-18.23-.05-27.34-.05C97,159,81.81,143.78,81.8,127.27c0-7,.13-14-.06-21-.08-2.82.81-3.61,3.6-3.58C99.44,102.85,113.55,102.78,127.65,102.78Z"/><path class="cls-2" d="M302.62,327.45c3.5-5.68,6.85-11.36,10.45-16.87,2.06-3.15,7.65-3.73,11.21-1.49,2.78,1.74,4,6.76,1.87,10.35-4,6.93-8.35,13.68-12.56,20.51-.45.72-.95,1.42-1.36,2.16-3.18,5.64-8.41,7-13.59,3.11a137,137,0,0,1-11.29-9.58c-4.17-3.88-4.37-7.64-1-11.19s8-3.83,12-.15A46.06,46.06,0,0,0,302.62,327.45Z"/><path class="cls-2" d="M327,181.89c.5,4.93-3.36,8-5.37,11.72-2.8,5.25-6.45,10-9.46,15.16-3.4,5.8-8.44,6.82-14.18,2.45-3.71-2.82-7.08-6.1-10.7-9.05-4.26-3.48-3.73-7.8-1.19-11.47,2.19-3.18,7.92-3.28,11.71-.51,4.77,3.47,4.83,3.5,8.08-1.48,2.39-3.65,4.56-7.46,6.92-11.14,1.71-2.66,6.08-4.26,8.74-3.36C325.44,175.55,327,177.68,327,181.89Z"/><path class="cls-2" d="M292.44,54.82c3.58-1.12,5.35,2.38,7.94,4,1.69,1,2.27,1.64,3.52-.59,2.68-4.76,5.82-9.27,8.81-13.85a8.3,8.3,0,0,1,10.87-2.92c3,1.56,4.8,7,2.76,10.46-5.13,8.74-10.52,17.34-16.07,25.83-1.89,2.89-7.33,3.63-10.06,1.53C295.55,75.69,291,71.9,286.63,68c-2.49-2.2-3-5-1.8-8.31C286.14,56.22,288.38,54.49,292.44,54.82Z"/></g></g></svg>