<svg xmlns="http://www.w3.org/2000/svg" viewBox="0 0 511.82 422.52"><defs><style>.cls-1{fill:#255e61;}.cls-2{fill:#fff;}.cls-3{fill:#e4ff55;}</style></defs><g id="Layer_2" data-name="Layer 2"><g id="Layer_1-2" data-name="Layer 1"><path class="cls-1" d="M0,383.2v-44c1.06-5,4.23-7.66,9.25-8.34,3-.4,4.19-2.41,4.34-5.23.13-2.5.09-5,.09-7.5q0-136.89,0-273.78c0-8.51.33-17,4.58-24.76C25.11,7.18,35.69.76,49.81.09c1.67-.08,3.33,0,5,0Q255.92,0,457,0c7.62,0,15,.73,21.73,4.5,13.41,7.5,18.79,19.6,19.32,34.38.13,3.49.08,7,.08,10.49V318.16c0,2.33,0,4.66.06,7,.07,3.26,1.4,5.39,4.86,5.85,4.86.65,7.74,3.45,8.76,8.22v43c-.57,10.43-4.78,19-12.39,26.28-9.11,8.72-19.87,13.07-32.24,13.93-2,.14-4,.07-6,.07q-205.28,0-410.56,0c-9.66,0-18.84-1.44-27.46-6.07C14.37,411.72,7.94,404.73,3,396.22.74,392.23,1.47,387.44,0,383.2Z"/><path class="cls-2" d="M255.77,23.35q101.19,0,202.38,0c11.35,0,15.88,5.3,16.68,16,.06.83,0,1.66,0,2.5q0,142.91.11,285.82c0,4.48-1,5.71-5.63,5.68-42.47-.19-84.95-.11-127.42-.11-8.45,0-12,3.5-12,11.77,0,3.67-.18,7.34.05,11,.18,2.76-.92,3.28-3.43,3.28q-70.45-.11-140.92,0c-3.32,0-3.87-1.18-3.7-4,.21-3.65.05-7.32.05-11,0-7.22-3.86-11-11.22-11q-45,0-89.95,0c-13.33,0-26.66-.1-40,.07-3.08,0-3.88-.78-3.87-3.87q.12-144.65.13-289.31c0-11.45,5.37-16.82,16.84-16.8Q154.82,23.43,255.77,23.35Z"/><path class="cls-3" d="M256,399.19c-69,0-137.94-.1-206.9.09-14.59,0-27.52-10.46-28.35-25.21-.28-5.08-.3-10.2-.81-15.27-.38-3.7.76-4.72,4.57-4.69,24.32.2,48.64.1,73,.1,19.66,0,39.32.12,59-.1,3.84,0,4.68,1,4.62,4.7-.07,4.89-1.07,9.91.87,14.72,1.72,4.26,4.39,6.74,9.42,6.73,56.14-.09,112.28-.19,168.42.12a11.21,11.21,0,0,0,11.08-10.91c.14-4,.19-8,0-12-.15-2.69.82-3.32,3.39-3.32q67.21.1,134.43.07c1.36,0,3.19-.59,3.19,1.9,0,9.34.8,18.85-3.29,27.62-4.82,10.33-13.48,15.36-24.65,15.38Q359.94,399.31,256,399.19Z"/><path class="cls-1" d="M337,200.84c0,15.82-.07,31.64,0,47.46.1,19.81-9.27,34-26.17,43.33-16.75,9.25-33.83,17.92-50.71,26.94a7.36,7.36,0,0,1-7.86.06c-16.42-8.82-33-17.34-49.5-26-18.4-9.69-28.18-24.49-28-45.78.28-32.63.16-65.27,0-97.91,0-4.42,1.26-6.29,5.54-7.66,16.08-5.17,25.86-16.51,29.54-32.84,1.08-4.79,2.9-6.37,7.88-6.32,25.81.26,51.62.21,77.43,0,4.17,0,5.78,1.31,6.63,5.33,3.65,17.21,13.83,28.87,30.73,34.13,3.58,1.12,4.61,2.79,4.58,6.32C336.91,165.54,337,183.19,337,200.84Z"/><path class="cls-1" d="M255.94,62.33H120.05c-7.13,0-11-3.32-11.09-9.53-.11-6.92,4-11.33,11-11.43,10.16-.14,20.32,0,30.48,0H390.28c8.29,0,12.68,4,12.58,11.41-.08,5.67-3.85,9.54-9.53,9.56-13.82,0-27.64,0-41.47,0Z"/><path class="cls-3" d="M289.81,190.86c.17,4.35-1.44,6.86-3.3,9.24-7.87,10.09-15.72,20.19-23.65,30.24-4.56,5.79-10.14,6.56-16.09,2.25-6.45-4.69-12.88-9.42-19.23-14.24-6-4.57-7.28-10.33-3.56-15.51,3.48-4.86,10-5.32,15.89-1.12.27.2.51.44.79.62,3.9,2.44,7.52,8.07,11.31,7.13,3.6-.89,6-6.59,8.92-10.2,3.74-4.67,7.31-9.48,11.18-14,3.06-3.61,7.27-4,11.42-2.53A9.32,9.32,0,0,1,289.81,190.86Z"/></g></g></svg>