<svg xmlns="http://www.w3.org/2000/svg" viewBox="0 0 383.1 357.9"><g id="Layer_2" data-name="Layer 2"><g id="Layer_1-2" data-name="Layer 1"><path d="M264.2,176.6l27.6.2c7.6,0,10,2.4,10,10.1v25.8c-.1,6.9-2.6,9.4-9.6,9.4-4.9.1-4.9.1-4.9,4.9s.2,6.7-.1,10,.8,3.3,3.3,3.3h81.9c5.2,0,8.3,2.6,8.5,6.9s-2.8,8-8.2,8c-2.6,0-3.3.6-3.2,3.3.1,27.1.1,54.3,0,81.4,0,2.5.6,3.4,3,3.1,4.7-.7,8.3,1,10.6,5.1v4.5c-2,4-5.2,5.4-9.6,5.4H9.5c-3.1,0-6-.2-8-3a7.1,7.1,0,0,1-.8-7.4,7.4,7.4,0,0,1,6.8-4.5c6.1-.5,6.1-.5,6.1-6.7q0-38.7.1-77.4c0-2.8-.5-3.8-3.6-3.7-4.9.1-8-3.2-7.9-7.6s3.1-7.3,8.1-7.3H92.2c2.8,0,4-.6,3.7-3.6a89.8,89.8,0,0,1,0-11.6c.2-2.6-.8-3.3-3.1-3H89.4c-4.6-.4-7.5-3.1-7.5-7.7-.2-10-.2-19.9,0-29.9.1-5,3.3-7.6,8.7-7.7l28.4-.2c1.3-1.1,3-1,4.6-1.1h12.3c2.5,0,3.7-1,3.6-3.6s0-6.9.1-10.4a18.4,18.4,0,0,1,1.1-7,8.2,8.2,0,0,1,9.4-5.1,7.9,7.9,0,0,1,6.6,7.6c.3,4.6,0,9.2.1,13.8s.4,4.6,4.4,4.6h18c2.7,0,3.8-1.2,3.8-3.8a128.9,128.9,0,0,1,.1-13.9c.3-4.8,2.9-7.8,7-8.4s9.4,2.5,9.9,8.2.1,8.7.2,13,.3,4.8,4.6,4.8h17.6c2.9,0,4-1.2,4-4q-.2-6.7,0-13.5c.1-5.1,2.7-8.1,7-8.6s8.3,1.9,9.6,6.9.4,9.7.6,14.5.3,4.6,4.7,4.6h11.2C261.1,175.6,262.8,175.5,264.2,176.6Z" style="fill:#255e61"/><path d="M109.3,135.7c-4.4-1.6-6.3-4-6-7.8s2.4-6.3,6.2-6.8,2-1.7,2.1-3.2c1.5-25.8,12.6-46.5,33.5-61.8a75.9,75.9,0,0,1,36-14.2c2.4-.2,3.1-1.1,3-3.4-.1-9.9,0-19.7,0-29.6,0-6.2,2.6-8.8,8.9-8.9h25.8c5.6.1,8.5,2.9,8.5,8.5q.1,11.4,0,22.8c0,5.6-3,8.4-8.6,8.5H202.2c-1,0-2.9-1-3,.9s1.8,1,2.8,1.2a74.6,74.6,0,0,1,32.3,11.7c23.1,15.2,35.5,36.7,37.3,64.3,0,1.5-.3,2.9,2,3.2s5.9,3,6.3,6.8-1.7,6.2-6.1,7.8c-8.8.2-17.6,1.2-26.4,1.1q-55.6-.2-111.3,0C127.2,136.9,118.3,135.9,109.3,135.7Z" style="fill:#255e61"/><path d="M109.3,135.7H273.8c-2.1,1.3-4.4.6-6.5.6s-3.2.7-3.2,3.2c.1,12.4.1,24.8.1,37.1l-19.9.2c-1.9.1-2.2-.8-2.2-2.4.1-5.8.1-11.5-.1-17.2a6.9,6.9,0,0,0-5.9-6.8c-3.6-.7-6.3.7-8.1,3.9a9.9,9.9,0,0,0-.8,4.8c0,4.8-.1,9.7,0,14.5.1,2.4-.4,3.3-3,3.3q-11.2-.3-22.5,0c-2,0-2.8-.6-2.7-2.7.1-5.3.1-10.5,0-15.7s-3.1-8.3-7.6-8.2-7.2,3.2-7.3,8.2-.1,10.4,0,15.7c.1,2.1-.6,2.7-2.7,2.7-7.5-.2-15-.2-22.4,0-2.7,0-3.2-.9-3.1-3.3q.2-7.7,0-15.3c-.1-5-3-8-7.4-8.1s-7.3,3.1-7.5,8.1-.2,10.2,0,15.3c.2,2.7-.8,3.4-3.3,3.3-6.3-.3-12.5-.2-18.7-.3,0-12.2-.1-24.5,0-36.8.1-2.7-.7-3.7-3.5-3.5S111.3,136.9,109.3,135.7Z" style="fill:#e4ff55"/><path d="M146,342.7c-10.9.1-21.7,0-32.6.2-2.7.1-2.6-1.3-2.6-3.2V279.2c0-17.7.1-35.4,0-53.1-.1-3,.4-4.1,3.7-4.1q77.1.3,154.1.1c2.8,0,3.8.5,3.8,3.6q-.1,56.9,0,113.7c0,2.6-.5,3.6-3.4,3.5-10.6-.2-21.2-.1-31.8-.2-1.3-1.4-1.2-3.2-1.2-4.9V269.4c0-5.6.7-6.2,6.3-6.2,1.6-.1,3.3.1,4.8-.5h.4c4.6-1.6,6.6-3.8,6.2-7.2s-3.5-5.7-8.3-5.8H138.1c-5,.1-8.3,2.3-8.7,5.8s1.6,5.6,6.6,7.3c2.2.8,4.5.4,6.7.5s4.3,1.4,4.4,4.3v69.1C147.1,338.7,147.5,340.9,146,342.7Z" style="fill:#fefefe"/><path d="M247.6,263.6c-2.1,1.2-4.4.6-6.5.5s-4,.9-4,4c.1,24.9.1,49.7.1,74.6l-73.7.2-17.5-.2c0-24.9-.1-49.7,0-74.6,0-3.1-.8-4.2-3.9-4s-4.5.7-6.6-.5c1.3-1.5,3.2-1.3,4.9-1.3q51.2-.2,102.4,0C244.5,262.3,246.3,262.1,247.6,263.6Z" style="fill:#e4ff55"/><path d="M95.9,299c0,13.6-.1,27.2,0,40.8,0,2.3-.5,3.2-3,3.1-6.7-.2-13.5-.2-20.2,0-2.5.1-3.1-.8-3-3.1V284.4c-.2-4.3-3.2-7.4-7.3-7.5a7.7,7.7,0,0,0-7.6,7.2c-.1,1.1-.1,2.3-.1,3.4,0,17.3,0,34.6.1,52,0,2.7-.6,3.5-3.5,3.4-6.5-.2-13.2-.1-19.8,0-2.1,0-3-.4-3-2.8q.2-41.1,0-82.3c0-2.1.7-2.7,2.8-2.7h62c2.3,0,2.6.8,2.6,2.8C95.8,271.6,95.9,285.3,95.9,299Z" style="fill:#e4ff55"/><path d="M354.6,299c0,13.6-.1,27.2,0,40.8,0,2.4-.6,3.2-3.1,3.1-6.7-.2-13.4-.2-20.2,0-2.5.1-3-.8-3-3.1.1-17.5.1-34.9.1-52.4a18.2,18.2,0,0,0-.1-3.3,7.6,7.6,0,0,0-7.7-7.2,7.3,7.3,0,0,0-7.1,7.6c-.1,11.5-.1,22.9-.1,34.4,0,7.1-.1,14.2.1,21.3,0,2.2-.7,2.7-2.8,2.7H289.8c-2.3.1-2.6-.9-2.6-2.8q.2-41.1,0-82.2c0-2.6,1-2.8,3.1-2.8h61.3c2.5,0,3,.8,3,3.2C354.5,271.9,354.6,285.4,354.6,299Z" style="fill:#e4ff55"/><path d="M192,207.2c-30.4,0-60.9-.1-91.3.1-3.4,0-4.4-1-4-4.2s-1.6-8.6.9-10.7,6.9-.6,10.5-.6H282.7c3.5,0,4.5,1,4.2,4.3a31.4,31.4,0,0,0,0,7.5c.2,2.9-.7,3.8-3.7,3.7H192Z" style="fill:#fefefe"/><path d="M191.2,120.8c-20.5,0-40.9-.1-61.4.1-2.9,0-3.4-.8-3.3-3.6,1.6-31.5,27.6-58.3,59.3-61s62.9,19.5,69.3,51.1c.7,3.3.9,6.7,1.5,10s-.5,3.5-3.4,3.5Z" style="fill:#e4ff55"/><path d="M205.5,24.8c-6.5,0-6.4,0-6.5-6.6-.1-2.5.5-3.5,3.2-3.3a40.7,40.7,0,0,0,7.8,0c2-.1,2.4.7,2.5,2.6C212.6,24.8,212.7,24.8,205.5,24.8Z" style="fill:#e4ff55"/><path d="M247.6,263.6H135.5c-5-.9-7.8-3.9-7.5-8.1s3.7-6.9,8.6-6.9H246.5c5,0,8.3,2.7,8.6,6.9S252.7,262.7,247.6,263.6Z" style="fill:#255e61"/></g></g></svg>