<?xml version="1.0" encoding="utf-8"?>
<!-- Generator: Adobe Illustrator 24.1.2, SVG Export Plug-In . SVG Version: 6.00 Build 0)  -->
<svg version="1.1" id="Layer_1" xmlns="http://www.w3.org/2000/svg" xmlns:xlink="http://www.w3.org/1999/xlink" x="0px" y="0px"
	 viewBox="0 0 383.1 357.9" style="enable-background:new 0 0 383.1 357.9;" xml:space="preserve">
<style type="text/css">
	.st0{fill:#255E61;}
	.st1{fill:#E4FF55;}
	.st2{fill:#FEFEFE;}
</style>
<path class="st0" d="M265.1,94.3l27.7,0.3c7.6,0,10,3.1,10,13v33.3c-0.1,8.9-2.6,12.1-9.6,12.1c-4.9,0.1-4.9,0.1-4.9,6.3
	s0.2,8.6-0.1,12.9c-0.3,4.3,0.8,4.3,3.3,4.3h82.2c5.2,0,8.3,3.4,8.5,8.9c0.2,5.6-2.8,10.3-8.2,10.3c-2.6,0-3.3,0.8-3.2,4.3
	c0.1,35,0.1,70.1,0,105.1c0,3.2,0.6,4.4,3,4c4.7-0.9,8.3,1.3,10.6,6.6v5.8c-2,5.2-5.2,7-9.6,7H9.5c-3.1,0-6-0.3-8-3.9
	c-1.6-2.7-2-6.4-0.8-9.6c1.2-3.5,3.8-5.8,6.8-5.8c6.1-0.6,6.1-0.6,6.1-8.6c0-33.3,0-66.6,0.1-99.9c0-3.6-0.5-4.9-3.6-4.8
	c-4.9,0.1-8-4.1-7.9-9.8c0.1-5.7,3.1-9.4,8.1-9.4h82.2c2.8,0,4-0.8,3.7-4.6c-0.3-5-0.3-10,0-15c0.2-3.4-0.8-4.3-3.1-3.9h-3.4
	c-4.6-0.5-7.5-4-7.5-9.9c-0.2-12.9-0.2-25.7,0-38.6c0.1-6.5,3.3-9.8,8.7-9.9l28.5-0.3c1.3-1.4,3-1.3,4.6-1.4h12.3
	c2.5,0,3.7-1.3,3.6-4.6s0-8.9,0.1-13.4c-0.1-3.1,0.3-6.1,1.1-9c1.4-4.9,5.5-7.7,9.4-6.6c3.8,0.8,6.5,4.9,6.6,9.8
	c0.3,5.9,0,11.9,0.1,17.8c0.1,5.9,0.4,5.9,4.4,5.9h18.1c2.7,0,3.8-1.5,3.8-4.9c-0.2-6-0.2-12,0.1-17.9c0.3-6.2,2.9-10.1,7-10.8
	c4.1-0.8,9.4,3.2,9.9,10.6c0.5,7.4,0.1,11.2,0.2,16.8c0.1,5.6,0.3,6.2,4.6,6.2h17.7c2.9,0,4-1.5,4-5.2c-0.1-5.8-0.1-11.6,0-17.4
	c0.1-6.6,2.7-10.5,7-11.1c4.3-0.6,8.3,2.5,9.6,8.9c1.3,6.5,0.4,12.5,0.6,18.7c0.2,6.2,0.3,5.9,4.7,5.9h11.2
	C262,93,263.7,92.9,265.1,94.3z"/>
<path class="st1" d="M109.7,27.5h165c-2.1,2.8-4.4,1.3-6.5,1.3c-2.1,0-3.2,1.5-3.2,6.9c0.1,26.8,0.1,53.5,0.1,80l-20,0.4
	c-1.9,0.2-2.2-1.7-2.2-5.2c0.1-12.5,0.1-24.8-0.1-37.1c0-7.4-2.5-13.6-5.9-14.7c-3.6-1.5-6.3,1.5-8.1,8.4c-0.7,3.3-0.9,6.8-0.8,10.4
	c0,10.4-0.1,20.9,0,31.3c0.1,5.2-0.4,7.1-3,7.1c-7.5-0.4-15-0.4-22.6,0c-2,0-2.8-1.3-2.7-5.8c0.1-11.4,0.1-22.7,0-33.9
	c-0.1-11.2-3.1-17.9-7.6-17.7c-4.5,0.2-7.2,6.9-7.3,17.7c-0.1,10.8-0.1,22.4,0,33.9c0.1,4.5-0.6,5.8-2.7,5.8c-7.5-0.4-15-0.4-22.5,0
	c-2.7,0-3.2-1.9-3.1-7.1c0.1-11.1,0.1-22.1,0-33c-0.1-10.8-3-17.3-7.4-17.5c-4.4-0.2-7.3,6.7-7.5,17.5s-0.2,22,0,33
	c0.2,5.8-0.8,7.3-3.3,7.1c-6.3-0.6-12.5-0.4-18.8-0.6c0-26.3-0.1-52.9,0-79.4c0.1-5.8-0.7-8-3.5-7.6S111.7,30.1,109.7,27.5z"/>
<path class="st2" d="M146.5,310.6c-10.9,0.1-21.8,0-32.7,0.2c-2.7,0.1-2.6-1.5-2.6-3.7v-70.9c0-20.7,0.1-41.5,0-62.2
	c-0.1-3.5,0.4-4.8,3.7-4.8c51.6,0.2,103.1,0.3,154.6,0.1c2.8,0,3.8,0.6,3.8,4.2c-0.1,44.4-0.1,88.8,0,133.2c0,3-0.5,4.2-3.4,4.1
	c-10.6-0.2-21.3-0.1-31.9-0.2c-1.3-1.6-1.2-3.7-1.2-5.7v-80.1c0-6.6,0.7-7.3,6.3-7.3c1.6-0.1,3.3,0.1,4.8-0.6h0.4
	c4.6-1.9,6.6-4.5,6.2-8.4c-0.4-4-3.5-6.7-8.3-6.8H138.5c-5,0.1-8.3,2.7-8.7,6.8c-0.4,4.1,1.6,6.6,6.6,8.5c2.2,0.9,4.5,0.5,6.7,0.6
	c2.2,0.1,4.3,1.6,4.4,5v80.9C147.6,305.9,148,308.5,146.5,310.6z"/>
<path class="st1" d="M248.4,217.9c-2.1,1.4-4.4,0.7-6.5,0.6s-4,1.1-4,4.7c0.1,29.2,0.1,58.2,0.1,87.4l-73.9,0.2l-17.6-0.2
	c0-29.2-0.1-58.2,0-87.4c0-3.6-0.8-4.9-3.9-4.7c-3.1,0.2-4.5,0.8-6.6-0.6c1.3-1.8,3.2-1.5,4.9-1.5c34.2-0.2,68.5-0.2,102.7,0
	C245.3,216.4,247.1,216.2,248.4,217.9z"/>
<path class="st1" d="M96.2,259.4c0,15.9-0.1,31.9,0,47.8c0,2.7-0.5,3.7-3,3.6c-6.7-0.2-13.5-0.2-20.3,0c-2.5,0.1-3.1-0.9-3-3.6
	v-64.9c-0.2-5-3.2-8.7-7.3-8.8c-4,0.1-7.4,3.7-7.6,8.4c-0.1,1.3-0.1,2.7-0.1,4c0,20.3,0,40.5,0.1,60.9c0,3.2-0.6,4.1-3.5,4
	c-6.5-0.2-13.2-0.1-19.9,0c-2.1,0-3-0.5-3-3.3c0.1-32.1,0.1-64.2,0-96.4c0-2.5,0.7-3.2,2.8-3.2h62.2c2.3,0,2.6,0.9,2.6,3.3
	C96.1,227.3,96.2,243.3,96.2,259.4z"/>
<path class="st1" d="M355.8,259.4c0,15.9-0.1,31.9,0,47.8c0,2.8-0.6,3.7-3.1,3.6c-6.7-0.2-13.4-0.2-20.3,0c-2.5,0.1-3-0.9-3-3.6
	c0.1-20.5,0.1-40.9,0.1-61.4c0.1-1.3,0-2.6-0.1-3.9c-0.2-4.8-3.6-8.5-7.7-8.4c-4,0.1-7.2,4.1-7.1,8.8c0,0,0,0.1,0,0.1
	c-0.1,13.5-0.1,26.8-0.1,40.3c0,8.3-0.1,16.6,0.1,24.9c0,2.6-0.7,3.2-2.8,3.2h-21c-2.3,0.1-2.6-1.1-2.6-3.3
	c0.1-32.1,0.1-64.2,0-96.3c0-3,1-3.3,3.1-3.3h61.5c2.5,0,3,0.9,3,3.7C355.7,227.7,355.8,243.5,355.8,259.4z"/>
<path class="st2" d="M192.6,151.9c-30.5,0-61.1-0.1-91.6,0.1c-3.4,0-4.4-1.2-4-4.9c0.4-3.7-1.6-10.1,0.9-12.5
	c2.5-2.5,6.9-0.7,10.5-0.7h175.2c3.5,0,4.5,1.2,4.2,5c-0.3,2.9-0.3,5.9,0,8.8c0.2,3.4-0.7,4.5-3.7,4.3h-91.5V151.9z"/>
<path class="st0" d="M248.4,217.9H135.9c-5-1.1-7.8-4.6-7.5-9.5s3.7-8.1,8.6-8.1h110.3c5,0,8.3,3.2,8.6,8.1
	C256.2,213.4,253.5,216.9,248.4,217.9z"/>
</svg>
