<svg xmlns="http://www.w3.org/2000/svg" viewBox="0 0 383.5 347.3"><g id="Layer_2" data-name="Layer 2"><g id="Layer_1-2" data-name="Layer 1"><path d="M383.5,20.3V327.8c-3.2,13.7-10.5,19.5-24.8,19.5H25.1c-9.2,0-16.9-2.9-22.2-10.7-2.7-4-2.8-8.5-2.8-13C0,306.7,0,289.7,0,272.8V24.8C0,8.9,8.7,0,24.7,0H359a27.9,27.9,0,0,1,16.6,4.9C381,8.7,382.9,14.1,383.5,20.3Z" style="fill:#255e61"/><path d="M191.7,330.8H25.6c-7.9,0-10.2-2.3-10.2-10.2q0-120.2-.1-240.2c0-3.6,1.1-4.1,4.3-4.1H95.2q29.3,0,38.5-27.9c.5-1.5,1.2-2.3,2.9-2.1H364.4c3.3,0,4.2.8,4.2,4.2q-.2,134.9-.1,269.7c0,8.3-2.2,10.5-10.4,10.5Z" style="fill:#fefefe"/><path d="M192.3,16.5H358.7c8,0,12.5,6.6,9.8,14.1a1.3,1.3,0,0,1-1.3.9H130.8c-8.2,0-9.9,1.5-10.8,9.7-1.1,11.1-10.4,20.1-21.5,20.1-26.9.2-53.8.1-80.7.2-2,0-2.5-.7-2.5-2.6.1-11.4,0-22.9.1-34.4,0-5.2,3.1-8,8.6-8H192.3Z" style="fill:#e4ff55"/><path d="M316,135.6l14.4-13.7V300.7a4,4,0,0,1-3.6,1.6H60.9c-2.3,0-4.7.4-6.9-.9s-.7-2,0-3a21.7,21.7,0,0,1,3.2-3.6l32.3-32.3H58c-1.7,0-3.6.3-4.7-1.5,1.2-2.5,3.6-1.9,5.6-2q14.7-.2,29.4,0a9.8,9.8,0,0,0,7.9-3.2,128.8,128.8,0,0,1,10.6-10.3l23.8-23.8c3.3-3.2,4.9-3.2,8.2.1,7.8,7.6,15.5,15.5,23.3,23.2,3.6,3.6,3.7,3.6,7.1.2,12.9-12.9,25.7-25.9,38.7-38.6.8-.8,1.3-1.8,2.1-2.6,3.4-3.7,7.2-7.1,10.7-11-2-1-3.6-.6-5.2-.6H59.9c-2.3,0-5.1.9-6.5-2.1,1.6-2.1,4-1.6,6.2-1.6H219.7c3.5,0,6.4-.7,9.1-3.4s4.8-3,7.9,0,7.6,7.6,11.4,11.3c1.6,1.6,3,2.1,4.8.3,14.3-14.3,28.8-28.6,43-43.1.1-.1.1-.3.1-.6s-3-.5-4.5-.5H60.3c-2.4,0-5,.7-6.9-1.6.5-1.9,2.1-2,3.6-2.1a44.7,44.7,0,0,1,5.2-.1H294c4.9,0,8.5-1.3,11.8-4.9S311.5,137.1,316,135.6Z" style="fill:#e4ff55"/><path d="M316,135.6c-4,5.1-9,9.2-13.4,14-1.4,1.4-3.1.9-4.6.9H58c-1.5,0-3-.6-4.3.5a7.1,7.1,0,0,1,1.4,4.9v29.5a7.1,7.1,0,0,1-1.4,4.9c1.2,1.1,2.6.5,3.9.5H224.2l-14.4,15c-2.3,1.7-4.9,1.6-7.5,1.6H62.5c-7.4,0-7.4,0-7.4,7.4s-.1,16.2,0,24.3c0,4.4.4,4.8,5,4.8h42.2c2,0,4.3-.5,5.8,1.7-4,5.3-9.1,9.4-13.7,14.2-1,1.1-2.5.7-3.9.7H57.4c-1.2,0-2.5-.4-3.6.4a8,8,0,0,1,1.3,5c0,9.3-.1,18.7,0,28.1a14.1,14.1,0,0,1-1.5,6.1c.8,1.3,2,.6,3,.6H328.1l2.3-.2,7.4.2c4.5.2,7.4,3.2,7.5,7.3s-3,7.3-7.6,7.6H49.3c-8.7,0-10.8-2-10.8-10.8V101.9c0-7.2,2.6-10.6,7.7-10.5s7.3,3.5,7.3,10.4c0,9.9.1,19.7-.1,29.6,0,3.2.7,4.3,4.2,4.3H316Z" style="fill:#255e61"/><path d="M45.3,39.3a7.5,7.5,0,1,1-7.4-7.8A7.6,7.6,0,0,1,45.3,39.3Z" style="fill:#255e61"/><path d="M75.2,39.1a7.5,7.5,0,1,1-7.6-7.6A7.5,7.5,0,0,1,75.2,39.1Z" style="fill:#255e61"/><path d="M105.1,39a7.5,7.5,0,1,1-7.6-7.5A7.4,7.4,0,0,1,105.1,39Z" style="fill:#255e61"/><path d="M53.7,190.3V151h246c.1,1.8-1.2,2.4-2,3.2l-44.4,44.5c-2,2-3.1,2.3-5.2,0-4.2-4.5-8.8-8.8-13.1-13.3-1.6-1.6-2.9-2.3-4.4-.1-2.9,4.3-7.1,4.9-12,4.9-53.4-.2-106.7-.1-160.1-.1Z" style="fill:#fefefe"/><path d="M108.1,245.7h-52c-2.1,0-2.6-.7-2.6-2.7.1-11.6,0-23.2,0-34.8,0-1.8.2-2.6,2.4-2.6H209.8l-23.9,24.3c-5.7,5.7-11.6,11.3-17.1,17.2-2.5,2.8-4,2.4-6.4-.1-8-8.4-16.4-16.4-24.4-24.7-2.6-2.7-4.1-2.4-6.6.1C123.8,230.4,115.9,238,108.1,245.7Z" style="fill:#fefefe"/><path d="M53.6,300.2c-.1-13.1-.4-26.1.2-39.2H91.7c0,.8.1,1.1,0,1.3Z" style="fill:#fefefe"/></g></g></svg>