<svg xmlns="http://www.w3.org/2000/svg" viewBox="0 0 384 384"><g id="Layer_2" data-name="Layer 2"><g id="Layer_1-2" data-name="Layer 1"><path d="M49.5.1H335.3c4.7.9,9.6.9,13.8,3.9,9.3,6.8,14.6,15.7,14.6,27.2q.2,160.5,0,320.9c-.1,13.4-6.7,23.2-18.6,29.3-3.9,2-8.3,2.1-12.5,2.1q-140.3,0-280.5,0c-17.7,0-31.1-13.6-31.1-31.4q0-160.5.1-320.9c0-12.9,6.3-22.5,17.5-28.8C42,.5,45.9,1,49.5.1Z" style="fill:#255e61"/><path d="M49.5.1C45.3,1.5,40.9,2.5,37.2,5c-9.3,6.2-14.3,14.7-14.8,25.8V349.6c0,16.1,8.6,28.1,23.1,32.3a34.2,34.2,0,0,0,9.6,1.3H329.7c18.9,0,32.6-13.5,32.6-32.4q.1-159.1,0-318.4C362.3,16,352.1,3.9,336.1.6c-.3,0-.5-.3-.8-.5,15.2,0,30.4.1,45.6-.1,2.6,0,3.1.5,3.1,3.1q-.2,179-.1,358c0,7,0,13.9.1,20.9,0,1.6-.3,2.2-1.9,1.9H3.4c-2.8,0-3.4-.7-3.4-3.5Q.2,192,0,3.4C0,.6.6,0,3.4,0,18.8.2,34.1.1,49.5.1Z" style="fill:#fefefe"/><path d="M130.8,191.8c0,57.5-.1,115,0,172.4.1,3.4-.8,4.1-4.1,4.1-23.6-.2-47.3-.1-71-.1-11.6,0-18.3-6.7-18.3-18.4V33.4c0-11.6,6.7-18.3,18.3-18.4h71c3.3-.1,4.2.7,4.1,4C130.7,76.6,130.8,134.2,130.8,191.8Z" style="fill:#fefefe"/><path d="M254,191.4q0-86.2-.1-172.4c0-3.4.9-4.1,4.1-4h71.1c11.6.1,18.3,6.8,18.3,18.4V349.8c0,11.7-6.8,18.4-18.3,18.4-23.7,0-47.4-.1-71.1.1-3.3,0-4.1-.8-4.1-4.1Q254.1,277.8,254,191.4Z" style="fill:#fefefe"/><path d="M145.7,191.7V19.3c0-3.2.5-4.4,4.1-4.4,28.5.2,57.1.2,85.6.1,2.9,0,3.7.7,3.7,3.6q-.2,173,0,345.9c0,3.3-1,3.8-3.9,3.8-28.6-.2-57.1-.2-85.7,0-3.1,0-3.9-.7-3.9-3.9C145.8,306.8,145.7,249.3,145.7,191.7Z" style="fill:#fefefe"/><path d="M105.5,151.7c0,24.3-.1,48.6.1,72.9,0,3.6-1,4.7-4.6,4.6-11.4-.2-22.7-.2-34,0-3,0-4.2-.7-4.2-3.9q.2-73.7,0-147.3c0-3.1.9-4.1,4-4,11.6.1,23.2.2,34.8,0,3.2-.1,4,1.1,4,4.1C105.5,102.6,105.5,127.2,105.5,151.7Z" style="fill:#e4ff55"/><path d="M83.9,309.2H66.4c-2.5.1-3.6-.5-3.6-3.3.2-11.8.1-23.6,0-35.5,0-2.6,1-3.3,3.5-3.3h35.9c2.6-.1,3.4.9,3.3,3.5-.1,11.7-.1,23.4,0,35,.1,2.9-.9,3.7-3.6,3.6Z" style="fill:#e4ff55"/><path d="M84,49.6c-2.2,0-4.5.1-6.7-.1A7.1,7.1,0,0,1,70.4,43c-.4-3.8,1.6-7.2,5.3-7.9a44.7,44.7,0,0,1,16.7.1c3.7.7,5.7,4.2,5.3,7.8a7.2,7.2,0,0,1-7,6.5C88.5,49.7,86.2,49.6,84,49.6Z" style="fill:#255e61"/><path d="M84.2,333.7h6.7a7.2,7.2,0,0,1,6.8,6.7,6.8,6.8,0,0,1-5.5,7.7,44.7,44.7,0,0,1-16.3,0c-3.9-.6-6-4.2-5.5-8.1a7.2,7.2,0,0,1,7.1-6.3Z" style="fill:#255e61"/><path d="M279.3,151.2c0-24.2,0-48.3-.1-72.5-.1-3.9,1.1-4.8,4.8-4.7,11.4.2,22.7.1,34,0,2.9,0,3.9.7,3.9,3.8q-.1,73.8,0,147.6c0,3.1-1,3.8-3.9,3.8-11.4-.2-22.9-.3-34.3,0-3.8.1-4.5-1.3-4.5-4.7Q279.4,187.8,279.3,151.2Z" style="fill:#e4ff55"/><path d="M321.9,288.5c0,5.6-.2,11.2,0,16.8.1,2.8-.6,4-3.7,3.9H282.7c-2.5,0-3.5-.6-3.5-3.3.1-11.9.1-23.7,0-35.5,0-2.3.6-3.3,3.2-3.3h36.2c2.7-.1,3.4,1,3.3,3.5C321.8,276.6,321.9,282.6,321.9,288.5Z" style="fill:#e4ff55"/><path d="M300.6,49.5c-2.2,0-4.4.2-6.7,0a7.2,7.2,0,0,1-6.9-6.6,7.1,7.1,0,0,1,5.5-7.8,44.1,44.1,0,0,1,16.6.1c3.7.7,5.7,4.1,5.3,7.9a7.2,7.2,0,0,1-6.7,6.4c-2.3.2-4.7,0-7.1,0Z" style="fill:#255e61"/><path d="M300.9,348.6h-6.3c-4.6-.4-7.7-3.5-7.6-7.7s3.2-7.1,7.8-7.2h12.3a7.1,7.1,0,0,1,7.3,6.9,7.2,7.2,0,0,1-6.4,7.8,56.1,56.1,0,0,1-7.1.1Z" style="fill:#255e61"/><path d="M171.3,151.3c0-24.3.1-48.6,0-72.9,0-3.4.9-4.5,4.4-4.4q16.8.3,33.6,0c3.4-.1,4.2,1.1,4.2,4.3q-.1,73.4,0,146.8c0,3.1-.9,4.1-4.1,4.1-11.4-.2-22.9-.2-34.3,0-3.1,0-3.8-1.1-3.8-3.9C171.4,200.6,171.3,175.9,171.3,151.3Z" style="fill:#e4ff55"/><path d="M213.4,288.1c0,5.8-.1,11.7,0,17.5.1,2.5-.5,3.7-3.3,3.6H174.6c-2.4,0-3.3-.7-3.3-3.2.1-12,.1-23.9,0-35.9,0-2.3.9-3,3.1-3h35.9c2.6,0,3.2,1.1,3.1,3.4C213.3,276.3,213.4,282.2,213.4,288.1Z" style="fill:#e4ff55"/><path d="M192.1,49.5c-2.2,0-4.5.2-6.7,0a7,7,0,0,1-6.6-6.4c-.4-3.8,1.4-7.2,5.2-7.9a46.3,46.3,0,0,1,16.6-.1c3.7.7,5.7,4,5.4,7.8a7,7,0,0,1-6.8,6.6c-2.4.2-4.7,0-7.1,0Z" style="fill:#255e61"/><path d="M192.3,333.7h7.1a7.2,7.2,0,0,1,6.6,6.4c.4,3.9-1.5,7.2-5.2,7.9a44.7,44.7,0,0,1-16.7.1c-3.7-.7-5.7-4-5.4-7.8a7.2,7.2,0,0,1,6.9-6.6Z" style="fill:#255e61"/></g></g></svg>