<svg xmlns="http://www.w3.org/2000/svg" viewBox="0 0 383.1 322.6"><g id="Layer_2" data-name="Layer 2"><g id="Layer_1-2" data-name="Layer 1"><path d="M318,148.7c2.7-.4,4.1,1,5.5,3.3q12.9,21.6,38.2,23a49.2,49.2,0,0,0,21.4-3.8V249a8,8,0,0,0,0,5.3v1.5c-1.9,5.2-2.5,10.7-4.9,15.9-7.5,16.7-20.4,28.2-35.8,37.3a140.5,140.5,0,0,1-28.8,13,8,8,0,0,1-6.1,0c-4.3-1.7-8.7-3.2-12.9-5a26.6,26.6,0,0,0-10.4-2.2H28.1c-1.6,0-3.3.5-4.7-.5.9-1.3,2.3-1.2,3.7-1.3s3.2,0,4.8,0q125.4,0,250.8,0l.2-.2A124.3,124.3,0,0,1,264,300.2a83.7,83.7,0,0,1-16.5-18.1,62.2,62.2,0,0,1-10.6-35.2v-71c.1-5.3.7-5.7,5.7-4.2,16.1,4.7,31,2.4,44.3-8.2a42.7,42.7,0,0,0,10-12c1.6-2.6,3.5-4.1,6.7-3.8s7.1-.1,10.6-.1C315.6,147.7,316.9,147.7,318,148.7Z" style="fill:#e4ff55"/><path d="M383.1,254.3a4.5,4.5,0,0,1,0-5.3Z" style="fill:#b6fccf"/><path d="M264.2,299.2c7.3,5.2,14.5,10.4,22.7,15H23.4C9.1,312.6,0,302.5,0,288.1V26.6C0,10.7,10.7.1,26.9,0H290.6c13,0,22.4,6.2,26.1,17.2a22.7,22.7,0,0,1,1.3,7.7V148.7H303.1c-1.6-1.8-1.2-4-1.2-6.1-.1-16.8,0-33.6-.1-50.4,0-5.6-.1-5.8-5.5-5.8H21.7c-5.3,0-5.5.2-5.5,5.5V286.4c0,8.7,3,11.6,11.8,11.6H256.6C259.2,298,261.8,297.6,264.2,299.2Z" style="fill:#255e61"/><path d="M264.2,299.2l-3.7.2H27.8c-4.1,0-8-.4-10.7-4a10.9,10.9,0,0,1-2.1-7q0-100.2-.1-200.5c0-2.6.9-2.9,3.2-2.9H299.8c2.9,0,3.4,1,3.3,3.6v60.2c-2.3-.2-3.6.6-5,2.8-12.6,20.8-34.7,28.6-57.6,20.5-2.2-.7-2.5-.3-2.5,1.8,0,25.8-.5,51.6.2,77.4.5,18.5,9.7,33.3,23.3,45.5A9.3,9.3,0,0,1,264.2,299.2Z" style="fill:#255e61"/><path d="M307.3,240l18.3-21.7a22.6,22.6,0,0,1,2.5-2.8c3-3,7.1-3.2,10.1-.6a7.2,7.2,0,0,1,1.2,10.1c-8.5,10.2-17,20.4-25.8,30.4-2.8,3.3-7.1,3.3-10.3.3s-8.8-8.5-13-12.9a7.1,7.1,0,0,1,.2-10.1,7,7,0,0,1,10.1-.5A75.5,75.5,0,0,1,307.3,240Z" style="fill:#255e61"/><path d="M159,70H19.1c-3.4,0-4.3-.9-4.2-4.3.2-12.9.1-25.9.1-38.9C15,19,18.9,15,26.9,15H291.1c8,0,12,3.9,12,11.9,0,13.1-.2,26.2.1,39.3.1,3.6-1.2,3.9-4.2,3.9Z" style="fill:#e4ff55"/><path d="M166.5,199.9c0,13.1.1,26.2,0,39.3,0,17.2-10.6,27.7-27.7,27.7H76.3c-16.6,0-27.4-10.7-27.4-27.3-.1-27.1,0-54.1,0-81.2,0-6.8,2.7-9.5,9.4-9.5,4.9,0,9.8-.2,14.6,0,2.8.2,3.5-.6,3.6-3.4a31.3,31.3,0,0,1,33-30.3c16,1,28.1,13.3,29.3,30,.2,3.2,1.1,3.9,4.1,3.7,4.7-.2,9.4,0,14.2,0,6.8,0,9.4,2.6,9.4,9.5C166.6,172.3,166.5,186.1,166.5,199.9Z" style="fill:#e4ff55"/><path d="M79.9,50c-10.4,0-20.9.1-31.4,0-4.5,0-7.8-3.1-8-7.2a7.8,7.8,0,0,1,6.4-7.7,22.5,22.5,0,0,1,2.6,0q30.6-.1,61.2,0c5.4,0,8.9,2.9,9,7.3s-3.5,7.6-9.2,7.6Z" style="fill:#255e61"/><path d="M232.8,35.1c1.6,0,3.3-.1,4.9,0a7.4,7.4,0,0,1,7,7.4,7.4,7.4,0,0,1-6.9,7.4,68.1,68.1,0,0,1-10.1,0,7.4,7.4,0,0,1-6.9-7.5,7.5,7.5,0,0,1,7.2-7.3C229.6,35,231.2,35.1,232.8,35.1Z" style="fill:#255e61"/><path d="M274.1,35.1c1.5,0,3-.1,4.5,0a7.5,7.5,0,0,1,7.2,7.2,7.4,7.4,0,0,1-7.1,7.6,78.5,78.5,0,0,1-9.7,0,7.4,7.4,0,0,1,.3-14.8C270.9,35,272.5,35.1,274.1,35.1Z" style="fill:#255e61"/><path d="M191.8,35.1c1.6,0,3.3-.1,4.9,0a7.4,7.4,0,0,1,6.8,7.1,7.2,7.2,0,0,1-6.6,7.7,60.2,60.2,0,0,1-10.4,0,7.4,7.4,0,0,1,.4-14.8c1.7-.1,3.3,0,4.9,0Z" style="fill:#255e61"/><path d="M151.6,203.8V239c-.1,9.1-3.9,12.9-13,12.9h-62c-8.7,0-12.7-3.9-12.8-12.4,0-24.1.1-48.1,0-72.2,0-2.8.6-3.6,3.5-3.5,9,.1,9,0,9,9,0,2.1,0,4.2.1,6.4.1,4.8,3.1,7.9,7.6,7.8s7.2-3.1,7.3-7.7.1-8.8,0-13.1c-.1-1.7.4-2.4,2.3-2.4h28c2.1,0,2.5.8,2.4,2.7-.1,4.1,0,8.2,0,12.3s2.9,8.1,7.2,8.2,7.6-3,7.7-8.2.2-8.2,0-12.3c0-2.1.7-2.8,2.8-2.7a42.1,42.1,0,0,0,7.1,0c2.5-.2,2.8.9,2.8,3C151.5,179.2,151.6,191.5,151.6,203.8Z" style="fill:#255e61"/><path d="M107.7,148.9H93.8c-1.8.1-2.5-.3-2.5-2.4a16.6,16.6,0,0,1,16.5-16.4,16.8,16.8,0,0,1,16.3,16.7c-.1,2.1-1.1,2.1-2.6,2.1Z" style="fill:#255e61"/></g></g></svg>