<svg xmlns="http://www.w3.org/2000/svg" viewBox="0 0 328.9 383.2"><g id="Layer_2" data-name="Layer 2"><g id="Layer_1-2" data-name="Layer 1"><path d="M165.1,323.2c-46.4,0-92.8.1-139.2,0-15.8,0-25.9-10-25.9-25.9V55.3c0-7.2,2.5-9.7,9.6-9.7,13.5,0,26.9-.1,40.4.1,2.8,0,3.5-.8,3.5-3.6-.2-10.8.1-21.7-.1-32.5-.1-4.5,1.3-7.7,5.4-9.6h137c4,2,5.4,5.2,5.4,9.7-.3,10.9,0,21.9-.2,32.9,0,2.4.7,3.1,3.2,3,13.3-.1,26.6,0,39.9,0,8.2,0,10.3,2.1,10.3,10.4,0,34.4.1,68.8-.1,103.2,0,3.6.8,4.7,4.5,4.5,6.7-.3,13.5-.1,20.2-.1s8.8,2.7,8.9,8.9c0,10.3.1,20.7.1,31,1.3,1.9.9,4.1.9,6.1.1,4.3.1,8.5,0,12.7-.2,5.9-3.3,9.6-8.1,9.8s-8.8-3.9-9-9.8-.1-12.6-.1-18.9,0-12.7-.1-19.1c0-3.9-.3-4.3-4.3-4.3H226.6c-3.8.1-4.1.4-4.2,4.4-.1,6.3.1,12.7-.1,19s.1,12,.1,17.9a18.4,18.4,0,0,1-.5,4.1c-1.3,4.3-5.1,7.1-9.2,6.7a8.2,8.2,0,0,1-7.5-8.3c-.3-8-.1-15.9,0-23.9.1-10.1-.1-20.1.1-30.2,1.5-4.9,3.8-6.8,8.9-7s12.9,0,19.4,0c3.9-.1,4.3-.5,4.4-4.3V66c0-3-1-4.3-4.1-4.2-9.1.1-18.2,0-27.3,0-3.9.1-4.3.5-4.4,4.4s.1,6.7-.1,10.1c-.3,5.2-4.1,9.1-8.6,9.1s-8-3.7-8.5-8.9a90,90,0,0,1-.1-10.4c0-3-1.1-4.3-4.2-4.3h-68c-3.2,0-4.1,1.4-4.1,4.3s.5,8.5-.8,12.7a8.4,8.4,0,0,1-8.9,6.4,8,8,0,0,1-7.5-7.9c-.3-3.8-.1-7.7-.1-11.5s-1.2-4-4-4c-11,0-22,.1-32.9,0-3.1-.1-4.3,1.3-4.1,4.2a24.3,24.3,0,0,1,0,2.7V299.8c0,7.3,0,7.3,7.4,7.3h101c2.2,0,4.5-.4,6.6,1A23,23,0,0,1,165.1,323.2Z" style="fill:#255e61"/><path d="M272.8,203.5c0,6.2.1,12.4.1,18.6s3.2,9.2,7.7,9,7.2-3.5,7.3-9,.1-12.4.1-18.6h37.4c2.9-.1,3.6.8,3.5,3.6V368.6c0,9.2-5,14.7-14.7,14.6-45.1-.2-90.2-.1-135.3-.1-8.9,0-13.8-4.9-13.8-13.9V308.3c-1.3-1.5-1.2-3.2-1.2-5V208.9c0-5.7.8-6.5,6.5-6.6h29.1c4.4,0,4.7-.4,4.8-4.7,0-7.6-.1-15.2,0-22.8.1-1.7-.5-3.8,1.8-4.8v52.7c0,3.3,1,5.9,3.9,7.5a7,7,0,0,0,7.5-.3c2.7-1.7,3.5-4.3,3.6-7.3,0-6.4.1-12.7.1-19.1,1.5-1.3,3.2-1.2,5-1.2h41.6C269.6,202.3,271.3,202.2,272.8,203.5Z" style="fill:#e4ff55"/><path d="M206.1,170c-1.2,2.7-.5,5.4-.5,8.1-.2,7.2-.2,14.5,0,21.7.1,2.8-.7,3.8-3.7,3.8-11-.2-22,0-32.9-.2-3.2,0-3.9,1-3.9,4,.1,33.7,0,67.3,0,100.9-37.4,0-74.8-.1-112.2.1-3.5,0-4-1-4-4.1q.1-120,0-239.8c0-3.3.8-4.1,4.1-4q17.6.3,35.1,0c3.1-.1,4.5.5,4.2,4a89.7,89.7,0,0,0-.1,11.6c.1,4.9,3,8.1,7.3,8.3s7.5-3.2,7.6-8.4.2-8,0-11.9.4-3.6,3.4-3.6c24.2.1,48.3.1,72.5,0,2.4,0,3.3.4,3.2,3-.3,4.1-.1,8.2-.1,12.3s3.2,8.6,7.5,8.6,7.4-3.5,7.5-8.5.1-8.5,0-12.8c-.1-1.8.2-2.6,2.4-2.6q16.8.2,33.6,0c2.6,0,2.4,1.4,2.4,3-.1,15.7,0,31.5,0,47.2s-.2,32.6,0,49c.1,3.4-1,4.1-4.2,4-6.9-.2-13.9-.1-20.9-.1C209.5,163.7,207.6,165.2,206.1,170Z" style="fill:#255e61"/><path d="M34,184.5q0,60.1.1,120.1c0,2.8-.5,3.6-3.6,3.8-14.5.7-15.6-4.5-15.6-15.5q.2-114.1,0-228.2c0-3.3.8-4.5,4.2-4.2a66.1,66.1,0,0,0,10.9,0c3.2-.3,4.2.5,4.1,4-.2,21.9-.1,43.9-.1,65.8Z" style="fill:#e4ff55"/><path d="M272.8,203.5H221.2c0-7.6,0-15.2-.2-22.7,0-2,.8-2.2,2.5-2.2h47c1.6,0,2.5.2,2.5,2.1C272.8,188.3,272.8,195.9,272.8,203.5Z" style="fill:#fefefe"/><path d="M127.7,15h17.1c2,0,2.6.5,2.6,2.5q-.3,12.9,0,25.8c0,2-.8,2.4-2.6,2.4q-17.6-.1-35.1,0c-2,0-2.6-.6-2.6-2.5q.2-12.9,0-25.8c0-2.1.8-2.4,2.6-2.4Z" style="fill:#fefefe"/><path d="M186.1,30.7V43c.1,1.8-.2,2.7-2.3,2.6-6.4-.1-12.7-.1-19,0-2,.1-2.6-.6-2.6-2.5q.2-12.9,0-25.8c0-1.7.4-2.4,2.3-2.4h19.4c1.8,0,2.3.6,2.3,2.4C186,21.7,186.1,26.2,186.1,30.7Z" style="fill:#fefefe"/><path d="M68.4,30.3c0-4.4.1-8.7,0-13.1-.1-1.8.5-2.3,2.3-2.3h19c2.1,0,2.6.7,2.5,2.6-.1,8.5-.1,16.9,0,25.4.1,2.1-.6,2.8-2.7,2.7q-9.1-.1-18.3,0c-2.5.1-2.9-.8-2.8-3C68.5,38.5,68.4,34.4,68.4,30.3Z" style="fill:#fefefe"/><path d="M245.3,310.4l-2.6,6.1c-2.7,6.4-6.3,8.6-10.8,6.8s-5.7-6.3-3-12.7l11.5-27.4c-7.5,4-14.2,4.5-20.6,0a19.7,19.7,0,0,1-8.3-12.9c-2.2-11.5,4.3-22.5,14.6-24.7s19.6,4.8,22.5,18.1c1.6-3.8,2.8-7,4.2-10.1,2.1-4.7,6.1-6.6,10.2-5s5.6,6,3.7,10.7c-4.1,9.9-8.3,19.8-12.4,29.6,0,.1.1.2.2.7,5.9-3.3,12-4,18-.6a19.4,19.4,0,0,1,9.5,12c3.4,11.2-2.5,23.1-13,26.2S249.5,324,245.3,310.4Z" style="fill:#255e61"/><path d="M246.9,361.6H223.7c-5.2,0-8.5-2.8-8.5-7.3s3.2-7.5,8.4-7.6h46.8c5.1.1,8.4,3.3,8.4,7.7s-3.4,7.2-8.7,7.2Z" style="fill:#255e61"/><path d="M99.6,103.8h10.8c4.2.2,7.2,3,7.4,6.9a7.2,7.2,0,0,1-6.5,7.8,161.9,161.9,0,0,1-23.1,0,7.3,7.3,0,0,1-6.8-7.6c.2-4.1,3.3-7,7.7-7.1Z" style="fill:#255e61"/><path d="M193.6,103.8h10.8c4.2.2,7.1,3,7.3,6.9s-2.2,7.4-6.4,7.7a148.5,148.5,0,0,1-23.1.1,7.1,7.1,0,0,1-6.7-7.6c.2-4.1,3.1-6.9,7.6-7.1h10.5Z" style="fill:#255e61"/><path d="M233.5,265.8c-.3,2.6-.7,5.5-3.8,5.5s-3.8-3.1-3.7-5.7.6-5.2,3.6-5.2S233.2,263.2,233.5,265.8Z" style="fill:#e4ff55"/><path d="M268,307.5c-.5,2.5-.7,5.4-4,5.3s-3.5-3-3.5-5.3.7-5.6,3.7-5.6S267.7,304.9,268,307.5Z" style="fill:#e4ff55"/></g></g></svg>