<svg xmlns="http://www.w3.org/2000/svg" viewBox="0 0 469.55 511.81"><defs><style>.cls-1{fill:#255e61;}.cls-2{fill:#e4ff55;}.cls-3{fill:#fefefe;}</style></defs><g id="Layer_2" data-name="Layer 2"><g id="Layer_1-2" data-name="Layer 1"><path class="cls-1" d="M232.49,0c6.45,2.34,13.26,3.15,19.73,5.78,29.91,12.15,48.38,33.91,56.2,65a75.57,75.57,0,0,1,2.08,18.51q-.09,136.68,0,273.35A40.87,40.87,0,0,0,346.35,403c21.74,2.7,41.4-13.66,44.27-33a53.7,53.7,0,0,0,.79-7.78c0-27,0-54,.1-80.95,0-3.22-.73-5.37-3.39-7.33-15.32-11.32-30.45-22.87-45.76-34.18-5.23-3.86-8.12-8.1-8.08-15.21.31-52.14.17-104.28.17-156.41,0-8.61,3.58-12.2,12.18-12.2H457.56c8.06,0,11.83,3.85,11.83,12,0,52.3-.12,104.61.16,156.91,0,7-2.71,11.18-8,15.05-15.51,11.32-30.75,23-46.2,34.42-2.42,1.77-3,3.64-3,6.48.11,27.49,0,55,.07,82.46a60.45,60.45,0,0,1-45.56,59.12c-27.35,7.21-54.93-3.95-69.43-29.38a60.68,60.68,0,0,1-8-30.42q0-136.92-.07-273.84c0-16.77-6.37-31.29-17.45-44-10-11.49-22.26-19.45-37-22.44-25.9-5.26-48.71,1.08-67.25,20.68-4.19,4.43-7.41,9.45-10.67,14.56-2.61,4.09-.25,5,2.51,5.2,8.89.63,17.21,3.5,25.44,6.43a137.63,137.63,0,0,1,75.83,68.61,138,138,0,0,1,12.8,46.66c2.54,24.75-1.76,48.17-12,70.53-8.52,18.58-21.08,34.12-36.85,47.25a133.08,133.08,0,0,1-44.58,24.48c-2.68.87-1.6,2.57-1.62,3.89-.11,10.33-.47,20.68.07,31,.43,8.37-2.55,14.42-9.85,18.08-4.39,2.2-3.2,3.67-.12,5.76,12.05,8.13,13.82,18.82,5,30.63-1.26,1.68-.86,2.34.27,3.66,7.57,8.83,6.29,18.68-3.19,25.44-.67.48-1.14,1.32-1.86,1.64-4.19,1.89-3.75,3.82-.05,5.64,7.5,3.7,9.37,9.77,10,17.9,1,12.28-3.17,20.14-14,25.93-7.93,4.26-14.92,10.26-22.33,15.48h-9C126,509.51,120.46,504,114,500c-3.66-2.3-7-5.11-10.71-7.34-5.09-3.07-7.18-7.51-7.15-13.35.08-15,0-30,0-45q0-49.23,0-98.46c0-6.91,0-7-6.37-9.4A134.44,134.44,0,0,1,41.89,296.4C19.65,274.46,5.63,248,1.41,216.82-3.12,183.36,3.22,152,21.47,123.56c23.23-36.15,56.58-57,99.19-62.88a20.91,20.91,0,0,1,2.49-.21c5.72-.09,8.93-2.59,11.49-8.16C146.33,26.85,166,10.23,192.8,1.91,197,.61,201.33,1.08,205.5,0Z"/><path class="cls-2" d="M154.77,430.05c-3.84,4.16-8.23,6.8-12.5,9.41-8.58,5.24-7.21,16.08.23,20.46,4.61,2.7,8.77,6.17,13,9.44,3,2.33,2.8,5.37-.36,7.58-4.81,3.37-9.64,6.71-14.39,10.16-1.95,1.42-3.46,1.59-5.56,0-5.33-4-13-6.6-15.77-11.86s-.9-13.29-.9-20.1c0-43.8-.19-87.61.11-131.41.07-10.68-2.91-13.23-12.23-15.76C90,303.53,75.59,295.47,62.61,284.51c-19.8-16.7-32.08-37.92-37.63-62.94-5-22.41-2.95-44.5,5.33-66A111.5,111.5,0,0,1,57.4,114.75c17.05-16.33,37-27.26,60.67-31,3-.47,6.23-.18,9.46-1.52,0,10.73-.08,21.38.06,32,0,2.79-1.68,3.34-3.64,3.63-23.64,3.54-41.27,16.42-54.26,35.83-9.37,14-12.78,29.67-12.29,46.62.68,23.15,9.87,42.09,26.65,57.33A76.91,76.91,0,0,0,125.87,277c17.6,2.52,34.33.15,49.83-8.25,23.47-12.71,37.75-32.36,41.8-59,4.35-28.74-4.56-53-25.57-72.68a73.13,73.13,0,0,0-38.76-19c-3.37-.55-4.83-1.5-4.73-5.17.25-8.83.2-17.66,0-26.48-.06-2.86.77-3.73,3.59-3.47A101.34,101.34,0,0,1,183,91.22a116.08,116.08,0,0,1,68.65,87c4.5,26,.26,50.32-12.09,73.34q-20.26,37.77-60.35,53.33A111.24,111.24,0,0,1,165.74,309c-4.72,1.18-8.55,4.73-8.34,10.94.41,12.14,0,24.31.2,36.47.07,3.83-.8,6.37-4.35,8.41-4.62,2.66-8.85,6-13.19,9.17-4.66,3.36-5.17,12-.59,16.16A71,71,0,0,0,152,399.52c4.53,2.52,3.73,4.37.57,7.12-2.1,1.83-4.17,3.78-5.19,6.54-1.56,4.27-1.71,8.34,1.79,11.8C151,426.74,152.88,428.34,154.77,430.05Z"/><path class="cls-3" d="M412.42,250.22c0-14.5-.32-28.09.15-41.65A11.1,11.1,0,0,0,401.83,197c-5.72-.25-10.35,5-10.38,11.36-.07,13.61,0,27.23,0,41.43-11.46-8.51-22.5-16.71-33.52-24.94a6.26,6.26,0,0,1-2.53-5.53q.12-69.18,0-138.37c0-3.33,1-4.09,4.16-4.08q42.47.18,84.92,0c3.42,0,4,1.09,4,4.21q-.14,69.18-.06,138.37c0,1.85,0,3.44-1.8,4.8C435.38,232.67,424.26,241.21,412.42,250.22Z"/></g></g></svg>