<svg xmlns="http://www.w3.org/2000/svg" viewBox="0 0 303.37 383.85"><defs><style>.cls-1{fill:#255e61;}.cls-2{fill:#fefefe;}.cls-3{fill:#e4ff55;}</style></defs><g id="Layer_2" data-name="Layer 2"><g id="Layer_1-2" data-name="Layer 1"><path class="cls-1" d="M297.13,383.85H6.24c-5-1.82-6-3.18-6.18-8.47C0,373.14,0,370.89,0,368.64V15.11C0,13,0,10.87.05,8.75.22,2.89.9,2,6.24,0H297.13c5,1.83,6,3.18,6.18,8.47.08,2.25.05,4.5.05,6.75q0,176.7,0,353.41c0,2.25,0,4.5-.05,6.75C303.11,380.67,302.12,382,297.13,383.85Z"/><path class="cls-2" d="M17.49,191.55q0-86.19-.08-172.39c0-3.4.82-4.25,4.23-4.25q130.05.16,260.09,0c3.42,0,4.23.86,4.23,4.25q-.13,172.77,0,345.53c0,3.4-.82,4.25-4.24,4.25q-130-.15-260.08,0c-3.42,0-4.24-.86-4.23-4.25Q17.58,278.13,17.49,191.55Z"/><path class="cls-1" d="M151.56,30.74H262.47c5.71,0,8.41,2.61,8.41,8.26q0,109.23,0,218.46c0,5.57-3.17,8.68-8.75,8.68H41.43c-5.87,0-9-3-9-8.82V39.63c0-6.4,2.51-8.89,8.91-8.89Z"/><path class="cls-1" d="M151.66,344.87h-106c-5,0-5,0-5-4.93,0-15.11.1-30.22-.08-45.33,0-3.67,1.19-4.63,4.73-4.62q106.41.12,212.81,0c3.6,0,4.73,1.06,4.69,4.67q-.27,22.86,0,45.71c.05,3.7-1.21,4.6-4.73,4.58C222.6,344.82,187.13,344.87,151.66,344.87Z"/><path class="cls-3" d="M151.69,45.73c33.23,0,66.46.05,99.7-.08,3.17,0,3.83.84,3.83,3.9q-.15,98.58,0,197.16c0,2.73-.4,4-3.56,3.77-5-.3-10-.16-15,0-1.94.05-2.6-.48-2.54-2.49.14-4.74.24-9.5,0-14.24-.42-8.2-1.23-16.35-6-23.46-5.15-7.64-12.47-12.57-20.76-15.95-8.88-3.63-18-6.6-27-9.92-1-.38-2.69-.5-2.33-2.26s-1.12-4,1.37-5.59a53.13,53.13,0,0,0,17.89-19.21,49.38,49.38,0,0,0,6.13-20.4,136.28,136.28,0,0,0,0-15c-.11-2.67.45-4,3.4-3.49a8.84,8.84,0,0,0,5.67-1.18,8,8,0,0,0,3.57-9.55c-1.2-3.2-3.53-5.31-7.33-5-.87.07-1.76-.09-2.62,0-2.18.3-2.74-.64-2.66-2.72A37.63,37.63,0,0,0,196,75.94a39.42,39.42,0,0,0-28.7-16.82c-8.59-1-17.15-.64-25.71-.56-11.37.11-21.76,3.7-29.81,11.93-7.49,7.64-12,17-11.72,28,.08,3.22-.5,4.56-4.14,4.35-5.87-.35-8.65,2.31-8.67,7.43s3.12,8.34,8.6,8.12c3.46-.14,4.29.89,4.23,4.27-.16,9.09-.6,18.17,2.76,27,4.2,11.08,10.72,20.15,20.86,26.32,2.8,1.7,1.42,3.87,1.75,5.85s-1.39,2.12-2.76,2.65c-10.84,4.23-22.21,7.2-32.49,12.77-12,6.47-19.33,16-20.36,30.25-.49,6.72-.42,13.4-.51,20.09,0,2.36-.68,2.95-3,2.88-5-.17-10-.23-15,0-2.79.14-3.19-.92-3.18-3.39.1-20.12,0-40.23,0-60.35q0-68.59-.07-137.18c0-3.08.67-3.91,3.83-3.9C85.22,45.78,118.45,45.73,151.69,45.73Z"/><path class="cls-2" d="M151.39,250.4c-20.73,0-41.45-.11-62.17.11-3.78,0-4.65-1.07-4.31-4.55.57-5.91-.08-11.83.64-17.81,1.2-10.07,7.64-15.3,15.91-18.86,7.44-3.21,15.27-5.49,22.76-8.57,2.42-1,2.28.76,2.64,1.65,3.56,8.73,9.46,14.53,19,16.65,14.18,3.17,25.55-4.56,30.47-15.82,1-2.35,1.2-3.16,4-1.94,6.89,3,14.12,5.13,21.08,7.94,12.16,4.92,16.46,11.43,17,23.88.19,4.49-.17,9,.1,13.48.18,3-.58,3.95-3.8,3.93C193.58,250.32,172.49,250.4,151.39,250.4Z"/><path class="cls-2" d="M152,118.45c10.73,0,21.46.14,32.19-.08,3.09-.06,3.71,1,3.57,3.75-.37,7.59.8,15.27-2.24,22.64-5.35,13-14.51,20.88-28.57,23.24-18.84,3.16-35.77-10-40.17-26.45-1.89-7.05-.82-14.31-1-21.47-.08-2.43,1.79-1.59,2.93-1.59C129.75,118.43,140.85,118.45,152,118.45Z"/><path class="cls-2" d="M151.62,102.71c-10.74,0-21.47-.08-32.21.05-2.69,0-3.73-.37-3.83-3.52-.34-11,9.85-23.22,21-24.22,11.77-1.06,23.62-2.43,35.18,1.43,9.47,3.16,16.88,14.42,16,24.42-.22,2.27-1.51,1.83-2.79,1.83Q168.29,102.73,151.62,102.71Z"/><path class="cls-2" d="M141.19,190.16c0-6.65,0-6.43,6.48-5.84,3.14.29,6.38.53,9.58-.39,4.16-1.2,5-.5,4.91,3.78-.06,4,.8,8.16-1.9,11.76s-7.86,5.46-11.42,4.22a11.34,11.34,0,0,1-7.65-10.55C141.18,192.15,141.19,191.15,141.19,190.16Z"/></g></g></svg>