<svg xmlns="http://www.w3.org/2000/svg" viewBox="0 0 383.7 346.6"><g id="Layer_2" data-name="Layer 2"><g id="Layer_1-2" data-name="Layer 1"><path d="M383.7,335.4v4.5c-1.7,5.1-3.4,6.4-8.9,6.7H13.4a27.5,27.5,0,0,1-6.4-.3c-3.2-.7-5.9-2-6.5-5.7s-1-7.8,2.8-10.1,3.3-3.9,3.3-6.9q-.1-75.7,0-151.5c0-3-.5-5.3-3.4-6.8s-3-4-3-6.5c-.1-10.5-.1-20.9,0-31.4,0-2.9.9-5.5,3.6-6.9s2.9-2.9,2.8-5.3a32.3,32.3,0,0,1,0-4.4,5,5,0,0,0-2.4-4.7c-6-4.4-5.5-12.9,1-16.3,18-9.3,36.4-18,54.7-26.8L95.5,45.6C123,32.2,150.6,19,177.9,5.3c2.2-1.1,4.6-1.9,6.7-3.2,5.5-3.2,10.6-2.4,16,.3,10.4,5.3,21,10.3,31.5,15.5l83,40.6c20.8,10.3,41.8,20.2,62.5,30.5,3.1,1.6,5.5,3.4,6.1,7v4.5c-.6,2.6-1.8,4.8-4.4,5.9s-1.7,2-1.7,3.5,0,3.7-.1,5.5.5,4.2,2.8,5.1,2.6,3.4,3.4,5.4v34.4c-.7,2.6-1.7,4.9-4.3,6.3a3.2,3.2,0,0,0-1.6,3.1c-.1,1.1-.1,2.3-.1,3.4V322.6c0,3.3.1,6.2,3.5,7.9S382.8,333.8,383.7,335.4Z" style="fill:#255e61"/><path d="M383.7,335.4c-1.6-2.4-3.3-4.7-6.4-5.2s-1.1-2-1.1-3c-.1-9.7,0-19.4,0-29.1q0-64.5-.1-128.8c0-2.3.2-4,2.9-4.5s3.3-2.7,4.7-4.5Z" style="fill:#fefefe"/><path d="M383.7,125.9c-1.6-2.3-3.2-4.7-6.4-5.1-1.5-.2-1.1-1.4-1.1-2.3,0-2.5.1-5.1-.1-7.7s-.3-5.5,3.7-6.2c1.9-.3,2.7-2.6,3.9-4.1Z" style="fill:#fefefe"/><path d="M132.2,120.5l-70.7.2c-11.8,0-23.7-.1-35.5,0-2.5.1-3.1-.7-3.1-3.1a148.1,148.1,0,0,0,0-14.9c-.1-2.7.9-3.9,3.2-5C78.4,72.2,130.8,46.8,182.9,21c6.7-3.3,11.7-3.3,18.4,0,52,25.8,104.3,51.1,156.5,76.5,2.6,1.2,3.7,2.6,3.5,5.6a112.1,112.1,0,0,0,0,14.2c.1,2.7-.6,3.5-3.5,3.4-21.5-.1-43.1,0-64.7,0l-41.1-.2c-1.7-1.5-1.4-3.6-1.4-5.6-.1-11.4-.1-22.9,0-34.3,0-3.3-1-5.3-4-6.8-17.3-8.1-34.2-16.8-51.5-24.9-2.4-1.2-4.4-.8-6.7.3-10.6,5.5-21.6,10.2-32.2,15.8-5.6,3-11.4,5.6-17.2,8.1-4,1.8-5.6,4.2-5.4,8.6.3,11.1.1,22.2,0,33.2C133.6,116.9,133.9,119,132.2,120.5Z" style="fill:#fefefe"/><path d="M304.4,301.7h14.9c1.7,0,2.6,1.2,3.5,2.4,6.1,7.3,12.3,14.6,18.4,22,.9,1.1,2,2.2,1.3,3.9l-2.9.2H44.7l-3-.2c-.7-1.7.4-2.8,1.3-3.9,6.1-7.4,12.3-14.7,18.4-22,.9-1.2,1.9-2.4,3.6-2.4H79.8c1.7-1.7,3.9-1.5,6-1.5H297.3C299.8,300.2,302.4,299.7,304.4,301.7Z" style="fill:#e4ff55"/><path d="M132.2,120.5c0-13.8.1-27.6,0-41.4-.1-3.1,1-4.7,3.7-6q27-12.9,53.8-26.1a4.8,4.8,0,0,1,4.8,0q26.9,13.2,53.8,26.1c2.7,1.3,3.8,2.9,3.7,6-.1,13.8,0,27.6,0,41.4l-66.4.2Z" style="fill:#e4ff55"/><path d="M65,301.7c-7.1,8.4-14.2,16.8-21.2,25.3a32.1,32.1,0,0,0-2.1,3c-5.4.1-10.7,0-16.1.2-2.1.1-2.7-.6-2.6-2.7.1-6.6,0-13.2,0-19.8q0-69.1-.1-138.4c0-3,.6-3.9,3.8-3.8,11.5.2,23,.2,34.4,0,3.1-.1,3.9.6,3.9,3.8Q64.9,235.5,65,301.7Z" style="fill:#e4ff55"/><path d="M342.5,330c-4-5.9-9-11.1-13.5-16.7-3.1-3.9-6.5-7.8-9.7-11.6q0-66-.1-132c0-3.5.9-4.3,4.3-4.2,11.5.2,23.1.1,34.7,0,2.5,0,3.1.7,3.1,3.1q-.2,79.2,0,158.5c0,2.4-.6,3.2-3.1,3.1C353,330,347.8,330.1,342.5,330Z" style="fill:#e4ff55"/><path d="M304.4,301.7H79.8c0-8.5.2-17,0-25.4,0-2.5.7-3.1,3.1-3.1q109.2.2,218.4,0c2.4,0,3.2.6,3.1,3.1C304.3,284.7,304.4,293.2,304.4,301.7Z" style="fill:#fefefe"/><path d="M192.1,135.6H364.9c3,0,4.3.5,3.8,3.7s1.6,8.7-.8,10.7-6.8.6-10.4.6H19.7c-3.3,0-4.7-.7-4.2-4.2s-1.6-8.3.8-10.3,6.6-.6,10.1-.6Z" style="fill:#fefefe"/><path d="M192.1,186.5H83.6c-3,0-4-.7-3.8-3.8.3-5,.1-10,0-15,0-1.8.6-2.5,2.3-2.3H300.2c3.3,0,4.5.7,4.2,4.2a127.1,127.1,0,0,0,0,13.8c.1,2.5-.7,3.1-3.1,3.1H192.1Z" style="fill:#fefefe"/><path d="M192.5,201.5H300.6c3.1,0,4,.7,3.8,3.8-.3,5-.1,10,0,15,0,1.8-.6,2.5-2.3,2.2H84c-3.3,0-4.5-.8-4.2-4.2a127.1,127.1,0,0,0,0-13.8c-.1-2.5.7-3.1,3.1-3.1H192.5Z" style="fill:#fefefe"/><path d="M192.1,237.4H300.6c3,0,4,.7,3.8,3.8-.3,5-.1,10,0,15,0,1.8-.5,2.5-2.3,2.2H84c-3.3,0-4.5-.7-4.2-4.2a127.1,127.1,0,0,0,0-13.8c-.1-2.5.7-3.1,3.1-3.1H192.1Z" style="fill:#fefefe"/></g></g></svg>