<svg xmlns="http://www.w3.org/2000/svg" viewBox="0 0 383.1 268"><g id="Layer_2" data-name="Layer 2"><g id="Layer_1-2" data-name="Layer 1"><path d="M383.1,71.9c-2.4,4-6,5.2-10.6,5.1-10.9-.2-21.7,0-32.6-.1-2.4-.1-3.5.3-3.4,3.1.3,4.9.2,9.8.1,14.6-.1,2.1.6,2.8,2.7,2.7h21.3c5.2,0,8.4,2.9,8.4,7.4s-3.2,7.5-8.4,7.5H339.3c-2.1,0-2.8.5-2.7,2.7.1,5.3.1,10.7,0,16-.1,2.1.6,2.6,2.5,2.5a62.6,62.6,0,0,1,7.5,0c4.7.3,7.6,3.4,7.5,7.7s-3.1,7-7.8,7.2c-3.1.2-7.2-1.3-9,.6s-.7,6.1-.7,9.3v78.2c0,7.7-2.4,10-10.1,10H288.8A4.9,4.9,0,0,0,284,249c-15.3,25.3-50.6,25.3-65.9.1a4.7,4.7,0,0,0-4.7-2.7H100.5a4.6,4.6,0,0,0-4.7,2.6c-15.4,25.3-50.6,25.3-65.9,0a4.6,4.6,0,0,0-4.7-2.6c-5.5.2-11,.1-16.5,0S0,243.7,0,237.7V165.5c.1-11.1,7.3-19.4,18.5-20.8,2.3-.3,3-1.1,3.5-3.2,5.6-22.3,11.3-44.6,16.9-66.9,1.6-6.1,3.7-7.8,10-7.8,13.5,0,26.9-.1,40.4.1,3.1,0,3.6-.9,3.6-3.7-.1-17.9-.1-35.7-.1-53.5,0-7.2,2.5-9.7,9.7-9.7H326.9c7.1,0,9.7,2.6,9.7,9.7,0,16.3.1,32.7-.1,49,0,2.6.7,3.3,3.4,3.3,11.2-.1,22.4.1,33.6-.1,4.5-.1,7.7,1.4,9.6,5.5Z" style="fill:#255e61"/><path d="M107.9,45.7c0-9.5,0-19-.1-28.5-.1-1.8.5-2.5,2.3-2.2H317.3c3.6,0,4.5.8,4.4,4.4-.2,13-.1,26,0,38.9,0,2.8-.5,3.9-3.6,3.8-7.6-.2-15.2-.1-22.8,0-5.6,0-8.8,2.8-8.8,7.5s3.5,7.4,8.9,7.4h23.2c2.5-.1,3.2.7,3.1,3.1-.2,4.9-.2,9.7,0,14.6.1,2.2-.6,2.8-2.7,2.7H296.1c-5.4,0-8.8,2.9-8.7,7.5s3.4,7.4,8.8,7.4c7.4.1,14.7.2,22.1,0,2.9-.1,3.5.8,3.4,3.5q-.3,7.5,0,15c.1,2.1-.7,2.7-2.8,2.7H295.7c-5.8.1-9.5,4.5-8.1,9.4.9,3.4,3.6,5.5,7.5,5.5h23.2c2.5-.1,3.4.5,3.4,3.2-.1,25.6-.1,51.1,0,76.7,0,2.6-.6,3.4-3.3,3.3-8.5-.1-17-.2-25.4.1-3.3.1-3.4-1.3-3.5-3.9-1.1-15.6-8.5-27.3-22.8-33.7s-27.3-4.5-39.3,4.8c-9.5,7.4-14.3,17.5-14.7,29.4-.1,2.6-.6,3.4-3.3,3.4H111c-1.7,0-3.3.3-3.3-2.5.2-17.9.2-35.9.2-53.8,2-1.8,4.5-1.3,6.8-1.3H245.2c8.7,0,8,.5,8-7.8V54.7c0-1.3-.1-2.5,0-3.7.2-2.8-.9-4.3-3.9-4.1-1.3.1-2.7,0-4.1,0H114.7C112.4,46.9,109.9,47.4,107.9,45.7Z" style="fill:#fefefe"/><path d="M107.9,45.7H249.7c4.8,0,4.8,0,4.8,4.9,0,40-.1,80,0,120,.1,3.6-.8,4.6-4.5,4.6H107.9c0-6.1-.1-12.2-.1-18.3V49.7C107.8,48.4,107.9,47,107.9,45.7Z" style="fill:#e4ff55"/><path d="M92.8,204.8c-15-17-36.3-17.5-50.3-8.4-11.2,7.3-17.4,17.7-17.9,31.1-.1,3.2-.8,4.6-4.2,4H18.2c-2.6.4-3.3-.6-3.3-3.2.1-18.9.1-37.9.1-56.8v-5.3c.1-4.7,2-6.7,6.9-6.7H61.5c9.3,0,18.7.1,28-.1,2.5,0,3.4.4,3.4,3.2C92.8,176.4,92.8,190.2,92.8,204.8Z" style="fill:#fefefe"/><path d="M36.7,144.5c5.1-20.4,10.2-40.4,15.2-60.4.5-1.9,1.4-2.4,3.3-2.4H90c2.3,0,2.9.7,2.9,3-.1,19-.1,38.1,0,57.1,0,1.6,0,2.8-2.3,2.8Z" style="fill:#e4ff55"/><path d="M251,253a23.8,23.8,0,1,1,23.6-23.6A23.7,23.7,0,0,1,251,253Z" style="fill:#e4ff55"/><path d="M86.3,229.4a23.5,23.5,0,1,1-23.5-23.9A23.6,23.6,0,0,1,86.3,229.4Z" style="fill:#e4ff55"/><path d="M175.7,134.6c-.9,2.2-1.6,3.9-2.4,5.6-2,4.3-5.9,6-9.7,4.4s-5.9-5.7-4.1-10.1c3.4-8.3,6.9-16.5,10.7-25.5-7.2,2.8-13.7,2.6-19.3-2.2a19.2,19.2,0,0,1-6.7-12.5c-1.5-10.1,4.5-19.6,13.8-21.9s17.1,3,21.3,14.6c1.1-2.7,2.1-5,3.1-7.3,2.1-4.4,6-6.2,10-4.6s5.6,5.8,3.8,10.4c-3.1,7.6-6.3,15.1-9.5,22.7-.4,1-.7,2-1.2,3.1,14.2-2.3,22,1.9,24.9,13s-2.5,20.5-11.5,23.7S181.4,146.8,175.7,134.6Z" style="fill:#255e61"/><path d="M164.7,91.4c-.4,1.9-.6,4.2-2.8,4.3s-2.9-2.4-3-4.3.5-4.3,2.7-4.3S164.3,89.5,164.7,91.4Z" style="fill:#abe6f6"/><path d="M196.1,129.4c-.1,2-.4,4.4-2.9,4.4s-2.6-2.3-2.6-4.2.3-4.4,2.8-4.4S195.9,127.5,196.1,129.4Z" style="fill:#aeeaf8"/></g></g></svg>