<svg xmlns="http://www.w3.org/2000/svg" viewBox="0 0 383.1 239.4"><g id="Layer_2" data-name="Layer 2"><g id="Layer_1-2" data-name="Layer 1"><path d="M383.1,204.3c-2.1,4-5.4,5.5-10.1,5.3s-11.9,0-17.9-.1c-2-.1-2.8.5-3.4,2.4-5.2,17.1-18.6,27.4-35.8,27.4s-30.7-10.2-36.1-27.5c-.6-1.9-1.5-2.3-3.4-2.3H166.8c-2.4,0-3.1.9-3.7,3-4.1,14.1-13.7,22.7-27.7,25.9s-26.2-.5-35.9-11.3c-1.8-2-2.6-2-4.4,0-9.7,10.8-21.9,14.5-35.9,11.3s-23.8-11.9-27.8-26.2c-.6-2.1-1.5-2.7-3.6-2.6H8.4c-5.5,0-8.4-2.9-8.4-8.3V90.8c0-5.6,2.9-8.4,8.6-8.5H40.4a5.4,5.4,0,0,1,3.9-1.1c40.6,0,81.1-.2,121.7.1,16.2-.2,32.4-.1,48.6-.1,5.6,0,5.7-.1,5.7-5.6V21.3c0-5-.2-5.1-5.3-5.1H117.4c-5.2,0-5.4.1-5.4,5.4-.1,7.2,0,14.5-.1,21.7,0,1.8.2,3.7-.9,5.4a21,21,0,0,1-15.2-.2V8.9c0-6.1,2.8-8.9,8.9-8.9H227.4c6.3,0,9.1,2.8,9.1,9.1,0,23.1.1,46.1-.1,69.2-.1,3.5,1.1,4.3,4.3,4.1a56.8,56.8,0,0,1,10.1,0c2.8.2,3.8-.5,3.7-3.6-.2-8.3-.1-16.7-.1-25,.1-6.1,2.8-8.9,9-8.9h64.3c5.7,0,9.1,3,9,7.7s-3.3,7.2-9,7.3H324c-1.8,1.3-3.8,1-5.8,1-14,.1-28.1,0-42.2,0-5.3.1-5.4.2-5.4,5.5v39.2c0,5.1.2,5.3,5.2,5.3h55.6c2.1,0,4.3-.3,6.2,1.1h21.6c12.3.1,20.3,6.3,23.4,18.3l.5.4Z" style="fill:#255e61"/><path d="M95.8,48.5h14.9c1.5-1.2,3.3-1.1,5-1.1H161c5.5,0,6.3.9,6.3,6.3.1,7.8.1,15.7,0,23.5,0,1.8.2,3.6-1.2,5H40.4c0-9.9.2-19.7-.1-29.6-.1-3.4,1.1-4.1,4.3-4C61.6,48.7,78.7,48.6,95.8,48.5Z" style="fill:#e4ff55"/><path d="M337.6,112.1l-65.8.2c-2.2,0-2.4-.8-2.4-2.6V62.6c0-1.7-.1-2.8,2.2-2.8L324,60c4.4,16.8,8.8,33.5,13.3,50.3Z" style="fill:#e4ff55"/><path d="M134.7,164.6H18.7c-3.1,0-3.8-.7-3.8-3.8q.2-30.2,0-60.3c0-2.8.7-3.6,3.5-3.4a69.8,69.8,0,0,0,11.2,0c3-.2,3.5.9,3.4,3.6-.2,5.9-.1,11.9-.1,17.9s2.9,8.4,7.5,8.5,7.4-3.2,7.5-8.4.1-12.7,0-19.1c-.1-1.9.5-2.5,2.5-2.5h43c2,0,2.5.7,2.4,2.6-.1,6.2,0,12.5,0,18.7s2.9,8.7,7.6,8.7,7.3-3.3,7.3-8.6.1-12.4,0-18.7c0-2,.5-2.7,2.7-2.7H156c2.2,0,2.7.7,2.7,2.7-.1,6.3-.1,12.5,0,18.7s2.8,8.5,7.3,8.6,7.6-3.2,7.6-8.7.1-12.5,0-18.7c-.1-1.9.4-2.6,2.4-2.6h43c2,0,2.6.5,2.6,2.5-.2,6.4-.1,12.7-.1,19.1s3,8.4,7.5,8.4,7.4-3.2,7.5-8.5.1-12.2-.1-18.3c0-2.3.4-3.3,3-3.2a107.6,107.6,0,0,0,12.7,0c1.8,0,2.4.5,2.4,2.3-.1,21-.1,41.9,0,62.9,0,2.6-1.5,2.2-3.1,2.2H134.7Z" style="fill:#255e61"/><path d="M166.1,82.2c0-9.9-.1-19.7.1-29.6.1-3.4-1-4.1-4.2-4-17.1.1-34.2,0-51.3-.1,0-10,.1-20.1,0-30.2,0-2.5.4-3.4,3.2-3.4H218.5c2.6,0,3.1.8,3.1,3.1q-.2,30.8-.1,61.3c0,1.7.4,3.1-2.3,3.1C201.5,82.2,183.8,82.2,166.1,82.2Z" style="fill:#fefefe"/><path d="M318.8,164.6H272.4c-2.5,0-3.1-.7-3.1-3.1.2-10.5.2-21,0-31.4,0-2.6.8-3,3.2-3h86.8c6.1,0,8.8,2.8,8.9,9,0,8.4-.1,16.9,0,25.4.1,2.4-.5,3.1-3,3.1Z" style="fill:#255e61"/><path d="M285.6,179.8c-2.8,4.3-5,8.4-6,13.1a1.9,1.9,0,0,1-2.4,1.7H167.3c-2.6,0-3.7-.6-4.3-3.2s-3.1-7.8-5.6-11.6Z" style="fill:#fefefe"/><path d="M67.4,224.5a22.5,22.5,0,0,1-22.5-22.2,22.5,22.5,0,1,1,44.9-.1A22.5,22.5,0,0,1,67.4,224.5Z" style="fill:#e4ff55"/><path d="M315.5,224.5A22.4,22.4,0,0,1,293.4,202a22.1,22.1,0,0,1,22.7-22.3c12.7.2,22.2,10.1,22.1,22.8A22.5,22.5,0,0,1,315.5,224.5Z" style="fill:#e4ff55"/><path d="M127,224.5a22.5,22.5,0,0,1,0-44.9c12.8.1,22.6,9.8,22.6,22.4S139.8,224.4,127,224.5Z" style="fill:#e4ff55"/><path d="M37.3,179.6c-2.9,4.5-5.2,8.8-6.3,13.5-.3,1.6-1.4,1.5-2.5,1.5H17.3c-1.7,0-2.5-.4-2.4-2.3.4-4.1-1.6-9.4.9-12.1s7.3-.6,11.1-.6Z" style="fill:#fefefe"/><path d="M67.5,209.5a7.4,7.4,0,0,1-7.6-7.5,7.5,7.5,0,0,1,14.9-.3A7.5,7.5,0,0,1,67.5,209.5Z" style="fill:#255e61"/><path d="M127.1,209.5a7.4,7.4,0,0,1-7.3-7.7,7.5,7.5,0,1,1,7.3,7.7Z" style="fill:#255e61"/></g></g></svg>