<svg xmlns="http://www.w3.org/2000/svg" viewBox="0 0 260.9 383.1"><g id="Layer_2" data-name="Layer 2"><g id="Layer_1-2" data-name="Layer 1"><path d="M47.5,71.1c1.2-1.3.6-2.9.6-4.3.1-22.3.1-44.5.1-66.8H165.7V71.1c1.8,2.4,1,5.2,1.1,7.9s.1,4.7,0,7c.2,12.3,0,24.7.1,37,0,4.9,0,4.8,4.9,5.4,1.3.1,3.5-.6,3.5,2s-3.3,1-5.1,1H43.1c-1.7,0-3.5.2-5.1-.8s1.3-1.9,2.3-2.2,4.6.7,6-1.1.7-4.6.7-6.9c0-11.3.2-22.6-.2-33.9C47.6,81.4,46.5,76.2,47.5,71.1Z" style="fill:#e4ff55"/><path d="M165.7,86.1v-15h23.2c14.9.1,24.4,9.6,24.5,24.7q0,47.1-.1,94.2c0,3.2.6,4.2,4,4.2,6.8-.2,13.7-.8,20.5.9,15.4,4.1,24.8,18.1,22.9,34.3-1.7,14.6-14.9,26.3-30.1,26.5-4.6.1-9.3.2-13.9,0-2.9-.2-3.4.8-3.4,3.5.1,32.7.1,65.3.1,98,0,16.5-9.2,25.7-25.6,25.7H25.1C9.3,383.1,0,373.9,0,358V96.3C0,80.4,9.2,71.1,25,71.1H47.5a62.7,62.7,0,0,1,0,15c-1.5,1.4-3.3,1-5,1.1-5.8,0-11.5-.1-17.2,0s-8.9,2.2-8.9,8.7V358.5c0,6.4,2.2,8.5,9.1,8.5H185.2a40.1,40.1,0,0,0,4.9-.1c4-.5,6.3-2.5,7.1-6.5a26.3,26.3,0,0,0,.3-4.9V262.8c0-5.6-.1-5.7-5.6-5.8-9.1,0-18.2.1-27.3,0-3.2,0-5.5.9-7.4,3.5-11.5,16-27.6,23.9-46.9,24.7-15.8.8-30-4.7-41.8-15.4-25.7-23.2-27.2-62-2.9-86.9a60,60,0,0,1,84.6-1.4,69.4,69.4,0,0,1,7.2,8.1,6.9,6.9,0,0,0,6,3.1h29.9c3.1,0,4.2-1.2,4.2-4.2-.1-30.6,0-61.1-.1-91.7,0-7-2.8-9.5-9.9-9.6-5.6-.1-11.2,0-16.8,0C168.9,87.2,167.1,87.3,165.7,86.1Z" style="fill:#255e61"/><path d="M165.7,86.1h23.2c6.4,0,9.5,2.9,9.5,9.3v95.7c.1,2.3-.5,3-2.9,3h-34c-2.1,0-3-1-4.1-2.5-15-20.4-35.3-29.2-60.1-24.4S57,187.5,51.1,212c-8.3,34.1,16.3,68.5,51.3,71.7,23.1,2.1,41.5-6.6,55.1-25.5a4.6,4.6,0,0,1,4.2-2.3h33.6c2.5-.1,3.2.6,3.2,3.1-.1,33.3-.1,66.5-.1,99.8,0,6.4-3.1,9.3-9.5,9.3H24.4c-6.6,0-9.4-2.7-9.4-9.3V95.5c0-6.6,2.8-9.4,9.3-9.4H47.5a7.3,7.3,0,0,1,.7,3.6c0,12.1-.1,24.1,0,36.2.1,2.8-.8,3.6-3.6,3.5s-4.7-.7-6.9.7c-.2,1.3-1.3,2-2.1,3-3.2,3.8-1.9,8.4,2.8,10.1a16.8,16.8,0,0,0,5.9.8H169.1a17,17,0,0,0,5.5-.7c5-1.6,6.3-6.4,3-10.3-.8-.9-1.9-1.7-2.2-2.9-1.8-1.4-3.9-.8-5.8-.7s-4.1-.6-4-3.8C165.8,112.4,165.7,99.2,165.7,86.1Z" style="fill:#255e61"/><path d="M175.4,130.1c4.5,2.2,6.2,5,5.3,9s-3.8,5.7-8.5,5.7H41.4c-4.9,0-8.1-2.1-8.8-5.9s.8-6.5,5.1-8.8C83.6,129.7,129.5,129.8,175.4,130.1Z" style="fill:#fff"/><path d="M193.1,241c-11.8,0-23.6.1-35.5-.1-5.1-.1-8.2,1.6-10.8,6.2a43.7,43.7,0,0,1-46.4,21.3,44.4,44.4,0,0,1-35.6-37.6C62,210,74.5,190.2,94.6,183.2a43.9,43.9,0,0,1,52,19.4c2.7,4.8,6,6.5,11.3,6.5,23.6-.2,47.2-.1,70.7-.1,10.6,0,17.8,7.1,17.4,16.7a15.7,15.7,0,0,1-15.8,15.2Z" style="fill:#e4ff55"/><path d="M114.1,326.8v11.6c-.1,4.6-3.2,7.8-7.3,7.9s-7.6-3.3-7.6-7.9c-.1-8-.2-15.9,0-23.9a7.4,7.4,0,0,1,7.4-7.7c4.2,0,7.3,3.2,7.5,7.7S114.1,322.7,114.1,326.8Z" style="fill:#255e61"/></g></g></svg>