<svg xmlns="http://www.w3.org/2000/svg" viewBox="0 0 321.6 273.3"><g id="Layer_2" data-name="Layer 2"><g id="Layer_1-2" data-name="Layer 1"><path d="M13,88.8H48.9c-.1.6.2,1.2-.4,2-.3-2-1.6-1.4-2.7-1.4h-30C14.8,89.4,13.8,89.7,13,88.8Z" style="fill:#9db6d8"/><path d="M136.8,88.9h35.9c-.8.9-1.9.5-2.8.5H140c-1.1,0-2.6-.7-2.7,1.5A2.4,2.4,0,0,1,136.8,88.9Z" style="fill:#9db6d8"/><path d="M177,47.1v-4h.2v4Z" style="fill:#9db6d8"/><path d="M88.6,47.2V43.1A5.8,5.8,0,0,1,88.6,47.2Z" style="fill:#9db6d8"/><path d="M174.8,155.4,173,158l-4.7,4.6c-4,3.9-7.5,9.8-12.2,10.9s-8.7-5.2-12.9-8.3a5.9,5.9,0,0,0-7.8-.2,47.5,47.5,0,0,1-16.5,7.1c-4.6,1.1-5.9,3.5-6.3,7.5-1.8,13.7-1.8,13.7-15.4,13.7s-13.9,0-15.7-13.8c-.6-4.3-2.2-6.5-6.7-7.4a45.6,45.6,0,0,1-15.4-6.5c-3.5-2.6-6.4-2.1-9.8.5C38,175,38,174.8,27.8,164.6s-9.3-9-1.3-19c3.5-4.3,4.6-7.6,1.1-12.4A26.7,26.7,0,0,1,22.8,122c-.9-8.5-6.5-9.8-13.2-10.3C-.2,110.6,0,110.4,0,100.9V92.6c0-9.6-.2-10,9.6-10.7s12.4-3,13.6-11a15.1,15.1,0,0,1,2.9-7.7c5.8-7.1,3.5-12.8-2-18.4s-5.4-9.2.9-13.3a39.7,39.7,0,0,0,4.1-4.1c11.3-10.5,6.8-9.8,19.4-.9,4.1,2.9,7.1,4.1,11.3,1.3a43.6,43.6,0,0,1,15-6.1c4.7-1,6.1-3.7,6.7-8C83.2,0,83.2,0,97,0s13.8,0,15.6,14.1c.4,3.9,1.7,6.5,6.3,7.4a55.8,55.8,0,0,1,16.5,7c3.3,1.9,5.7,1.3,8.7-.9,14.4-10.4,9.4-10.9,21.8.9,9.1,8.9,9.3,9.3,1.7,19.1-3.5,4.6-4.4,8.3-.9,13.5a23.7,23.7,0,0,1,4.4,10.6c1.1,7.6,5.8,9.8,12.2,10h2.1c8.7,1.3,8.9,1.3,8.7,10.2-.2,5.9,2.2,12.7-1.1,17s-10.4,3-15.9,3.7-3.9,2.2-4.5,4.6a59.2,59.2,0,0,1-7.6,18.4c-2,3.1-1.1,5,.8,7.4Z" style="fill:#255e61"/><path d="M90.1,198.1a61,61,0,0,1,19.9,4.2c2.9,1.2,4.1,2.6,2.4,5.9s-2,8.1-4.5,9.9-6.5-2.1-9.9-2.8c-5.5-1-10.7-2.1-16.1-.6-2.6.8-4.9,2.1-5,5.1s2.1,4.6,4.5,5.2c7,2,14.3,3.5,21.3,5.9,14,4.7,18.6,18.8,10.4,30.5a25.8,25.8,0,0,1-13.8,9c-13.8,3.7-27.2,1.8-40.2-3.7-3.3-1.4-4-3.2-2.1-6.4s2.4-8,5-9.6,6.1,2.3,9.4,3.2c5.9,1.7,11.7,3.2,17.8,2.3,3.3-.4,7.4-.8,7.7-5.2s-3.6-5-6.6-6l-13-3.3a56.6,56.6,0,0,1-8.8-2.9c-6.7-2.9-11.1-7.7-11.8-15.4a20.3,20.3,0,0,1,8.8-19.2C71,200.2,78.7,198.2,90.1,198.1Z" style="fill:#255e61;stroke:#255e61;stroke-miterlimit:10;stroke-width:2px"/><path d="M180,92.2a1.8,1.8,0,0,1-1.7.6H161.4a1.8,1.8,0,0,1-1.7-.6C166.5,92,173.3,92,180,92.2Z" style="fill:#255e61"/><path d="M154,210.7a1.8,1.8,0,0,1,1.7-1h18.5c.5,0,1,.5,1.5.7Z" style="fill:#2dc8e9"/><path d="M138.2,93.4c-3.8-1.3-7.9.1-11.7-1.1l10.1-.2C137.4,92.1,138.1,92.3,138.2,93.4Z" style="fill:#2ec8ee"/><path d="M96.7,153.2a56.2,56.2,0,0,1-56.3-56v-.5c.2-34.3,27.9-56.5,57-56.3s56.1,22,56.1,56.5A55.9,55.9,0,0,1,98,153.2Z" style="fill:#e4ff55"/><path d="M96.7,137.6A40.8,40.8,0,0,1,55.6,97.2v-.7c0-22.8,18.5-40.9,42-40.8a41.1,41.1,0,0,1,40.7,41C138.2,120.4,118.5,138.9,96.7,137.6Z" style="fill:#255e61"/><path d="M96.7,113a16.8,16.8,0,1,1,.4,0Z" style="fill:#e4ff55"/><path d="M168.8,201.9l21.3,47.3c2.7,6.1,5.2,12.2,8.1,18.3,1.3,2.7.4,3.5-2.4,3.1h-2.2c-10.1,1.6-18.3.2-20.1-12-.1-1.1-1-1.5-1.8-2-9.6-.7-19.2-1.2-28.8.4a58,58,0,0,0-2.8,7.3c-1.2,5.5-4.6,7.3-10.1,6.5s-10,1.8-12-1.2,2.5-7.3,4.2-11.2c8.1-18.5,16.2-37.1,24.6-55.7.3-.9.5-2.1,1.7-2.6,5,.8,10.1.3,15.1.3C165.6,200.5,167.3,200.6,168.8,201.9Z" style="fill:#255e61;stroke:#255e61;stroke-miterlimit:10;stroke-width:2px"/><path d="M206,270.4c-1.3-.7-.9-1.9-.9-2.8V202.9c0-1.1-.4-2.3.9-2.9a258.4,258.4,0,0,0,35.2,0c19.7-.2,32.7,16.4,26.9,34.3-3.3,10.1-12.9,16.8-25.5,17.6-4.5.3-9.1.3-13.8.2-2.6-.2-3.4.8-3.5,3.4-.2,4.9,1.1,10.1-.8,14.9-1-2.9,0-6.1-.6-9.4.2.1.2.1.2.6,0,8.4,0,8.4-8.7,8.4s-9,0-9-8.9c0-17.8.2-35.6,0-53.3-.1-3.6.8-4.8,4.5-4.7,7.5.3,14.8,0,23,.2-.2,0-1.2-.8-.8-.3s-.2.3-.4.3H212.3c-5.9-.2-5.9,0-5.9,5.5v57.1C206.4,267.3,206.8,268.9,206,270.4Z" style="fill:#255e61;stroke:#255e61;stroke-miterlimit:10;stroke-width:2px"/><path d="M227.2,227.4c0-8.5,0-8.5,10.4-7.5,4.9.5,7.6,3.7,7.2,8.5a6.6,6.6,0,0,1-4.4,6.1,15,15,0,0,1-5.2.9C227.2,235.5,227.2,235.5,227.2,227.4Z" style="fill:#fff;stroke:#255e61;stroke-miterlimit:10;stroke-width:2px"/><path d="M158.3,222.7c2.2,5.5,4,10.1,5.9,14.7.8,1.8.2,2.2-1.6,2.1H154c-2.8,0-2.5-.3-1.7-2.1C154.3,232.8,156.1,228.2,158.3,222.7Z" style="fill:#fff;stroke:#255e61;stroke-miterlimit:10;stroke-width:2px"/><path d="M197.6,64l24.6,3c-.1.4,0,.9-.5,1.3,0-1.3-1-1.1-1.7-1.2l-20.5-2.5C198.8,64.5,198.1,64.7,197.6,64Z" style="fill:#9db6d8"/><path d="M282.3,74.5l24.5,3c-.6.6-1.3.2-1.9.1l-20.5-2.5c-.7-.1-1.7-.7-1.9.8A1.9,1.9,0,0,1,282.3,74.5Z" style="fill:#9db6d8"/><path d="M302.7,123.2l-1.5,1.6-3.5,2.7c-3.1,2.4-6.1,6.1-9.3,6.5s-5.5-4.3-8.2-6.8a4,4,0,0,0-5.3-.8,30.8,30.8,0,0,1-11.8,3.4c-3.3.4-4.4,1.9-5,4.7-2.4,9.2-2.4,9.2-11.7,8.1s-9.5-1.2-9.6-10.8c0-3-.9-4.7-3.9-5.7a30.2,30.2,0,0,1-10-5.7c-2.2-2.1-4.2-1.9-6.7-.5-8.8,5.1-8.7,5-14.9-2.8s-5.5-7,.8-13.2c2.7-2.6,3.8-4.8,1.8-8.4a18.6,18.6,0,0,1-2.4-8c.1-5.9-3.6-7.2-8.1-8.2-6.6-1.6-6.5-1.7-5.7-8.1l.7-5.7c.8-6.6.7-6.9,7.5-6.6s8.7-.9,10.2-6.3a10.6,10.6,0,0,1,2.7-5.1c4.5-4.3,3.4-8.4.1-12.7s-2.9-6.8,1.8-9l3.1-2.5c8.6-6.2,5.5-6.1,13.4,1,2.5,2.4,4.4,3.4,7.6,1.9a30.9,30.9,0,0,1,10.8-2.9c3.2-.3,4.5-2.1,5.2-4.9,2.3-9.3,2.3-9.3,11.8-8.1s9.4,1.2,9.5,11c-.1,2.6.5,4.5,3.6,5.5a37.3,37.3,0,0,1,10.7,6.3c2.1,1.5,3.8,1.3,6.1.1,10.7-5.9,7.3-6.7,14.8,2.4,5.5,6.9,5.6,7.1-.4,13.2-2.8,2.9-3.8,5.3-1.8,9.2a16.6,16.6,0,0,1,2.1,7.6c.2,5.3,3.1,7.2,7.6,7.8l1.3.2c5.9,1.6,6,1.7,5.1,7.7-.6,4.1.5,9-2.2,11.6s-7.3,1.1-11.2,1.2-2.8,1.2-3.4,2.8a42.4,42.4,0,0,1-6.7,11.9c-1.7,2-1.2,3.3-.1,5.1Z" style="fill:#255e61"/><path d="M249.4,115a38.6,38.6,0,0,1-33.8-43,.4.4,0,0,0,.1-.3c3-23.5,23.9-36.3,43.8-33.7S296,57.8,293.1,81.3a38.6,38.6,0,0,1-42.8,33.9Z" style="fill:#e4ff55"/><path d="M250.8,104.4A28.2,28.2,0,0,1,226,73.3a.7.7,0,0,0,.1-.5c1.9-15.6,16.1-26.4,32.2-24.3a28.3,28.3,0,0,1,24.4,31.4C280.6,96.1,265.6,107.1,250.8,104.4Z" style="fill:#255e61"/><path d="M252.8,87.6a13.5,13.5,0,1,1,.3,0Z" style="fill:#e4ff55"/></g></g></svg>