<svg xmlns="http://www.w3.org/2000/svg" viewBox="0 0 481.39 511.8"><defs><style>.cls-1{fill:#255e61;}.cls-2{fill:#fefefe;}.cls-3{fill:#e4ff55;}</style></defs><g id="Layer_2" data-name="Layer 2"><g id="Layer_1-2" data-name="Layer 1"><path class="cls-1" d="M388.14,511.8H21.31C7.24,508.47.5,500.11.06,485.45c0-1.84,0-3.67,0-5.5Q0,255.9,0,31.85c0-5.18-.09-10.39,1.64-15.32C4.93,7.22,10.78.77,21.31,0H332.17c9.32.33,16.15,5.57,22.33,11.73C368.89,26.06,384,39.6,398.72,53.62c7.32,7,10.54,15.22,10.58,24.91.2,42.31.12,84.62.05,126.94,0,2.33,0,4.7-1.74,6.6-5.15,3.34-18.24,3-22.43-.61-1.87-3.05-1.3-6.47-1.31-9.75-.06-38-.31-76,.16-113.94.11-9.44-3-16.17-9.95-22.08-10.4-8.83-20.2-18.34-29.89-27.95-3.92-3.88-8.27-7.24-12.3-11-1.94-1.8-4.34-3.64-7.17-2.42s-2.19,4.24-2.2,6.64c-.06,25.83,0,51.65,0,77.47a80.16,80.16,0,0,1-.22,8.49A11.27,11.27,0,0,1,312.18,127a76,76,0,0,1-8,.22c-66.3,0-132.59-.15-198.89.12-14.36.06-18.67-3.81-18.44-18.38.4-25.82.13-51.64.1-77.46,0-8.52-.69-9.21-9-9.22-14,0-28-.08-42,0-8.59.06-10.29,1.74-10.31,10.25-.07,26.82,0,53.64,0,80.46q0,181.17,0,362.33c0,13.63.46,14.1,14,14.11,7,0,14,.14,21-.07,4.95-.14,6.19-1.38,6.31-6.34.2-7.82.07-15.66.07-23.49V329.16a83.42,83.42,0,0,1,.25-9.49A11.28,11.28,0,0,1,77,309.82a64.52,64.52,0,0,1,8-.25q107.43,0,214.88.05c3.72,0,7.72-1,11.08,1.74a35.47,35.47,0,0,1,0,22c-1.36,1.49-3.2,1.62-5,1.73-3,.17-6,.13-9,.13H107.07c-2,0-4,0-6,0-7.43.1-8.45,1-8.46,8.36q-.06,68.71,0,137.43c0,7.47,1,8.47,8.32,8.48q103.68,0,207.38,0c7.59,0,8.51-1,8.52-8.79,0-29.81,0-59.63,0-89.45,0-3.32-.26-6.67.59-9.94,2.07-3.32,4.16-1.8,6,.18,2.22,2.46,4,5.3,6.06,7.87,2.53,3.11,5.76,5.47,8.88,7.92,1.6,1.25,3.14,2.48,3.31,4.71a38.16,38.16,0,0,1,.82,9.41q0,34.65,0,69.29c0,8.17.65,8.79,8.8,8.82,7.64,0,15.29.12,22.93-.05,7.41-.17,9.5-2.23,9.57-9.61.14-15.95,0-31.9.07-47.85,0-2.8-.32-5.66.86-8.36,1.57-2.18,3.74-2.1,5.74-1,4.06,2.17,7.85,1.87,11.8-.26,2-1.06,4.15-1.16,5.95.69,1.3,1.74,1.14,3.8,1.15,5.77.09,18.13.28,36.27-.07,54.4-.18,9-2.07,17.34-9.41,23.83C396.31,510.18,392.17,510.52,388.14,511.8Z"/><path class="cls-2" d="M310.41,311.88H80c-7.43,0-10.74,3.35-10.74,10.87q0,82,.1,163.93c0,4-.75,5.39-5.07,5.24-10.65-.35-21.32-.09-32-.12-7.05,0-9-2.05-9-9.1V28.91c0-6.81,2-8.89,8.72-8.9,17.66-.05,35.32.09,53-.11,3.54,0,4.38.93,4.37,4.41-.15,30-.09,60-.08,90,0,7.16,3.42,10.68,10.43,10.68H309.61c7.12,0,10.55-3.43,10.56-10.62q0-44.73,0-89.46c0-3.06-.77-5.09,4.47-4.25,7.46,1.19,11.4,6.57,16.08,10.73,14,12.46,27.29,25.75,41,38.57a13.81,13.81,0,0,1,4.5,10.89q-.1,62.47,0,125c0,1.83.1,3.66.15,5.49-.94,3.33-3.8,2.8-6.16,2.86q-13.25.33-26.48,0c-4.59-.11-6.81,1.5-8,6.09-3.54,13.5-12.43,22-25.78,25.93-5.92,1.73-6.35,2.1-6.37,8.26-.08,16.82.08,33.64-.12,50.46C313.34,307.45,314.36,310.82,310.41,311.88Z"/><path class="cls-1" d="M319.33,379.53c-.05,35.47-.2,70.94,0,106.41,0,4.7-.91,6-5.85,6q-108.91-.29-217.83,0c-4.33,0-5.46-.92-5.44-5.37q.27-74.44,0-148.9c0-4,1.07-4.86,4.92-4.86q104.67.18,209.34.09c2,0,4-.06,6-.09,2.9.56,3,2.94,2.87,5A78.49,78.49,0,0,0,319.84,374C320.66,375.85,321.09,377.84,319.33,379.53Z"/><path class="cls-3" d="M319.33,379.53a7.1,7.1,0,0,0-.36-2.44c-7-12.8-8.56-26.65-8-40.93a16,16,0,0,0-.57-3.38l0-20.9c1-1.69.62-3.56.62-5.36,0-18.6.1-37.21,0-55.82,0-3.78.36-5.56,5-6.16,15.21-1.95,26.33-13.75,28.12-29.2.35-3,1.53-3.42,4.06-3.4,11.13.09,22.26.07,33.38,0,1.59,0,3.34.6,4.76-.71a63.78,63.78,0,0,0,20.68,0c1.43,1.3,3.18.69,4.77.7,10.81.06,21.63.09,32.45,0,2.58,0,3.65.5,4,3.45,1.87,15.84,13.49,27.58,29.26,29.35,3.54.4,3.87,1.78,3.86,4.64-.06,32,.29,63.92-.14,95.87-.38,28.29-14.1,48.52-39.34,61-11.6,5.74-23.83,10.13-35.23,16.3a4.4,4.4,0,0,0-.92.36c-6.55,4.61-13,4.33-19.47-.24-3,1.32-5.56-.23-8-1.38-9.86-4.62-19.87-8.9-29.8-13.35-3.33-1.49-6.58-3.19-8-6.93a54.4,54.4,0,0,1-17.66-17.25A44.11,44.11,0,0,0,319.33,379.53Z"/><path class="cls-1" d="M204.2,104c-29.8,0-59.59-.08-89.39.09-3.76,0-4.66-.93-4.63-4.65q.27-37.45,0-74.91c0-3.83,1.06-4.59,4.7-4.58q89.9.18,179.78,0c3.75,0,4.65.93,4.63,4.65q-.27,37.46,0,74.91c0,3.83-1,4.6-4.69,4.59C264.46,103.89,234.33,104,204.2,104Z"/><path class="cls-2" d="M340.41,401c13.24,7.27,27.31,12.79,41,19.08,1.64.76,3.2,1.72,4.8,2.58q0,29.71-.08,59.42c0,6.95-2.56,9.67-9.37,9.71-11,.07-22,0-33,0-2.13,0-3.73.14-3.71-3C340.29,459.57,340.33,430.29,340.41,401Z"/><path class="cls-3" d="M205.24,378.85h68.43c6.78,0,11.59,4.47,11.52,10.66-.06,5.87-4.93,10.32-11.36,10.32q-69.18,0-138.37,0c-6.94,0-11.26-4.17-11.19-10.66.06-6.23,4.37-10.31,11-10.32Q170.28,378.83,205.24,378.85Z"/><path class="cls-3" d="M204.13,444.83h-43c-7.18,0-10.77-3.23-10.91-9.78-.12-6.39,4.33-11.07,11-11.17,9.16-.14,18.32,0,27.48,0,19.65,0,39.31-.06,59,0,9.52.05,14.32,8.53,9.55,16.62-2.05,3.48-5.37,4.37-9.15,4.36Q226.11,444.8,204.13,444.83Z"/><path class="cls-1" d="M424.59,304.67c.29,5.54-3.93,8.91-6.52,12.95-4.89,7.63-10.46,14.81-15.5,22.35-4.79,7.17-11.24,8.2-17,2.87-5.46-5.08-10.85-10.23-16-15.58-2.9-3-2.54-8.45.32-11.8s8.72-4.2,12.14-1.71a67.83,67.83,0,0,1,6.41,5.45c2.17,2.06,3.63,2.2,5.46-.62,3.95-6.08,8.17-12,12.46-17.83,5.34-7.27,13.39-7.33,17.32-.37A9,9,0,0,1,424.59,304.67Z"/><path class="cls-3" d="M280.19,62.32c0,5,0,10,0,14.94,0,4.78-3.23,8.93-7.36,9.69-5.47,1-9.64-1-11.82-5.67-.67-1.46-1.64-3-1.62-4.54.15-10.53-1.34-21.13.84-31.59,1.13-5.44,5.43-7.83,12.34-7.16,4.15.4,7.59,4.61,7.62,9.39C280.21,52.36,280.19,57.34,280.19,62.32Z"/><path class="cls-3" d="M152.25,62.07c0,5,0,10,0,14.94,0,4.78-3.23,8.93-7.36,9.69-5.47,1-9.64-1-11.82-5.67-.67-1.46-1.64-3-1.62-4.53.15-10.54-1.33-21.13.84-31.6,1.13-5.43,5.43-7.82,12.34-7.16,4.15.4,7.59,4.62,7.62,9.39C152.28,52.11,152.25,57.09,152.25,62.07Z"/><path class="cls-3" d="M219.25,62.07c0,5,0,10,0,14.94,0,4.78-3.23,8.93-7.36,9.69-5.47,1-9.64-1-11.82-5.67-.67-1.46-1.64-3-1.62-4.53.15-10.54-1.33-21.13.84-31.6,1.13-5.43,5.43-7.82,12.34-7.16,4.15.4,7.59,4.62,7.62,9.39C219.28,52.11,219.25,57.09,219.25,62.07Z"/></g></g></svg>