<svg xmlns="http://www.w3.org/2000/svg" viewBox="0 0 336.4 280"><g id="Layer_2" data-name="Layer 2"><g id="Layer_1-2" data-name="Layer 1"><path d="M59.7,207.8c-24.4-6.1-42.4-20.4-52.8-43.4-19.8-43.7,4.6-94.6,52.2-106.2,2.6-.6,3.9-1.3,4.5-4.4C70.3,20.2,99.8-2.2,133.8.2a63.3,63.3,0,0,1,31.9,11.2c1.9,1.3,3,1.3,4.9,0,39.5-26.8,94-3.9,102.3,43.1.5,2.6,1.7,3.1,3.7,3.6,26.4,6.6,44.9,22.5,54.8,47.8,16.5,42.6-9.1,90.9-53.4,101.5l-1.4.4a4,4,0,0,1-1-3.2c-.1-3.9-.1-7.9,0-11.8A4.8,4.8,0,0,1,277,189c5.6-2.9,11.4-5.2,16.6-8.9,22.6-15.9,30.6-47.4,18.5-72.1-9.8-19.9-26.1-30.3-47.6-33.5-7.3-1.1-7.6.4-8.6-8.5s-2.9-17.7-8-25.5c-15.4-23.4-46-29-68.7-12.6l-8.3,6.3a3.9,3.9,0,0,1-5.4.1c-2.5-2.1-5.2-4-7.8-5.9-19.7-14.6-45.5-13-62.9,4.2-8.2,8-12.6,18.1-13.8,29.5-.3,2.6-.7,5.1-1,7.6s-1.6,3.9-4.3,4.3-7.1,1.2-10.6,1.9c-28.9,5.9-49.5,33.3-46.3,62.3,2.6,23.3,15.3,39.5,36.7,48.9a22.2,22.2,0,0,1,3.8,1.8,3.8,3.8,0,0,1,1.2,2.1,74.9,74.9,0,0,1,0,15.7A1.8,1.8,0,0,1,59.7,207.8Z" style="fill:#255e61"/><path d="M59.7,207.8c0-5.1,0-10.3.1-15.5,0-1.3-.2-2.5-1.4-3.2.5-28.2,0-56.4.2-84.5,0-2.1-.8-4.6,1.7-6,.7.7.5,1.6.5,2.4v85c0,.5.2,1.1-.1,1.3s.1-1.4.1-2.1V101.9c0-2-.3-4,1.8-5.3a2.5,2.5,0,0,1,1.2-.4c13.7.4,27.3.1,41,.1,2.2,0,4.4,1.3,6.6.3,2.1,3.5,1.4,7.3.7,10.9s-2.8,2.1-4.6,2.1H83.7c-9.9.1-8.8-1.1-8.8,8.7-.1,33.9,0,67.9,0,101.8,0,6.1,0,6.1,6.2,6.1H255.2c6.3,0,6.3,0,6.3-6.1V113.9c-.1-3.8-.4-4.2-4.3-4.2-9.2-.1-18.4,0-27.6,0-5.1-.1-5.9-.8-5.9-6,.1-2.4-.6-4.9,1.2-7,2.4.6,4.8-.4,7.2-.4,13.5,0,26.9.3,40.4-.1a1.9,1.9,0,0,1,1.2.4c1.6,1,1.9,2.5,1.9,4.2,0,28.5,0,56.9-.1,85.4,0,.6.5,1.5-.1,1.7a10.5,10.5,0,0,0,.2-3.2V102.5c0-1.2-.3-2.5.3-3.8,1.6.2,1.5,1.5,1.7,2.6a19.7,19.7,0,0,1,.2,4.2v67.2c0,5.5-.1,11,.2,16.4-1.3.7-1.5,1.9-1.5,3.2.1,5.2.1,10.4.1,15.5,0,11.1,0,22.2-.1,33.2,0,4.4-.9,5.4-5.2,5.4H65.1c-4.4,0-5.3-1-5.3-5.4C59.8,230,59.7,218.9,59.7,207.8Z" style="fill:#255e61"/><path d="M167.9,280c-18.5,0-37.1-.1-55.6,0a7.4,7.4,0,0,1-6.7-3.6,6.5,6.5,0,0,1,.1-7.3c1.6-2.4,3.9-3.2,6.6-3.2,9.8.1,19.6-.1,29.4.1,2.8.1,4.2-1,5.1-3.5s2-6,1.8-9.2.8-2.7,2.7-2.7h36.4c1.6,0,2.1.7,2.3,2.3,2,13.1,2,13,15,13h18.9c4.7,0,7.8,2.7,7.9,6.6s-3.3,7.3-8,7.4Z" style="fill:#255e61"/><path d="M60.4,98.7c-1.1,1.2-.6,2.7-.6,4,0,27.6,0,55.1-.1,82.7,0,1.3.9,3.2-1.3,3.7C15.8,174.9,3.7,120.8,36.2,89.9c10-9.5,22.1-14.3,35.6-16.3,6.7-1,6.9-1,7.7-7.7,1.2-11.2,4.2-21.6,11.6-30.6a48.7,48.7,0,0,1,66.6-8c2.9,2.1,5.9,4.2,8.7,6.5,1.3,1.1,2.2,1.1,3.6,0,5.8-4.3,11.4-9.1,18.3-12.1,28.6-12.6,61.8,5.1,67.3,35.9.7,3.9,1.1,7.8,1.6,11.7.2,2.3,1,3.3,3.5,3.7,10.5,1.6,20.9,3.6,30,9.7,20.2,13.3,30,32.3,27.5,56.2s-16.7,41.6-40.2,50.2c-2.3-.5-1.4-2.4-1.4-3.7-.1-27.6,0-55.1-.1-82.7,0-1.3.5-2.8-.6-4a14.6,14.6,0,0,0-2.8-2.1h-.7c-.7.6-1.5.4-2.3.4H227.6a3.9,3.9,0,0,1-2.1-.3c-1.4,3.4-.5,7-.5,10.6,0,1.9,1.9,1.2,3,1.2,10.3.1,20.6.2,30.8,0,3.1-.1,3.9.7,3.9,3.9q-.1,55.5,0,111.2c0,2.9-.6,3.9-3.8,3.9H77.4c-3.2,0-3.8-1-3.8-3.9q.2-55.6,0-111.2c0-3.2.9-4,3.9-3.9,10.3.2,20.5,0,30.8.1,2.4,0,3.5-.6,3.2-3.1s.7-6-.7-8.8a3.9,3.9,0,0,1-2.4.3H66.6a4.2,4.2,0,0,1-2.7-.4h-.7A18.6,18.6,0,0,0,60.4,98.7Z" style="fill:#e4ff55"/><path d="M263.9,112.3V223.7h-.3V112.1Z" style="fill:#9cb7da"/><path d="M72.9,112.3V223.7h-.3V112.1Z" style="fill:#9cb7da"/><path d="M60.4,98.7c.2-1.7,1.3-2.2,2.8-2.1-1.7,1.8-2.1,3.9-2.1,6.3.1,27.2,0,54.3,0,81.4,0,1.7-.2,3.5.8,5-2.1-.8-1.4-2.5-1.4-4Q60.4,142.1,60.4,98.7Z" style="fill:#9db6d8"/><path d="M273.1,96.6c1.5-.1,2.6.4,2.8,2.1-.1,30.2.1,60.5-.7,90.7.4-2.6,0-5.2,0-7.9q0-39.3.1-78.6A8.6,8.6,0,0,0,273.1,96.6Z" style="fill:#9db6d8"/><path d="M63.9,96.6h46.9c-.1.7.2,1.6-.6,2.6-.3-2.6-2.1-1.9-3.5-1.9H67.5C66.3,97.3,64.9,97.8,63.9,96.6Z" style="fill:#9db6d8"/><path d="M225.5,96.7h46.9c-1,1.2-2.4.7-3.6.7H229.7c-1.4,0-3.4-.9-3.5,1.9C225.3,98.3,225.6,97.4,225.5,96.7Z" style="fill:#9db6d8"/><path d="M60.8,242.3V212.5h.5v29.6Z" style="fill:#9bb6da"/><path d="M275.5,213v29.4h-.3V212.9Z" style="fill:#9bb6da"/><path d="M225.7,106.3V101h.3v5.3Z" style="fill:#9db6d8"/><path d="M110.3,106.4V101A7.7,7.7,0,0,1,110.3,106.4Z" style="fill:#9db6d8"/><path d="M210.2,132.9l-1,1.4-2.5,2.5c-2.2,2.1-4.1,5.3-6.6,5.9s-4.7-2.8-7-4.5a3.2,3.2,0,0,0-4.2-.1,25,25,0,0,1-8.9,3.8c-2.5.6-3.2,1.9-3.4,4.1-1,7.4-1,7.4-8.3,7.4s-7.5,0-8.5-7.5c-.3-2.3-1.2-3.5-3.6-4a23.4,23.4,0,0,1-8.3-3.5c-1.9-1.4-3.5-1.1-5.3.3-6.3,4.8-6.3,4.7-11.8-.8s-5-4.9-.7-10.3c1.9-2.3,2.5-4.1.6-6.7a14.7,14.7,0,0,1-2.6-6c-.5-4.6-3.5-5.3-7.1-5.6-5.3-.6-5.2-.7-5.2-5.8V99c0-5.2-.1-5.4,5.2-5.8s6.7-1.6,7.3-5.9a8.6,8.6,0,0,1,1.6-4.2c3.1-3.8,1.9-6.9-1.1-9.9s-2.9-5,.5-7.2a22.8,22.8,0,0,0,2.2-2.2c6.1-5.7,3.7-5.3,10.5-.5,2.2,1.6,3.8,2.2,6.1.7a23.9,23.9,0,0,1,8.1-3.3c2.5-.5,3.3-2,3.6-4.3.9-7.4.9-7.4,8.4-7.4s7.4,0,8.4,7.6c.2,2.1.9,3.5,3.4,4a30.3,30.3,0,0,1,8.9,3.8c1.8,1,3.1.7,4.7-.5,7.8-5.6,5.1-5.9,11.8.5,4.9,4.8,5,5,.9,10.3-1.9,2.5-2.4,4.5-.5,7.3a13.1,13.1,0,0,1,2.4,5.7c.6,4.1,3.1,5.3,6.6,5.4h1.1c4.7.7,4.8.7,4.7,5.5-.1,3.2,1.2,6.9-.6,9.2s-5.6,1.6-8.6,2-2.1,1.2-2.4,2.5a31.9,31.9,0,0,1-4.1,9.9c-1.1,1.7-.6,2.7.4,4Z" style="fill:#255e61"/><path d="M175.1,166.7l16.1,35.6c2,4.6,3.9,9.2,6.1,13.8,1,2.1.3,2.7-1.8,2.4h-1.7c-7.6,1.2-13.8.1-15.1-9.1-.1-.8-.8-1.1-1.4-1.5-7.2-.5-14.5-.9-21.7.3a36.6,36.6,0,0,0-2.1,5.5c-.9,4.2-3.5,5.5-7.6,4.9s-7.6,1.4-9.1-.9,1.9-5.5,3.2-8.4q9.1-21,18.5-42c.3-.7.4-1.6,1.3-2,3.8.6,7.6.2,11.4.2C172.7,165.6,174,165.7,175.1,166.7Z" style="fill:#255e61"/><path d="M115.8,163.8a44.5,44.5,0,0,1,15,3.2c2.2.9,3.1,1.9,1.8,4.4s-1.5,6.1-3.4,7.5-4.9-1.6-7.5-2.1c-4.1-.8-8-1.6-12.1-.5-2,.6-3.7,1.6-3.8,3.9s1.6,3.4,3.4,3.9c5.3,1.5,10.8,2.6,16.1,4.4,10.5,3.6,14,14.2,7.8,23a18.9,18.9,0,0,1-10.4,6.8c-10.4,2.8-20.5,1.4-30.3-2.8-2.5-1-3-2.4-1.6-4.8s1.8-6,3.8-7.2,4.6,1.7,7.1,2.4c4.4,1.3,8.8,2.4,13.4,1.7,2.5-.3,5.6-.6,5.8-3.9s-2.7-3.8-5-4.5l-9.8-2.5a46.4,46.4,0,0,1-6.6-2.2c-5.1-2.2-8.4-5.8-8.9-11.6a15.2,15.2,0,0,1,6.6-14.5C101.4,165.4,107.2,163.9,115.8,163.8Z" style="fill:#255e61"/><path d="M203.2,218.3c-1-.5-.7-1.4-.7-2.1V167.4c0-.8-.3-1.7.7-2.2a195.3,195.3,0,0,0,26.5,0c14.9-.1,24.7,12.4,20.3,25.9-2.5,7.6-9.7,12.7-19.2,13.3-3.4.2-6.9.2-10.4.1-2-.1-2.6.6-2.7,2.6-.1,3.7.9,7.6-.6,11.2-.7-2.2,0-4.6-.4-7.1.1.1.1.1.1.5,0,6.3,0,6.3-6.5,6.3s-6.8,0-6.8-6.7c0-13.4.1-26.8,0-40.2-.1-2.7.6-3.6,3.4-3.5,5.6.2,11.1,0,17.3.1-.1,0-.9-.6-.6-.2s-.1.2-.3.2H207.9c-4.4-.1-4.4,0-4.4,4.2v43C203.5,216,203.8,217.2,203.2,218.3Z" style="fill:#255e61"/><path d="M203.2,218.3c0-15.8,0-31.7-.1-47.5,0-2.8.8-3.6,3.6-3.5,6.5.1,13,0,19.5.7-6.3,0-12.5.2-18.7-.1-2.9,0-3.7.9-3.7,3.8q.1,21.3,0,42.6c0,2.6.7,3.7,3.3,3.4s6.5,1.2,8.5-.5.5-5.5.9-8.4a1,1,0,0,1,.6-.9v10.4A107.5,107.5,0,0,1,203.2,218.3Z" style="fill:#255e61"/><path d="M229.7,165.2c-.5.8-1.4.7-2.2.7H205.4c-.8,0-1.7.1-2.2-.7C212,164.9,220.9,164.9,229.7,165.2Z" style="fill:#255e61"/><path d="M155.6,208.2a1.6,1.6,0,0,1,1.7-1h18.5c.5,0,1,.5,1.5.7Z" style="fill:#2dc8e9"/><path d="M175.1,166.7c-5-1.7-10.3.2-15.3-1.4L173,165C174.1,165,175,165.3,175.1,166.7Z" style="fill:#2ec8ee"/><path d="M168,131.7a30.3,30.3,0,0,1-30.4-30.5c.1-18.5,15.1-30.5,30.8-30.4s30.3,11.9,30.3,30.5A30.2,30.2,0,0,1,168,131.7Z" style="fill:#fefefe"/><path d="M167,180c2.2,5.5,4,10.1,5.9,14.7.8,1.8.2,2.2-1.6,2.1s-5.8,0-8.6,0-2.5-.3-1.7-2.1C163,190.1,164.8,185.5,167,180Z" style="fill:#e4ff55"/><path d="M217.8,184.6c0-8.5,0-8.5,10.4-7.5,4.9.5,7.6,3.7,7.2,8.5a6.6,6.6,0,0,1-4.4,6.1,15.4,15.4,0,0,1-5.2.9C217.8,192.7,217.8,192.7,217.8,184.6Z" style="fill:#e4ff55"/><path d="M168,123.3a22,22,0,0,1-22.2-22.2c0-12.3,10-22.1,22.7-22a22.2,22.2,0,0,1,22,22.1C190.4,114,179.8,124,168,123.3Z" style="fill:#255e61"/><path d="M168,110a8.8,8.8,0,1,1,9.2-8.8A8.9,8.9,0,0,1,168,110Z" style="fill:#fefefe"/></g></g></svg>