<svg xmlns="http://www.w3.org/2000/svg" viewBox="0 0 383.99 367.43"><defs><style>.cls-1{fill:#255e61;}.cls-2{fill:#fefefe;}.cls-3{fill:#e4ff55;}</style></defs><g id="Layer_2" data-name="Layer 2"><g id="Layer_1-2" data-name="Layer 1"><path class="cls-1" d="M383.91,282.64v45.73c-1.62,13.32-10,20.25-22.2,23.68a22.85,22.85,0,0,1-6.33.52q-163.4,0-326.79,0c-10.36,0-18.1-4.67-24.49-12.36-2.91-3.49-3-7.83-4-11.88V282.64c.9-4.45,4-5.91,8.14-6.17,6.45-.4,6.61-.61,6.62-7.13q0-111.88,0-223.78c0-7.79,1.88-14.75,7-20.78,5.66-6.66,12.82-10.44,21.47-10.64,15.12-.35,30.24-.15,45.36-.08a7.39,7.39,0,0,1,5,1.35,25.91,25.91,0,0,1,.08,16.35c-2,1.69-4.45,1.43-6.79,1.44-12.87.06-25.74,0-38.61,0-10,0-14.2,4.17-14.21,14.12q0,111.14,0,222.27c0,6.23.55,6.76,6.93,6.77,29.86,0,59.72,0,89.58,0,3.12,0,6.3-.12,8.92,2.05,2.42,2,4.07,4.38,3.95,7.69,0,1,.05,2,.06,3,.09,8.19.11,8.22,8.11,8.22h81c1.25,0,2.5,0,3.75,0,2.78-.06,4.05-1.54,4.12-4.25.06-2.25,0-4.5.12-6.74.27-5.83,3.8-9.45,9.68-9.84,3.61-.24,7.24-.11,10.86-.11h79.84l4.5,0c2.9,0,4.43-1.33,4.46-4.29,0-1.38.05-2.75.05-4.13V49.43c0-1.37,0-2.74,0-4.12-.31-7.36-4.71-11.85-12.12-12-10.11-.22-20.24,0-30.36-.07-3.87,0-7.74,0-11.62,0-1.87,0-3.76-.07-5.35-1.31-2-5.42-1.68-10.87-.2-16.34,1.49-1.41,3.39-1.47,5.26-1.48,15-.07,30-.27,45,0,16.12.35,28.63,13.56,28.65,30.08q.11,111.27,0,222.54c0,1.87,0,3.75.06,5.62.1,2.55,1.36,3.91,3.94,4,.88,0,1.75.1,2.62.13C379.93,276.64,383,278.19,383.91,282.64Z"/><path class="cls-2" d="M.05,328.37c2.39,5.4,4.56,10.88,9.25,14.94,5.38,4.66,11.34,7.55,18.57,7.55q163,0,326,.15c13.71,0,26-9.15,29.26-21.59.13-.49.13-1,.76-1.05,0,12-.09,24,.08,36,0,2.58-.51,3.08-3.08,3.08q-179.75-.14-359.49-.08c-6.37,0-12.75-.08-19.12.06C.42,367.45,0,367,0,365.1.1,352.86.05,340.62.05,328.37Z"/><path class="cls-2" d="M291,31.51q23.8,0,47.61,0a12.89,12.89,0,0,1,13.09,13q0,115.08.09,230.14c0,3.15-1.06,3.56-3.79,3.55-32-.08-64,.05-96-.14-5.48,0-10.77,3.61-9.86,10,.38,2.69-.08,5.5.11,8.23.16,2.27-.48,3-2.86,2.95-7.25-.17-14.49-.06-21.74-.06-24.12,0-48.23-.06-72.35.08-3,0-3.87-.84-3.61-3.72.24-2.72.05-5.49.05-8.24,0-5.92-3.12-9.09-9.05-9.1-13.49,0-27,0-40.48,0-18.75,0-37.49-.05-56.23.06-2.73,0-3.79-.42-3.78-3.56q.15-115.06.08-230.14a12.9,12.9,0,0,1,13.1-13q23.8,0,47.6,0a3,3,0,0,1,1.57,2.78,180.09,180.09,0,0,1,0,19.44,3.36,3.36,0,0,1-.87,2c-1.76,1.51-3.93,1.41-6,1.43-8.37.08-16.74,0-25.11.06-6,.08-8,2.06-8.18,8.16,0,1.38,0,2.75,0,4.13q0,87.69,0,175.39c0,2.49-.23,5,.43,7.46.9,3.33,3.53,5.24,6.59,4.89s4.84-2.4,5.14-5.93c.18-2.11.1-4.24.1-6.37q0-82.81,0-165.64c0-10.58,0-10.59,10.63-10.6,3.62,0,7.25,0,10.87,0a9.71,9.71,0,0,1,5.08,1c2.07,1.7,1.57,4.1,1.58,6.27.08,21.61,0,43.21,0,64.82,0,2.49,0,5,0,7.49.21,7.57,4.35,11.77,12,11.82,19.86.12,39.72,0,59.57.07,14.29.09,10.05-1.45,20.1,8.33,5.62,5.46,5.51,5.46,11.22-.1,9.9-9.63,5.79-8.14,19.76-8.23,19.11-.11,38.22,0,57.33,0,10.9,0,14.47-3.62,14.49-14.66,0-23,0-46,0-68.94,0-2.29-.55-4.81,1.41-6.74a7.27,7.27,0,0,1,3.93-1.05c5.87-.12,11.75-.22,17.62,0,3.76.17,4.81,1.31,5.09,5,.18,2.36.11,4.74.11,7.11q0,82.28,0,164.54a58.65,58.65,0,0,0,.14,6.36,5.52,5.52,0,0,0,4.91,5.33,5.92,5.92,0,0,0,6.49-4,13.31,13.31,0,0,0,.7-5.16q.06-90.88,0-181.77c0-7.29-1.86-9.06-9.13-9.11-8,0-16,0-24,0-2.11,0-4.28.09-6.1-1.33a4.22,4.22,0,0,1-1.09-3.06c-.23-5.93-.21-11.87,0-17.8C289.38,33.63,289.54,32.26,291,31.51Z"/><path class="cls-1" d="M291,70.48q0,39,0,78c0,8.49-5,13.5-13.42,13.5-22.36,0-44.72,0-67.09,0a8.08,8.08,0,0,0-6.58,2.72c-3.12,3.4-6.56,6.51-9.73,9.87-1.58,1.67-2.72,1.63-4.29,0-3.17-3.36-6.61-6.47-9.74-9.87a8.09,8.09,0,0,0-6.58-2.7c-22.36.09-44.73.06-67.09,0-8.42,0-13.39-5-13.4-13.48q0-39,0-77.95c-2.42-3.4-2.42-11.64,0-15q0-12,0-23.95V15.74c-.3-5.63.73-10.65,6-13.95A11.52,11.52,0,0,1,105.32,0Q192,0,278.65,0c7,0,12.17,5.29,12.29,12.35,0,1.13,0,2.25,0,3.37q0,7.89,0,15.77,0,12,0,24C293.38,58.87,293.38,67.09,291,70.48Z"/><path class="cls-3" d="M192,335.12c-54.1,0-108.2-.11-162.29.14-6.59,0-13.48-6.37-14.12-12.67-.89-8.59-.11-17.15-.62-25.7-.15-2.51.71-3.07,3.11-3.06,20.87.09,41.73.05,62.59.05,13.75,0,27.49.15,41.23-.1,3.61-.06,4.41,1.12,4.13,4.36a84.23,84.23,0,0,0,0,9c.09,5,2.87,7.74,7.8,7.74H250c5.14,0,7.89-2.77,7.94-8,0-3.5.12-7,0-10.49-.09-2,.55-2.55,2.52-2.52,6.62.12,13.24,0,19.86,0,28.24,0,56.48.08,84.71-.09,3.44,0,4.11,1,4,4.14-.25,6.48.1,13-.12,19.48s-1.23,12.42-7.56,16a12.75,12.75,0,0,1-6.62,1.67Q273.36,335.1,192,335.12Z"/><path class="cls-1" d="M93,55.46v15c-7.12,0-14.24.14-21.35-.1-2.9-.1-3.44.81-3.44,3.53q.14,71,.07,142c0,11.74-.25,23.48.11,35.21.16,5.15-3.37,8.21-7.76,8.28s-7.88-3.38-8.09-8.18c0-.63,0-1.25,0-1.88V64.66c0-6.72,2.42-9.18,9-9.18Z"/><path class="cls-1" d="M291,70.48v-15h31.85c6.06,0,8.6,2.59,8.6,8.82V184.54q0,33,0,65.93c0,6.92-5.51,10.72-11.62,8.13-3-1.26-4.16-3.51-4.14-6.73.07-16,0-32,0-48q0-64.8.07-129.6c0-3-.56-4.06-3.8-3.93C305,70.67,298,70.48,291,70.48Z"/><path class="cls-1" d="M191.74,220.41H141.56c-4.89,0-8.66-3.23-8.79-7.51-.15-4.58,3.73-8.22,8.89-8.22q50.37,0,100.74,0c5,0,8.81,3.38,8.76,7.95,0,4.4-4.34,8-8.86,7.92C225.45,220.21,208.6,220.41,191.74,220.41Z"/><path class="cls-3" d="M199.49,88.19a7.51,7.51,0,0,1-15-.28,7.51,7.51,0,0,1,15,.28Z"/><path class="cls-3" d="M157.18,88.08a7.43,7.43,0,1,1-14.85-.41,7.35,7.35,0,0,1,7.6-7.12A7.56,7.56,0,0,1,157.18,88.08Z"/><path class="cls-3" d="M226.8,87.52a7.54,7.54,0,0,1,7.83-7,7.34,7.34,0,0,1,7,8.06,7.43,7.43,0,0,1-14.81-1.11Z"/></g></g></svg>