<svg xmlns="http://www.w3.org/2000/svg" viewBox="0 0 383.5 383.5"><g id="Layer_2" data-name="Layer 2"><g id="Layer_1-2" data-name="Layer 1"><path d="M25.1,0H284c5.5,1.8,6.7,3.5,6.7,9.9.1,33.1,0,66.1,0,99.1v70.7c0,7.3.1,7.3,7.2,7.3h11.5c7.7.1,11.2,3.6,11.2,11.3q.1,35.5.1,71.1c0,7.4,0,7.4,7.3,7.4h25.1c9.2,0,12.4,3.2,12.5,12.3v71.5c0,5.9.1,5.9,6.1,6a28.4,28.4,0,0,1,4.1.1c4.8.4,6.4,1.9,7.7,7.4v3.7c-1.7,5.1-2.4,5.6-8.1,5.6H8.8c-6.6-.1-8.6-1.7-8.8-7.4s2.6-9.1,8.5-9.5a54.2,54.2,0,0,1,5.7,0c3,.1,4.2-1.4,4.1-4.3s0-3.3,0-4.9V9.2C18.5,3.5,19.7,1.7,25.1,0Z" style="fill:#255e61"/><path d="M251.8,188.4H224.1c-7.3.1-9.7,2.5-9.7,10,0,25.4-.1,50.8.1,76.2,0,3-.8,3.8-3.7,3.7-10.6-.2-21.2-.1-31.8-.1-6.9,0-9.5,2.6-9.5,9.5v77c0,2.4-.3,3.4-3.1,3.4H57.2a5.1,5.1,0,0,1-1.5-3.7V46c0-10,.2-10.1,10-10.1H244.1c8.8,0,9.2.4,9.2,9.3,0,45.5.1,91,0,136.5C253.3,184,253.9,186.6,251.8,188.4Z" style="fill:#e4ff55"/><path d="M251.8,188.4V42.2c0-4.8,0-4.8-4.9-4.8H62.1c-4.8,0-4.9,0-4.9,4.9V368c-6.7,0-13.4,0-20.2.2-1.8,0-2.5-.6-2.2-2.4a10.8,10.8,0,0,0,0-1.8q0-172.5-.1-344.9c0-3.4.8-4.2,4.2-4.2H270.1c3.3,0,4.2.7,4.2,4.2q-.2,82.8,0,165.7c0,3.1-.6,4-3.8,3.8C264.3,188.3,258,188.5,251.8,188.4Z" style="fill:#fefefe"/><path d="M304.2,240.9c0,11.5-.1,22.9,0,34.4.1,2.4-.5,3.1-3,3.1H232.4c-2.3,0-3.1-.4-3.1-3,.1-22.9.1-45.9,0-68.8,0-2.2.3-3.4,3-3.1s9.2-1.6,11.4.8.6,7.3.6,11.1v24.3c.1,7.3,5.6,11.1,11.8,7.2s13.8-4.8,21.3,0,11.8.1,11.8-7.5c0-10.9.1-21.9,0-32.9-.1-2.3.5-3.2,3-3s8.9-1.3,11.2.6.7,7.2.7,11C304.3,223.7,304.2,232.3,304.2,240.9Z" style="fill:#fefefe"/><path d="M259.3,330.8c0,11.4-.1,22.9,0,34.3.1,2.5-.7,3.1-3.1,3.1H187.5c-2.5,0-3.1-.7-3.1-3.1q.2-34.4,0-68.8c0-2.3.5-3.3,3-3s9.2-1.7,11.4.8.6,7.3.6,11.2v24.3c.1,7.2,5.7,11,11.8,7.1s13.9-4.7,21.3,0,11.8.1,11.8-7.2c0-11.1.1-22.2-.1-33.2,0-2.6.8-3.2,3.2-3.1a72.2,72.2,0,0,0,9.3,0c2.2-.1,2.6.8,2.6,2.8C259.2,307.6,259.3,319.2,259.3,330.8Z" style="fill:#fefefe"/><path d="M349.1,330.8c0,11.4-.1,22.9,0,34.3.1,2.6-.7,3.1-3.1,3.1H277.2c-2.4,0-3-.7-3-3.1q.2-34.4,0-68.8c0-2.4.5-3.2,3-3.1s8.9-1.2,11.2.7.7,7.2.8,11c.1,8.2,0,16.4,0,24.7s5.7,11,11.8,7.1,13.9-4.7,21.3,0,11.8.1,11.8-7.2c0-10.9.1-21.9-.1-32.9,0-2.9.8-3.6,3.5-3.4a41.2,41.2,0,0,0,8.6,0c2.6-.2,3,.9,3,3.2C349,307.8,349.1,319.3,349.1,330.8Z" style="fill:#fefefe"/><path d="M274.2,229c-5-3.7-9.8-3.8-14.9,0V205.3c0-1.3.3-1.8,1.6-1.8h11.6c1.3,0,1.8.3,1.8,1.7C274.2,212.9,274.2,220.6,274.2,229Z" style="fill:#e4ff55"/><path d="M229.3,318.9c-5.1-4-9.8-3.8-14.9,0V294.8c0-1.1.4-1.6,1.5-1.5h.8c4.1.1,9.3-1.4,11.9.6s.6,7.5.7,11.4S229.3,313.8,229.3,318.9Z" style="fill:#e4ff55"/><path d="M319.1,318.9c-5.1-3.9-9.8-3.9-14.9,0V294.8c-.1-1.4.7-1.5,1.8-1.5h11.2c1.9-.1,2,.8,2,2.2C319.1,303,319.1,310.5,319.1,318.9Z" style="fill:#e4ff55"/><path d="M120.8,211a22.4,22.4,0,1,1-44.8-.4,22.4,22.4,0,0,1,22.6-22C110.9,188.7,121,198.9,120.8,211Z" style="fill:#255e61"/><path d="M98.5,218.5a7.7,7.7,0,0,1-7.6-7.2,7.5,7.5,0,1,1,15-.2A7.7,7.7,0,0,1,98.5,218.5Z" style="fill:#fff"/></g></g></svg>