<svg xmlns="http://www.w3.org/2000/svg" viewBox="0 0 494 511.81"><defs><style>.cls-1{fill:#fefefe;}.cls-2{fill:#255e61;}.cls-3{fill:#e4ff55;}.cls-4{fill:#fff;}</style></defs><g id="Layer_2" data-name="Layer 2"><g id="Layer_1-2" data-name="Layer 1"><path class="cls-1" d="M137,0H357c.07,2.14-1.78,2.17-3.06,2.6-20.54,6.88-29.5,22.13-30.47,42.78-.5,10.76-.93,21.65,3.28,32,1.28,3.14-.4,4.93-2.62,6.72-13.81,11.09-22.1,25.43-25.2,42.84-1,5.61-.32,11.28-.59,16.91-.11,2.26.33,4.8-2.38,6.08a19.14,19.14,0,0,1-6.43.63q-42.4,0-84.8,0a21.39,21.39,0,0,1-6.43-.55c-3-1.28-2.46-4-2.56-6.44-.24-6.3.35-12.62-1-18.9-3.48-16.22-11.38-29.75-24.34-40.13-3.28-2.62-3.8-5-2.58-9,4.66-15,4.24-30.34.17-45.3-3.7-13.6-13.21-22.38-26.42-27.2C139.85,2.44,137.37,2.72,137,0Z"/><path class="cls-1" d="M302,511.81H192c6.27-10.93,3.47-22.86,3.27-34.35-.16-9.19-3.86-17.76-8.4-25.82a66.55,66.55,0,0,0-15.91-19c-3.47-2.84-4.43-5.78-2.9-10A49.88,49.88,0,0,0,170.7,406c0-2.25-.33-4.78,2.3-6.13,2.42-.85,4.93-.67,7.41-.67h133c2.49,0,5-.18,7.41.59,2.92,1.35,2.44,4.09,2.48,6.5A50.54,50.54,0,0,0,326,423c1.46,4.06.38,6.86-2.88,9.57a67.15,67.15,0,0,0-24.08,41.89c-1.58,9.71-.54,19.57-.55,29.37C298.5,507,302.19,508.56,302,511.81Z"/><path class="cls-2" d="M172.07,400.85c.23,8.55-.2,17-3.62,25-1,2.38.33,3.48,1.73,4.53C185.48,441.88,194,457.6,196.73,476c1.44,9.59.41,19.58.19,29.38-.06,3-3.64,3.95-4.9,6.39h-130c-5-4-6.11-9.34-6.07-15.45.08-13.2.8-26.29,6.3-38.51,4.82-10.71,11.54-20.09,21.21-27.11,1.41-1,3.4-2.26,2.34-4.41-4-8.11-3.85-16.8-3.86-25.48-1.49-13.9.81-26.77,9.68-38.11,14.93-19.08,47.47-21.66,65.4-5.32C170.07,369.27,173.74,384.07,172.07,400.85Z"/><path class="cls-2" d="M302,511.81c-4.59-3.56-5.32-8.31-5.11-13.87.48-12.07-.73-24.19,3.95-35.91,5-12.42,11.72-23.29,22.66-31.28,1.94-1.42,2.91-2.83,1.68-5.79-3.18-7.66-3.48-15.89-3.23-24.11-1.56-16.16,1.66-30.6,13.92-42.38,22.57-21.69,62.23-12.9,73.36,16.36,3.24,8.5,3.56,17.16,2.8,26,0,8.65.24,17.34-3.83,25.4-1,1.95.55,3.14,1.85,4.1,15.17,11.25,23.72,26.69,26.64,44.91,1.5,9.42,2.5,19.16.44,28.89-.76,3.62-3.68,5-5.18,7.66Z"/><path class="cls-2" d="M137,0c8.72,3.09,17.21,6.53,23.43,13.9A46.66,46.66,0,0,1,171.16,38c1,6.94.63,13.84.88,20.76a42.62,42.62,0,0,1-3.37,18.58c-1.37,3.12,0,4.16,1.73,5.48,12.81,10,20.71,22.94,24.9,38.6,2.45,9.18,1.3,18.35,1.68,27.53-6.53,2.92-13.28,1.5-20,1-3-1.63-2.27-4.58-2.26-7.1.06-7.18.06-14.31-2.73-21.12a50.16,50.16,0,0,0-14.72-20.39c-2.24-1.83-4.16-2-6.75-.47-15.42,8.86-31.09,8.57-46.6.37-3.41-1.8-5.65-1.58-8.39.86-12,10.7-16.56,24.51-17.18,40.07-.11,2.69.89,5.79-2.15,7.72-6.74.62-13.51,2.06-20.08-.92-.6-18.14,2.24-35.4,12.88-50.68C73.09,92.39,77.6,87,83.53,82.88c2-1.35,3-2.76,1.72-5.76a37.54,37.54,0,0,1-3.18-15.61c.15-11.61-1-23.29,3.43-34.55C90.92,13.11,101.23,5.09,115.1,1c.75-.22,1.68.07,2-1Z"/><path class="cls-2" d="M297,148.92c-.19-12-.87-24,4-35.43,5-11.67,11.27-22.43,21.92-30,2.57-1.82,3.53-3.56,2.2-7.14-4.4-11.82-3.44-24.07-2.34-36.4a44.39,44.39,0,0,1,14.29-29.6C342.74,5,349.94,2.7,357,0h20c8.73,3.09,16.94,6.82,23.53,13.83a38.69,38.69,0,0,1,10.23,20.71c2.05,13,3,26.33-1,39.15-1.66,5.43-.69,8,3.64,11.54,13.07,10.84,20.5,25.39,23.32,42a79.72,79.72,0,0,1,1.17,21.73c-6.53,2.94-13.27,1.5-20,1-2.83-1.47-2.19-4.21-2.28-6.6a69.17,69.17,0,0,0-3.86-22,48.61,48.61,0,0,0-14-19.74c-2.31-2-4.39-2.12-7.19-.63-15.83,8.45-31.75,8.84-47.48-.29-2.92-1.7-5.11-.77-7.2,1.11-9.77,8.82-15.86,19.54-16.6,32.91-.19,3.32.05,6.65-.08,10-.08,2,.08,4.09-2.14,5.21C310.37,150.45,303.59,151.89,297,148.92Z"/><path class="cls-3" d="M297,148.92h20.89c1.94-1.65,4.32-1.58,6.64-1.58q42.9,0,85.79,0c2.32,0,4.7-.09,6.63,1.59h20.9c17,0,33.95.11,50.93,0,3.69,0,5.21.66,5.2,4.87q-.19,121.09,0,242.19c0,4-1.21,5-5.08,5-25.63-.15-51.27-.08-76.9-.08-1.74-3.29-.66-6.84-.88-10.25-1.08-16.85-8.07-30.22-23.48-37.86-15.65-7.77-31.37-6.82-46,2.78-12.15,8-17.48,20-18.73,34.16-.33,3.72,1.07,7.6-1,11.17H172.07c-2.14-5.53-.62-11.39-1.7-17.11-4-20.92-20.81-35.59-41.87-35.89-22.58-.32-40.06,13.2-44.56,34.35a71.72,71.72,0,0,0-1.14,13.39c0,1.77.62,3.69-.81,5.26-25.63,0-51.27-.07-76.9.09-3.88,0-5.09-1-5.08-5q.17-121.1,0-242.19c0-4.21,1.52-4.9,5.2-4.87,17,.14,34,0,50.94,0H77c1.93-1.68,4.31-1.58,6.63-1.59q42.9,0,85.79,0c2.33,0,4.7-.07,6.64,1.58H297Z"/><path class="cls-1" d="M126.51,491.82c-15.13,0-30.27-.1-45.41.08-3.25,0-4.3-.83-4.09-4.12,1.11-16.94,7-31.35,21.16-41.66,1.46-1.07,2-1.15,3.68-.13,16.72,10.5,33.59,10.45,50.34.06,1.55-1,2.15-1.16,3.67,0,13.86,10.72,21,24.54,20.25,42.28-.12,2.89-1,3.55-3.69,3.53C157.12,491.76,141.81,491.82,126.51,491.82Z"/><path class="cls-1" d="M103,400.59c.13-6.91-.16-13.1,2.75-19.26,4.32-9.14,15.4-14.4,23.14-13.38,9.51,1.25,18,6.72,20.69,17.3a59.77,59.77,0,0,1-.63,32.08c-2.65,8.75-13.76,16.54-22.64,15.4-11.59-1.48-19.57-6.75-22.4-19C102.88,409.15,103.33,404.6,103,400.59Z"/><path class="cls-1" d="M367.26,491.82c-15.13,0-30.27-.07-45.41.07-2.93,0-3.87-.57-4-3.77-.62-17.55,6.38-31.24,20.08-41.88,1.68-1.31,2.3-1.1,4.05,0,16.58,10.17,33.34,10.17,49.92,0,1.75-1.07,2.37-1.22,4.05,0,11.62,8.67,18.32,20.08,20,34.48.41,3.55,2.72,8.11.3,10.36s-7.29.69-11.07.72C392.55,491.87,379.91,491.82,367.26,491.82Z"/><path class="cls-1" d="M391,399.8c-.08,6.67.18,13.25-2.82,19.68-4.73,10.13-15.45,13.57-22.23,13.22-10.58-.55-19.56-7.71-21.63-17.47-2.22-10.46-2.64-21.13.69-31.57,3-9.37,12.93-16.46,22.87-15.71,11.17.84,18.93,7.36,22.12,17.65C391.4,390.27,390.83,395.05,391,399.8Z"/><path class="cls-1" d="M176.09,148.91H77c-.24-11.4.7-22.6,6-32.95A50.19,50.19,0,0,1,98.2,98.17c1.74-1.27,2.56-.52,3.77.24,16.3,10.14,32.76,10.25,49.19.45,2.23-1.33,3.18-1.79,5.64.12A50.3,50.3,0,0,1,175.54,129C176.93,135.56,175.68,142.29,176.09,148.91Z"/><path class="cls-1" d="M103.07,53.39c0-8.42-.37-15.75,4.38-22.56,5.33-7.64,12.74-11.23,21.2-10.54,10.12.82,18.31,6.38,20.88,16.87a61.49,61.49,0,0,1-.36,31.55C146.35,78.8,135,85.57,125.09,85c-9.22-.52-18.65-8.85-21.14-18.3C102.69,61.92,103.44,57.2,103.07,53.39Z"/><path class="cls-1" d="M417,148.92H317.91c.4-9.46-1-19,3-28.2s9.18-16.89,17.41-22.52c1.27-.87,2.16-.8,3.74.18,16.61,10.27,33.34,10.34,50,0,1.32-.82,2.37-1.2,4.11.14,11.68,8.91,18.1,20.51,19.91,35.1C416.73,138.77,416.72,143.83,417,148.92Z"/><path class="cls-1" d="M391,51.89c-.17,6.92.22,13.28-2.74,19.63-3.82,8.2-15.18,14.71-23.16,13.4-10.08-1.66-17.72-6.2-20.63-17.35A57.1,57.1,0,0,1,344.92,36c3.52-11.41,14.17-16,22.72-15.88,10.56.09,20,8.4,22.4,18C391.25,42.85,390.65,47.58,391,51.89Z"/><path class="cls-2" d="M245.89,352.28a74.12,74.12,0,0,1-33.29-7.94,9.28,9.28,0,0,0-7.6-.69c-4.58,1.47-9.28,2.59-14,3.73-12.57,3.05-22.89-6.89-19-19.18,3.43-11,3-20.62-.89-31.86-18.5-53.29,27.13-109.51,83.27-103.68,55.25,5.74,88.64,62.55,65.23,112.82C305.33,336.14,279.34,350.73,245.89,352.28Z"/><path class="cls-4" d="M193.21,326.09a37.67,37.67,0,0,1,1.21-5.08c3.45-8.55,2.15-16-2-24.55-17.35-35.71,7.94-79.18,48-83.76,27.83-3.17,53.92,13.1,62.58,39,9.33,27.94-.75,57.95-25,71.73-19.52,11.1-39.83,12-59.95,1.1-4.4-2.37-8.5-3.3-13.28-1.67C201.28,324.12,197.56,324.92,193.21,326.09Z"/><path class="cls-2" d="M247,262c-8,0-16,.08-24,0-6.82-.09-10.8-3.68-10.94-9.57s4.3-10.32,10.93-10.37q24-.21,47.91,0c6.62.05,11.07,4.5,10.94,10.35s-4.11,9.5-10.93,9.59C263,262.11,255,262,247,262Z"/><path class="cls-2" d="M234.5,302c-4.32,0-8.66.21-13-.06-5.58-.33-9.08-3.88-9.43-9a9.67,9.67,0,0,1,8.45-10.55c4.75-.63,9.62-.32,14.43-.37,3.83,0,7.66-.16,11.47.05,6.32.35,10.57,4.7,10.44,10.37s-4,9.34-10.43,9.63c-4,.18-8,0-12,0Z"/></g></g></svg>