<svg xmlns="http://www.w3.org/2000/svg" viewBox="0 0 512 512"><defs><style>.cls-1{fill:#fefefe;}.cls-2{fill:#255e61;}.cls-3{fill:#e4ff55;}</style></defs><g id="Layer_2" data-name="Layer 2"><g id="Layer_1-2" data-name="Layer 1"><path class="cls-1" d="M.08,407.94V104.06c3,.53,2.42,3.24,2.83,5.09a89.29,89.29,0,0,0,20,39.67c10.9,12.54,24.14,21.61,40,26.1,33.67,9.56,64.27,3.22,89.68-21.22,16.78-16.12,25.73-36.42,26.17-60.2.38-19.92-4.12-38.4-15.4-54.83C149,17.74,128.68,6.19,103.74,2.43,102,2.17,99.56,3,99.05.09Q303.23.09,507.41,0c3.74,0,4.6.84,4.59,4.59q-.19,118.71-.1,237.41c-3-.53-2.41-3.24-2.83-5.09A88.82,88.82,0,0,0,490,198.36c-13.68-16.17-30.9-26.44-51.66-29.85-27.27-4.48-52.24,1.13-73.86,19.28-17.24,14.47-28,32.87-30.61,55-6.19,51.74,25.24,94.89,76.62,101,24,2.86,46-2.29,65.65-16.57,15.47-11.28,25.62-26.42,30.8-44.85,1-3.53,1.8-7.1,2.6-10.68.32-1.44-.16-3.59,2.37-3.67q0,120,.1,239.91c0,3.42-.67,4.09-4.09,4.09q-204.43-.17-408.86-.09c.3-2.75,2.59-2.06,4.19-2.3,27.85-4.15,49.57-17.67,63.81-42.24,7.56-13,11-27.28,11.73-42.38,1.12-25-7.06-46.66-24.08-64.58-15.81-16.65-35.46-26.07-58.76-27.15-14.86-.68-29.22,1.07-42.82,7.5C28,352.61,11.59,371.73,4,398.48,3.06,401.72,3.93,405.86.08,407.94Z"/><path class="cls-2" d="M99.05.09c6.14,1.83,12.6,2,18.74,4,34.14,11,54.19,34.65,61,69.24,3.83,19.48,1.67,38.88-7.47,56.91a92.26,92.26,0,0,1-36.23,38.42c-17.6,10.39-36.7,13.15-56.35,11.15-18-1.82-34-9.23-47.85-21.29A89.57,89.57,0,0,1,3.8,117.34C2.4,113,1.31,108.49.08,104.06v-26C1.35,62,6.53,47.2,16.5,34.46,32.54,14,52.94,1.24,79.71.6A2,2,0,0,0,81.05.09Z"/><path class="cls-2" d="M511.9,268c-2.38,8-3.72,16.21-6.9,24a83.59,83.59,0,0,1-36.06,41.49,90.85,90.85,0,0,1-52.61,12.37c-37.73-2.3-72-26.19-81.51-66.59-5.2-22-4-43.17,5.93-63.46,7.9-16.11,19.86-28.57,35.37-37.92,17.82-10.73,37.21-13.65,57.23-11.63,17.59,1.77,33.39,8.91,47,20.62a92.48,92.48,0,0,1,21.21,26.21A85.59,85.59,0,0,1,510.9,240c.13.79-.08,1.7,1,2Z"/><path class="cls-2" d="M.08,407.94C1.42,403,2.41,398,4.15,393.26c12.18-33.12,35.32-53.84,70.25-60.18,19.28-3.5,38.29-1.41,55.88,7.7,26.7,13.83,43.66,35.46,48.63,65.34,4.5,27.09-1.44,52.27-18.66,73.76-13,16.18-30.41,26-50.93,30.18-3.42.7-7.13-.22-10.27,1.85h-18c-7.86-.91-15.74-1.29-23.33-4.18-29.13-11.07-48-31.28-55.93-61.58-1-4-.72-8.21-1.71-12.22Z"/><path class="cls-1" d="M81.05.09c-5.76,2-11.89,2-17.77,3.82C28.49,14.45,8.9,38.4,1.1,73.09c-.37,1.65,1,3.67-1,5C.08,53.15.14,28.24,0,3.33,0,.55.57,0,3.32,0,29.23.15,55.14.09,81.05.09Z"/><path class="cls-3" d="M362.4,50.08c40.3,0,80.6.26,120.89-.21,8.86-.11,19.23,10,18.81,18.66-.71,14.45-.18,29-.2,43.45a18.29,18.29,0,0,1-18,18.06q-121.91,0-243.8,0A18.27,18.27,0,0,1,222,112.1q0-22,0-44a18.31,18.31,0,0,1,18-18.06Z"/><path class="cls-3" d="M149.52,296c-40.3,0-80.6-.26-120.9.21-8.74.1-19.18-10-18.74-18.73.72-14.45.18-29,.2-43.45a18.31,18.31,0,0,1,18.06-18q121.91,0,243.8,0a18.31,18.31,0,0,1,18,18q0,22,0,44a18.3,18.3,0,0,1-18.05,18Z"/><path class="cls-3" d="M362,382c40.46,0,80.93.26,121.39-.2,8.73-.1,19.18,10,18.74,18.72-.72,14.46-.18,29-.2,43.46a18.31,18.31,0,0,1-18,18H240.05a18.32,18.32,0,0,1-18-18q0-22,0-44a18.31,18.31,0,0,1,18.06-18Z"/><path class="cls-1" d="M143.48,132.84c-2.36-10.87-7.37-20.59-16.11-27.67-4.56-3.68-2.7-7.54-2.18-11.44,1.66-12.69,2.31-25.38-4.31-36.87-5.87-10.22-15.07-16-27.11-16.8s-22.63,2.2-30.93,11.66A34.11,34.11,0,0,0,54.24,73c-.41,8.65-1.32,17.49,1.73,26a3.49,3.49,0,0,1-1.25,4C46,110.82,39.41,120,37,131.78c-.5,2.41-2,.84-2.63-.12-5.56-8.42-10.46-17.2-12.23-27.28-3.66-20.88.52-40,13.67-56.79C48.39,31.5,64.69,22.17,85.59,21,102,20,116.7,23.83,129.91,33.47c14.75,10.77,24.26,25.24,28,43,4.18,20-.16,38.58-12.12,55.27A2,2,0,0,1,143.48,132.84Z"/><path class="cls-1" d="M89.71,159c-9.26.77-18.41-1.44-27.16-5.21-7-3-7.69-4.29-6.41-11.9,1.46-8.68,5.17-16.36,11.89-22.36,1.2-1.07,1.85-1.54,3.69-.54,11.92,6.44,24,7.1,36.05.14,1.38-.8,2.61-1.32,4.25.27,8.13,8,12.39,17.35,12.11,28.84-.06,2.41-1.39,3-3,3.78A60.52,60.52,0,0,1,89.71,159Z"/><path class="cls-1" d="M75.06,81c.27-3.15-.48-6.74.93-10.3,2.2-5.55,10.27-11.37,15.1-10.53C98.74,61.45,104.79,67.81,105,75c.14,4.48.18,9,0,13.45-.34,7.68-7.61,14.66-15,14.63S75.45,96,75.07,88.34C75,86,75.06,83.69,75.06,81Z"/><path class="cls-1" d="M475.3,298.78c-2.14-10.21-6.55-19.39-14.5-26.13-4.7-4-4.55-8-3.76-13.26,1.95-13.12,2.34-26.31-5.16-38.09a31.77,31.77,0,0,0-24-15.17c-12.78-1.38-24.45,1.23-33.31,11.7a35.32,35.32,0,0,0-8.51,22.35c-.24,8.34-1.08,16.81,1.83,25,.85,2.4-1.11,3.62-2.53,4.91-8.59,7.84-14.47,17.25-16.81,28.75-12.35-7.17-19.94-40.14-13.26-61.3,10.8-34.17,37.61-51.55,66.95-51.07,35.62.58,57.92,22.95,66.45,51.62C495.21,260,487.33,292.22,475.3,298.78Z"/><path class="cls-1" d="M421.65,324.91c-9.32.81-18.32-1.43-26.93-5.05-7.41-3.11-7.81-3.81-6.69-11.72a37.07,37.07,0,0,1,12-22.82c1.34-1.22,2.07-1.17,3.72-.29,12,6.39,24.06,6.9,36.06,0,1.59-.93,2.7-1,4.21.47,8,7.79,12.18,17.08,12,28.38a4,4,0,0,1-2.65,4C443.42,322.77,433,325.66,421.65,324.91Z"/><path class="cls-1" d="M406.94,245.81c-.07-4.32-.45-10.06,4.27-14.62s10.06-5.36,15.84-3.46c6.4,2.12,9.62,7,9.85,13.71.15,4.15.13,8.32,0,12.47-.22,7.94-7.49,15.15-15.07,15.08s-14.68-7.26-14.89-15.28C406.89,251.55,406.94,249.39,406.94,245.81Z"/><path class="cls-1" d="M36.54,465.59A50.68,50.68,0,0,1,25.24,447c-10.78-29.75-1.81-59.94,22.59-80A62.73,62.73,0,0,1,86,352.77c16.41-.65,31.1,3.11,44.24,12.84,14.65,10.86,24.14,25.3,27.66,43.09,3.85,19.45.32,37.69-11.73,53.91-.68.92-.94,2.32-2.29,2.11s-.6-1.62-.86-2.47c-2.75-9.09-6.75-17.61-14.12-23.74-4.5-3.75-4.73-7.67-3.87-12.82,2.12-12.62,2.51-25.33-4.11-36.86-5.87-10.24-15-16.07-27-16.89s-22.63,2.15-31,11.59a34,34,0,0,0-8.66,21.3c-.41,8.64-1.37,17.5,1.75,26,.88,2.4-.85,3.7-2.31,5C45,443.71,38.94,453.2,36.54,465.59Z"/><path class="cls-1" d="M89.72,490.85c-9.12.83-18.27-1.39-27-5.11-6.91-2.94-8-5-6.53-12.32,1.65-8.45,5.17-16,11.76-21.93,1.45-1.3,2.21-1.43,4.1-.44,11.8,6.16,23.74,6.93,35.61,0,1.58-.93,2.9-1.25,4.65.49,7.81,7.74,12,16.84,11.85,27.95a4.33,4.33,0,0,1-2.79,4.42C111.53,488.71,101.29,491.51,89.72,490.85Z"/><path class="cls-1" d="M75.05,412.72c.39-2.94-.46-6.34.86-9.78,2.18-5.63,9.6-11.47,14.7-11,7.46.72,14.18,7.59,14.41,14.92.14,4.32.12,8.64,0,13C104.8,427.79,97.54,435,90,434.93s-14.67-7.26-14.89-15.27C75,417.5,75.05,415.33,75.05,412.72Z"/><path class="cls-2" d="M362,80.06q30.19,0,60.41,0c4.58,0,8.61,1,10.81,5.54A9.76,9.76,0,0,1,427,99.5a18.39,18.39,0,0,1-4.92.54q-60.15,0-120.32,0c-5,0-9.29-1.09-11.37-6.24-2.88-7.12,2.16-13.74,10.61-13.76C321.34,80,341.64,80.06,362,80.06Z"/><path class="cls-2" d="M150,246q30.45,0,60.91,0c6.61,0,10.42,2.92,11.23,8.32a9.62,9.62,0,0,1-7.44,11.26,16.28,16.28,0,0,1-3.94.4q-60.66,0-121.32,0c-6.48,0-10.22-2.57-11.37-7.59-1.59-6.93,3.14-12.36,11-12.38C109.37,246,129.68,246,150,246Z"/><path class="cls-2" d="M361.45,431.94q-30,0-59.91,0c-3.8,0-7.33-.59-9.78-3.85a9.89,9.89,0,0,1,5.59-15.77,18.86,18.86,0,0,1,4.45-.38q60.15,0,120.32,0c4.14,0,8,.54,10.44,4.46a10,10,0,0,1,.38,10.44c-2.13,4.07-5.85,5.11-10.08,5.11Z"/></g></g></svg>