<svg xmlns="http://www.w3.org/2000/svg" viewBox="0 0 383.86 333.34"><defs><style>.cls-1{fill:#255e61;}.cls-2{fill:#e4ff55;}.cls-3{fill:#fefefe;}.cls-4{fill:#b1effa;}.cls-5{fill:#fff;}</style></defs><g id="Layer_2" data-name="Layer 2"><g id="Layer_1-2" data-name="Layer 1"><path class="cls-1" d="M383.86,18.23V255.14c-.87,8.29-5.48,13.59-13,16.75-3.24,1.36-6.54,1.46-9.91,1.46H242.1c-1.38,0-2.75,0-4.12,0-3.62.16-4.33,1-3.44,4.35q4.25,15.93,8.58,31.83c1.36,4.95,1.89,5.19,7.09,5.35,2.72.08,5.54-.27,7.87,1.69,2.6,2.18,3.83,7.29,2.65,11.09-1,3.25-4,5.36-8,5.57-2.13.11-4.25.07-6.37.07H137.62c-2,0-4,0-6-.05-5.89-.24-8.81-3.32-8.8-9.24s3-8.85,9-9.09c7.72-.32,7.75-.31,9.7-7.9,2.42-9.44,5.06-18.82,7.56-28.23,1.25-4.71.77-5.45-4.27-5.45q-58.29,0-116.57,0c-2.5,0-5-.05-7.5,0-6.27.09-11.24-2.77-15.77-6.76C1.45,263.52,1,259.22,0,255.14V18.23C.73,10,5.34,4.8,12.69,1.65A17.25,17.25,0,0,1,19.57,0c1.49,0,3,0,4.49,0H359.79c3.74,0,7.45-.1,11,1.46C378.27,4.71,383.14,9.82,383.86,18.23Z"/><path class="cls-2" d="M191.92,175c2.7-1.58,5.77-.83,8.66-1.35,21.89-3.95,38.86-20.2,43-41.91.51-2.61,1.83-2.45,3.61-2.45h49.85c22.74,0,45.47,0,68.21-.06,2.77,0,3.55.65,3.54,3.49q-.16,45.17,0,90.33c0,2.67-.47,3.65-3.43,3.61-12.24-.18-24.48-.12-36.72,0-2.25,0-3.24-.32-3.3-3-.23-11.58-5-21.21-13.48-29-1.83-1.67-2.36-3-1.81-5.65,1.71-8.36,2-16.89-.42-25.18-3.56-12.22-14.37-19-28.39-18.19a25.39,25.39,0,0,0-23.35,20.8c-1.33,7.88-1.65,15.89.58,23.74a3,3,0,0,1-1.1,3.52c-9.25,8.16-14.48,18.29-14.55,30.78,0,2.07-1.09,2.1-2.6,2.1q-24.16-.08-48.34-.1c-1.56-1-1.65-2.7-1.66-4.32q-.18-21.42,0-42.84C190.27,177.68,190.44,176.07,191.92,175Z"/><path class="cls-2" d="M191.94,69.05c-14.62.63-27.57,5.22-38,15.89a50.55,50.55,0,0,0-7.61,10.17,54.52,54.52,0,0,0-5,11.67c-1.43-1.08-1-2.62-1.38-3.9a41.22,41.22,0,0,0-12.91-21c-1.74-1.5-2-2.77-1.48-5.08,1.78-8.49,2-17.14-.41-25.54-3.53-12.15-14.52-18.92-28.5-18a25.41,25.41,0,0,0-23.22,21C72.17,62,71.88,70,74.11,77.87a2.74,2.74,0,0,1-1,3.23c-9.37,8.22-14.66,18.43-14.72,31.08,0,1.46-.58,1.94-2,1.94-13.12,0-26.24-.05-39.36,0-2.54,0-2-1.7-2-3.08q0-22.68,0-45.35c0-13.12,0-26.24,0-39.36,0-6.53,2.9-9.51,9.3-9.51q83.22,0,166.43,0c.37,0,.75.05,1.12.07,1.57,1.07,1.64,2.72,1.66,4.35q.17,21.73,0,43.45C193.58,66.33,193.5,68,191.94,69.05Z"/><path class="cls-3" d="M191.94,69.05V16.89c1.37-.05,2.74-.16,4.11-.16q80.57,0,161.15-.06a29.22,29.22,0,0,1,6.52.94c3.39.76,5.12,4.2,5.13,9.58,0,12.87,0,25.73,0,38.6,0,15.12-.05,30.23.06,45.35,0,2.42-.6,3.14-3.08,3.11q-18.73-.19-37.48,0c-2.54,0-3.07-.78-3-3.15.22-12.4-5.48-22.12-14.3-30.25-1-1-1.27-1.29-1-2.82,1.64-9.76,2.31-19.51-1.08-29.15-2.94-8.35-12.77-15.47-21.55-15.71-7.44-.21-14.29.63-20.48,5.5a24.38,24.38,0,0,0-9.54,18.16c-.45,7.17-1.48,14.6,1.16,21.72a1.51,1.51,0,0,1-.53,1.9,39.18,39.18,0,0,0-14.63,24.62c-.08.44-.54.81-.81,1.2C236.27,86.65,222.91,74.69,203,70.06,199.41,69.23,195.63,69.36,191.94,69.05Z"/><path class="cls-3" d="M191.92,175v51.5c-16.24.06-32.48.09-48.71.21-1.83,0-2.33-.58-2.29-2.35.28-12.93-5.27-23.15-14.9-31.36-1.08-.92-.56-1.45-.41-2.42,1.57-9.78,2.29-19.51-1.1-29.15-3-8.58-12.75-15.53-21.86-15.79-7.47-.21-14.28.78-20.41,5.71a24.14,24.14,0,0,0-9.34,18.35c-.3,7.07-1.44,14.36,1.21,21.34.3.79-.06,1.35-.88,2.06-9.38,8.23-15,18.33-14.71,31.14,0,2.05-.68,2.48-2.56,2.47q-19.11-.1-38.23,0c-2,0-2.79-.41-2.78-2.63q.11-46.09,0-92.2c0-2.11.55-2.72,2.69-2.72q59.6.09,119.19,0c2,0,3.11.69,3.3,2.49a26.53,26.53,0,0,0,3.11,10.46c3.07,5.37.37,10.43-1.1,15.12-2.67,8.52,5.93,17.43,14.31,14.08a51.52,51.52,0,0,1,8.5-2.11,5.66,5.66,0,0,1,3.28-.06c6.84,3.29,13.91,5.46,21.6,5.14A6.27,6.27,0,0,1,191.92,175Z"/><path class="cls-1" d="M191.93,241.65q86.39,0,172.75-.08c3.35,0,4.49.74,4.25,4.22-.53,7.82-2.91,10.81-11.06,10.82q-165.81.08-331.63,0C16,256.62,14.92,252.3,15,243.15c0-1.14.5-1.55,1.57-1.51s2,0,3,0Z"/><path class="cls-1" d="M228.65,121.54c1.15,18.34-13.82,33.81-31.16,36.81-7.33,1.27-14.7.58-21.19-3.24-4.76-2.79-9.33-3.35-14.35-1.57-2.4.85-2.52,0-1.81-2,1.67-4.88.91-9.24-1.52-14-10.82-21.29,2.7-48.1,26.66-52.34,18.94-3.36,36.23,7.35,42,26.1a22.32,22.32,0,0,1,1.27,4.16A57.32,57.32,0,0,1,228.65,121.54Z"/><path class="cls-3" d="M191.91,316.62H160.47c-1.86,0-3.51.66-2.48-2.84,3.87-13.15,7.24-26.45,10.6-39.74.48-1.9,1.21-2.42,3-2.42q20.38,0,40.79,0c1.51,0,2.42.29,2.89,2.07q5.31,20.43,10.92,40.78c.79,2.84-1.13,2.11-2.42,2.12Q207.82,316.65,191.91,316.62Z"/><path class="cls-4" d="M99.56,114.11c-7.74,0-15.48-.09-23.22,0-2.41,0-2.92-.67-2.64-3A27.28,27.28,0,0,1,82.5,93.5c1.17-1.07,2-1.63,3.8-.64,8.85,4.81,17.9,4.81,26.76,0,1.75-.94,2.59-.57,3.81.54,5.48,4.93,8.15,11.15,8.93,18.38.26,2.41-1,2.3-2.64,2.3C115.29,114.09,107.43,114.11,99.56,114.11Z"/><path class="cls-4" d="M284.15,226.56c-7.74,0-15.48-.1-23.22.06-2.61,0-3.08-.78-2.77-3.22a27.33,27.33,0,0,1,8.64-17.34c1.29-1.2,2.19-1.68,4.11-.64a26.63,26.63,0,0,0,26.44,0c1.91-1,2.81-.6,4.12.61,5.31,4.88,8,11,8.74,18.08.23,2.17-.62,2.49-2.46,2.47C299.88,226.52,292,226.56,284.15,226.56Z"/><path class="cls-3" d="M258.1,114.19c.61-5.43,1-10.55,4.26-14.82.9-1.16,1.56-2.5,2.47-3.65,2-2.45,3.83-3.63,7.4-1.9a27.06,27.06,0,0,0,24.1-.07c3.26-1.55,5.11-.67,6.8,1.63,3.5,4.75,6.84,9.61,6.54,16a11.7,11.7,0,0,0,.74,2.84H258.1Z"/><path class="cls-3" d="M73.69,226.46c.59-5.24,1-10.36,4.24-14.63.89-1.16,1.56-2.5,2.47-3.65,2-2.45,3.83-3.63,7.4-1.9a27.06,27.06,0,0,0,24.1-.07c3.26-1.55,5.11-.67,6.8,1.63,3.5,4.75,6.84,9.62,6.54,16a10.3,10.3,0,0,0,.69,2.65Z"/><path class="cls-4" d="M88.39,64.56c0-2.12-.18-4.25,0-6.35.53-5.49,5.69-10,11.27-10s10.88,4.46,11.28,9.94a86.83,86.83,0,0,1,0,12.7,11.33,11.33,0,0,1-22.52,0c-.21-2.1,0-4.23,0-6.35Z"/><path class="cls-4" d="M295.47,176.84c0,2.11.16,4.25,0,6.35a11.11,11.11,0,0,1-11.32,10.22,11,11,0,0,1-11.26-10.27,99.41,99.41,0,0,1-.08-11.58,11.38,11.38,0,0,1,22.74,0c.11,1.74,0,3.49,0,5.24Z"/><path class="cls-3" d="M295.39,65c-.28,2.17.43,4.79-.36,7.36-1.86,6-7.07,9.1-13.49,8-4.78-.78-8.61-5.79-8.64-11.31,0-2.87.31-5.78-.07-8.59-.78-5.83,5-12.27,11.49-12.27,6.19,0,11.06,5.61,11.07,12.24Z"/><path class="cls-3" d="M88.47,175.78c-.3-3.88-.19-8.51,4.06-12.15,2.75-2.35,7.59-3.85,11.79-1.66,3.73,1.95,6.43,4.94,6.61,9.44.14,3.6.08,7.22,0,10.83-.1,6.06-4.8,10.28-10.77,10.77-6.13.51-11.79-5-11.72-10.61C88.49,180.53,88.47,178.67,88.47,175.78Z"/><path class="cls-5" d="M191.76,129.19c-3.87,0-7.74,0-11.61,0-4.15-.06-6.9-3-7-7.37s2.76-7.57,7.11-7.6q11.61-.06,23.22,0c4.36,0,7.19,3.08,7.15,7.56s-2.86,7.38-7.3,7.42C199.5,129.21,195.63,129.19,191.76,129.19Z"/></g></g></svg>