<svg xmlns="http://www.w3.org/2000/svg" viewBox="0 0 416.96 511.81"><defs><style>.cls-1{fill:#255e61;}.cls-2{fill:#e4ff55;}.cls-3{fill:#fefefe;}</style></defs><g id="Layer_2" data-name="Layer 2"><g id="Layer_1-2" data-name="Layer 1"><path class="cls-1" d="M190.39,0C197.13,1.36,204,2.22,210.6,4.18,229,9.66,245.94,17.86,261.05,30A143.08,143.08,0,0,1,299.86,78.1a135.91,135.91,0,0,1,12.57,41.22c2.83,19.14,1.7,38.35,1.8,57.54,0,4.12.91,5.53,5.14,5.16,4.63-.4,9.33.08,14-.12,8.4-.37,12.93,4.92,12.94,12.53q.09,58.71,0,117.43c-4.67,2-9.48,0-14.22.47-2.35.25-5,1.23-7.2-.66-1.52-2.62-1.07-5.51-1.08-8.31q0-45.47,0-90.94c0-7.77-.12-7.9-7.72-7.9q-142.41,0-284.83,0c-6.85,0-7.15.27-7.15,6.92q0,116.69,0,233.36c0,24,16.86,42.12,40.62,44.62a162.73,162.73,0,0,0,17,.82q94.44,0,188.88,0c13.15,0,26-1.54,36.67-10.47,2.7-2.25,4.82-5.07,7.61-7.19,7.36-.74,14.57,1.13,21.88,1.3a2.08,2.08,0,0,1,1.95,1.91c-8.15,17.78-22.45,28.18-40.59,34.12-2.22.73-4.82.13-6.7,1.94H56.44c-31.37-2.39-53.58-32.71-56-56.72-.26-2.66-.48-5.3-.48-8V196.8c0-4-.12-8,2.7-11.38a13.58,13.58,0,0,1,10.53-4.88c4.5-.15,9-.15,13.49,0,3.83.1,5.35-1.47,5.31-5.32-.11-11.33,0-22.65,0-34-.08-41,14.71-75.77,44-104.2C94.31,19.23,116.27,7.68,141.15,1.81,146.49.55,152,1.12,157.4,0Z"/><path class="cls-2" d="M338.64,475.75c-5.76-2.23-12,0-17.82-2a38.32,38.32,0,0,0-5.27-1c-10.11-1-18.69-5.72-26.81-11.32-20.2-13.94-32.19-33.37-35.17-57.49-3.19-25.73,3.82-48.77,22.16-67.89,11.89-12.41,26-20.65,42.85-24.06,2.21-.44,4.48-1.59,6.77-.17,7-1.42,13.95-1,20.92,0,7.89,2,15.83,3.66,23.3,7.1a81.62,81.62,0,0,1-23.31,155C343.71,474.3,340.9,474,338.64,475.75Z"/><path class="cls-3" d="M325.35,311.85c-14.6,2.63-28.27,7.52-39.91,17-23.81,19.44-34.58,44.75-30.45,75,4.41,32.35,23,54.47,53.63,66.2,2.31.88,4.62,1.8,6.93,2.7-7.6,11.06-18.27,17.44-31.49,17.92-70.53,2.54-141.1.6-211.65,1-18.43.11-33.8-6.6-43.67-23.12-3.81-6.39-6.22-13.37-6.23-20.79q-.15-120.15-.15-240.32c0-3.68.81-4.67,4.6-4.67q146.9.18,293.79,0c3.65,0,4.7.77,4.69,4.59C325.27,242.23,325.35,277,325.35,311.85Z"/><path class="cls-3" d="M172.89,181.93c-23.31,0-46.63-.09-69.94.1-3.76,0-4.69-.94-4.62-4.66.24-13.32-.46-26.67.22-40,.94-18.24,7.23-34.51,19.94-48.11,10.9-11.67,23.91-19.87,39.46-23,22.24-4.44,42.86.11,61.15,13.88,16.32,12.28,25.44,29,29.09,48.74.89,4.84.17,10,.17,15,0,11.33-.12,22.65.08,34,.06,3.27-.85,4.15-4.12,4.13C220.51,181.87,196.7,181.93,172.89,181.93Z"/><path class="cls-3" d="M269.35,153.66c-.11-14.45.92-28.92-3.92-43C255,80.27,235.07,58.94,204.62,48.89c-31.75-10.47-61.92-6-88.93,14.41C94.93,78.94,82.38,99.91,78.57,125.6c-2.52,17-1,34.14-1,51.22,0,4-.79,5.58-5.1,5.21a126.87,126.87,0,0,0-15-.05c-2.43.08-3.08-.76-3.07-3.12.09-15.65-.81-31.36.25-47A118,118,0,0,1,78.26,68.5C89.76,53,104.4,41.41,121.34,32.74a107.18,107.18,0,0,1,35.09-10.83c21.93-2.9,43.11-.66,63.5,8.07,25.42,10.88,44.65,28.68,58.29,52.58a117.42,117.42,0,0,1,14,42.76c1.7,12.34,1.08,24.82,1.1,37.24,0,5.33-.11,10.66,0,16,.08,2.5-.5,3.54-3.26,3.44-5.82-.2-11.66-.19-17.48,0-2.64.08-3.41-.72-3.36-3.36C269.46,170.31,269.36,162,269.35,153.66Z"/><path class="cls-1" d="M335.64,420c-3.95.73-6.37-2.6-9.25-4.62-4.87-3.4-9.42-7.24-14.07-10.95-4.19-3.34-5.05-9.36-2-13.26a9.65,9.65,0,0,1,13.4-1.55c1.2.87,2.4,1.75,3.58,2.65,7.2,5.45,7.22,5.47,12.52-1.88,4.35-6,8.6-12.15,13.78-17.5,3.85-4,7.62-4.12,11.45-.95,4.81,4,5.72,7.82,2.3,12.49-7.89,10.8-16,21.44-24.09,32.09A8.49,8.49,0,0,1,335.64,420Z"/><path class="cls-1" d="M155.15,382.23a42,42,0,0,1,0-4.49c.93-8.71-1-15.12-8.49-21.63-16.9-14.75-15.62-40.94,1.11-56.14,16-14.52,41.45-12.9,55.4,3.52,14.53,17.12,12,42.89-6,56.12-3.88,2.85-5.06,5.7-4.91,10.22.32,9.31,0,18.64.15,28,0,2.77-.3,4.2-3.69,4.12-10-.23-20-.17-30,0-2.83,0-3.77-.85-3.67-3.67C155.28,392.89,155.15,387.56,155.15,382.23Z"/><path class="cls-1" d="M70.76,264.9c-5.5,0-11,0-16.49,0-6.33-.05-10.66-4.09-10.83-10A10.5,10.5,0,0,1,53.7,244c11.66-.24,23.32-.21,35,0,5.91.1,9.91,5.06,9.75,11.31-.15,5.91-3.85,9.49-10.17,9.6C82.42,265,76.59,264.9,70.76,264.9Z"/><path class="cls-1" d="M276.2,264.9c-5.66,0-11.32,0-17,0-5.91,0-9.93-4-10.4-10.1-.39-5.16,4.1-10.68,9.56-10.8q18-.39,35.95,0c5,.1,10.36,6.32,10,10.86a10.79,10.79,0,0,1-11.12,10C287.52,264.92,281.86,264.9,276.2,264.9Z"/></g></g></svg>