<svg xmlns="http://www.w3.org/2000/svg" viewBox="0 0 383.1 310.3"><g id="Layer_2" data-name="Layer 2"><g id="Layer_1-2" data-name="Layer 1"><path d="M383.1,287.5c-1.2.8-1,2.3-1.3,3.4a27.4,27.4,0,0,1-25.4,19.2H353q-161.5,0-323.2.1c-15.7,0-25.8-10-28.5-19.7A29.5,29.5,0,0,1,0,281.7V28.4C0,12,11.9,0,28.3,0H354.9c14.2,0,24.5,8.6,27.6,22.5.1.4.4.6.6.9Z" style="fill:#255e61"/><path d="M191.5,75.7H364.3c3,0,3.9.6,3.9,3.8q-.1,100.7-.1,201.3c0,9.6-4.9,14.5-14.4,14.5H29.4c-9.5,0-14.4-4.9-14.4-14.5q0-100.6-.1-201.2c0-3.2.8-3.9,3.8-3.9Z" style="fill:#255e61"/><path d="M191.5,60.7H19.1c-3.4,0-4.3-.9-4.2-4.2.2-9.4,0-18.7.1-28.1S20.2,15,28.5,15H354.6c8.3,0,13.5,5.3,13.5,13.6s-.1,19,.1,28.4c.1,3.2-.9,3.8-3.9,3.8Z" style="fill:#e4ff55"/><path d="M191.5,265.8H98c-3.7,0-4.5-1.1-4.5-4.6.2-16,.2-31.9.1-47.9-.1-2.9.6-3.8,3.7-3.8H285.8c3.1,0,3.7,1,3.7,3.9-.1,16-.1,32.1,0,48.2.1,3.2-.7,4.2-4.1,4.2Z" style="fill:#e4ff55"/><path d="M191.4,191.3c-18-.1-33.1-7.4-46.6-18.5A126.2,126.2,0,0,1,119.5,144c-2-3-2.7-6-.7-9.1,12-18.6,26.8-34.2,47.4-43.1s40.8-6.8,60,4.7c15.8,9.4,27.8,22.5,37.7,37.7,1.9,2.9,2.2,5.9.3,8.8-12.5,19.2-27.9,35.1-49.5,43.9A58.5,58.5,0,0,1,191.4,191.3Z" style="fill:#fff"/><path d="M129.9,45.2H51.8a22.6,22.6,0,0,1-3.7-.1,7.2,7.2,0,0,1-6.6-6.6,7.4,7.4,0,0,1,4.7-7.6,13.2,13.2,0,0,1,4.8-.6H209.2c5.6,0,8.6,2,9.4,6s-2.3,8.8-7.5,8.9H129.9Z" style="fill:#255e61"/><path d="M295.5,45.2h-4.1a7.4,7.4,0,0,1-6.9-6.6,7.2,7.2,0,0,1,5.4-7.9,24.5,24.5,0,0,1,11.1,0,7.2,7.2,0,0,1,5.7,7.6,7.5,7.5,0,0,1-7.1,6.9Z" style="fill:#255e61"/><path d="M260.6,45.2a32.7,32.7,0,0,1-4.4-.1,7.3,7.3,0,0,1-1.3-14.4,27.5,27.5,0,0,1,10.7-.2,7.2,7.2,0,0,1,6,8.1,7.2,7.2,0,0,1-7.2,6.6Z" style="fill:#255e61"/><path d="M330.3,45.2a27.7,27.7,0,0,1-4.1-.1,7.3,7.3,0,0,1-1.5-14.3,24.4,24.4,0,0,1,11.4-.1,7.2,7.2,0,0,1,5.5,7.8,7.3,7.3,0,0,1-6.9,6.7Z" style="fill:#255e61"/><path d="M190.4,176.4c-14.8-.2-27.4-7.6-38.8-17.6a106.8,106.8,0,0,1-16.2-18c-.7-1-1.5-1.8-.5-3.2,11.2-15.1,24.1-28.1,42.5-34,15.7-5.1,30.2-1.4,43.7,7.4,10.6,6.8,19.1,15.8,26.5,26,.7.9,1.7,1.7.6,3.2-11.2,14.9-24,27.7-42.1,33.9A50.8,50.8,0,0,1,190.4,176.4Z" style="fill:#fefefe"/><path d="M216.3,138.9c0,13.1-9.1,23.4-22.3,25.1s-24.3-7.2-26.8-19.6c-2.1-10.3.8-19.3,9.6-25.7s16.4-6.5,25.4-2.5c2.1.9,2.8,2,2.2,4.5A5.9,5.9,0,0,0,211,128c2.9-.3,3.7,1,4.4,3.1A22.6,22.6,0,0,1,216.3,138.9Z" style="fill:#255e61"/></g></g></svg>