<svg xmlns="http://www.w3.org/2000/svg" viewBox="0 0 384 358.67"><defs><style>.cls-1{fill:#255e61;}.cls-2{fill:#fefefe;}.cls-3{fill:#f1ffaa;}.cls-4{fill:#b1effa;}</style></defs><g id="Layer_2" data-name="Layer 2"><g id="Layer_1-2" data-name="Layer 1"><path class="cls-1" d="M383.93,43.56V280.48c-.87,8.28-5.48,13.58-13,16.75-3.24,1.35-6.54,1.46-9.91,1.46H242.17c-1.37,0-2.75,0-4.12,0-3.62.16-4.33,1-3.44,4.36q4.24,15.93,8.58,31.83c1.36,5,1.89,5.18,7.09,5.34,2.72.09,5.54-.26,7.87,1.7,2.6,2.18,3.83,7.28,2.66,11.09-1,3.25-4.05,5.36-8.05,5.56-2.12.11-4.25.08-6.37.08H137.69c-2,0-4,0-6-.06-5.89-.24-8.81-3.31-8.8-9.23s3-8.86,9-9.1c7.71-.31,7.74-.3,9.69-7.9,2.42-9.44,5.06-18.81,7.57-28.23,1.25-4.7.76-5.44-4.28-5.45q-58.29,0-116.57,0c-2.5,0-5,0-7.5,0-6.27.08-11.24-2.77-15.77-6.77-3.47-3.05-3.9-7.36-4.92-11.43V43.56C.81,35.36,5.41,30.13,12.77,27a16.83,16.83,0,0,1,6.87-1.61c1.5,0,3,0,4.49,0q167.87,0,335.74,0c3.73,0,7.44-.1,11,1.47C378.35,30,383.21,35.16,383.93,43.56Z"/><path class="cls-2" d="M383.93,43.56c-3.16-7.56-7.62-13.71-16.14-16a15.16,15.16,0,0,0-4-.52q-171.84,0-343.68,0C11.91,27.07,4,33.39.84,42.47c-.17.48-.18,1-.77,1.09,0-13.48.08-27-.07-40.45C0,.61.4,0,3,0Q129.45.14,255.86.08,318.41.08,381,0c2.63,0,3.06.61,3,3.11C383.85,16.59,383.93,30.08,383.93,43.56Z"/><path class="cls-3" d="M192,200.31c2.7-1.57,5.78-.82,8.66-1.34,21.9-4,38.86-20.21,43-41.91.51-2.62,1.83-2.46,3.62-2.46h49.84c22.74,0,45.48,0,68.21-.07,2.77,0,3.55.66,3.54,3.5q-.15,45.17,0,90.32c0,2.67-.47,3.66-3.42,3.62-12.24-.19-24.49-.12-36.73,0-2.24,0-3.24-.32-3.29-3-.24-11.58-5-21.2-13.49-29-1.83-1.67-2.35-3-1.81-5.66,1.71-8.36,2-16.88-.42-25.18-3.56-12.21-14.36-19-28.39-18.19A25.41,25.41,0,0,0,258,191.78c-1.33,7.87-1.65,15.88.58,23.73a3,3,0,0,1-1.1,3.52c-9.25,8.17-14.47,18.29-14.55,30.78,0,2.08-1.09,2.11-2.6,2.1q-24.17-.07-48.34-.09c-1.56-1.06-1.64-2.7-1.66-4.32q-.17-21.42,0-42.85C190.34,203,190.51,201.4,192,200.31Z"/><path class="cls-3" d="M192,94.38c-14.62.63-27.57,5.23-38,15.9a50.65,50.65,0,0,0-7.61,10.17,55.46,55.46,0,0,0-5,11.66c-1.42-1.07-1-2.62-1.38-3.9a41.09,41.09,0,0,0-12.91-21c-1.74-1.5-2-2.77-1.48-5.08,1.78-8.5,2-17.14-.4-25.55-3.54-12.14-14.53-18.92-28.51-18A25.4,25.4,0,0,0,73.55,79.47c-1.31,7.89-1.6,15.89.63,23.74a2.74,2.74,0,0,1-1,3.22c-9.38,8.23-14.67,18.44-14.73,31.08,0,1.46-.57,2-2,1.94-13.12,0-26.24,0-39.36,0-2.53,0-2-1.7-2-3.07q0-22.68,0-45.36c0-13.12,0-26.24,0-39.36,0-6.52,2.9-9.51,9.31-9.51q83.21,0,166.42,0c.37,0,.75.05,1.12.07,1.57,1.06,1.64,2.72,1.66,4.35q.18,21.72,0,43.45C193.66,91.66,193.58,93.32,192,94.38Z"/><path class="cls-2" d="M192,94.38V42.23c1.37-.06,2.74-.16,4.11-.16q80.58,0,161.15-.06a29.72,29.72,0,0,1,6.52.93c3.39.76,5.12,4.2,5.13,9.58,0,12.87,0,25.74,0,38.61,0,15.11-.05,30.23.06,45.34,0,2.43-.6,3.14-3.08,3.12q-18.74-.19-37.48,0c-2.54,0-3.07-.78-3-3.15.22-12.4-5.47-22.12-14.3-30.25-1-1-1.27-1.29-1-2.82,1.64-9.76,2.31-19.52-1.08-29.15-2.94-8.35-12.77-15.47-21.55-15.71C280,58.3,273.17,59.13,267,64a24.38,24.38,0,0,0-9.54,18.16c-.45,7.18-1.48,14.61,1.16,21.72a1.52,1.52,0,0,1-.53,1.91,39.17,39.17,0,0,0-14.63,24.62c-.08.43-.54.81-.81,1.19C236.34,112,223,100,203.05,95.39,199.49,94.56,195.7,94.69,192,94.38Z"/><path class="cls-2" d="M192,200.31v51.51c-16.24.05-32.47.08-48.71.2-1.83,0-2.33-.58-2.29-2.34.28-12.93-5.27-23.15-14.9-31.36-1.08-.93-.56-1.45-.41-2.42,1.57-9.78,2.29-19.52-1.1-29.15-3-8.58-12.75-15.54-21.86-15.79-7.46-.21-14.28.77-20.41,5.71A24.14,24.14,0,0,0,73,195c-.29,7.08-1.44,14.36,1.21,21.35.3.79-.06,1.34-.88,2.06-9.38,8.23-15,18.33-14.71,31.14,0,2-.68,2.47-2.56,2.46q-19.11-.11-38.23,0c-2,0-2.79-.41-2.78-2.63q.11-46.11,0-92.2c0-2.11.55-2.73,2.7-2.72q59.58.09,119.18,0c2,0,3.12.7,3.31,2.5a26.54,26.54,0,0,0,3.11,10.45c3.07,5.38.36,10.43-1.11,15.12-2.67,8.52,5.94,17.43,14.31,14.08a51.5,51.5,0,0,1,8.5-2.1,5.58,5.58,0,0,1,3.28-.06c6.85,3.29,13.91,5.45,21.61,5.13A6.45,6.45,0,0,1,192,200.31Z"/><path class="cls-2" d="M192,267q86.37,0,172.74-.08c3.36,0,4.49.74,4.25,4.22-.53,7.82-2.91,10.82-11.05,10.82q-165.82.07-331.63,0c-10.27,0-11.33-4.31-11.26-13.47,0-1.14.5-1.54,1.58-1.5s2,0,3,0Z"/><path class="cls-2" d="M228.72,146.88c1.16,18.34-13.82,33.8-31.16,36.81-7.32,1.27-14.7.57-21.19-3.24-4.75-2.79-9.32-3.36-14.35-1.57-2.4.85-2.52,0-1.81-2,1.68-4.87.91-9.24-1.51-14-10.83-21.29,2.69-48.1,26.65-52.35,19-3.35,36.24,7.35,42,26.11a22.89,22.89,0,0,1,1.28,4.16A57.22,57.22,0,0,1,228.72,146.88Z"/><path class="cls-2" d="M192,342H160.54c-1.86,0-3.5.67-2.47-2.83,3.86-13.15,7.23-26.45,10.6-39.74.48-1.91,1.2-2.43,3-2.43q20.4,0,40.79,0c1.52,0,2.42.29,2.89,2.08q5.32,20.43,10.93,40.77c.78,2.84-1.14,2.12-2.43,2.12C213.19,342,202.59,342,192,342Z"/><path class="cls-4" d="M99.63,139.44c-7.74,0-15.48-.09-23.22.05-2.41,0-2.92-.67-2.63-3a27.29,27.29,0,0,1,8.79-17.66c1.17-1.06,2-1.62,3.8-.64,8.85,4.82,17.9,4.81,26.77,0,1.74-.94,2.58-.57,3.81.53,5.47,4.94,8.14,11.16,8.92,18.39.26,2.41-1,2.3-2.64,2.29C115.37,139.43,107.5,139.44,99.63,139.44Z"/><path class="cls-4" d="M284.23,251.9c-7.75,0-15.49-.1-23.23.06-2.61,0-3.07-.79-2.76-3.23a27.36,27.36,0,0,1,8.63-17.34c1.29-1.19,2.19-1.67,4.12-.64a26.63,26.63,0,0,0,26.43,0c1.91-1,2.81-.6,4.12.6,5.31,4.89,8,11,8.74,18.09.24,2.17-.61,2.48-2.46,2.47C300,251.86,292.09,251.9,284.23,251.9Z"/><path class="cls-2" d="M258.17,139.53c.61-5.43,1-10.55,4.26-14.82.9-1.16,1.56-2.51,2.47-3.65,2-2.46,3.83-3.63,7.4-1.91a27,27,0,0,0,24.1-.07c3.26-1.55,5.11-.66,6.8,1.64,3.5,4.75,6.85,9.61,6.55,16a10.89,10.89,0,0,0,.74,2.85H258.17Z"/><path class="cls-2" d="M73.77,251.79c.58-5.23,1-10.35,4.23-14.62.9-1.17,1.56-2.51,2.47-3.65,2-2.46,3.83-3.63,7.4-1.91a27,27,0,0,0,24.1-.07c3.26-1.55,5.11-.66,6.8,1.64,3.5,4.75,6.85,9.61,6.55,16a9.76,9.76,0,0,0,.68,2.65Z"/><path class="cls-4" d="M88.46,89.9c0-2.12-.17-4.26,0-6.35a11.55,11.55,0,0,1,11.27-10c5.57,0,10.89,4.47,11.28,10a88.11,88.11,0,0,1,0,12.69,11.34,11.34,0,0,1-22.53,0c-.21-2.1,0-4.24,0-6.35Z"/><path class="cls-4" d="M295.54,202.17c0,2.12.16,4.25,0,6.35a11.34,11.34,0,0,1-22.58,0,99.58,99.58,0,0,1-.08-11.59,11.39,11.39,0,0,1,22.75.05c.1,1.73,0,3.49,0,5.23Z"/><path class="cls-2" d="M295.46,90.37c-.28,2.16.44,4.78-.36,7.35-1.86,6-7.07,9.1-13.49,8.06C276.83,105,273,100,273,94.46c0-2.86.31-5.77-.07-8.58-.77-5.83,5-12.27,11.49-12.27,6.19,0,11.07,5.61,11.07,12.23Z"/><path class="cls-2" d="M88.54,201.12c-.3-3.88-.19-8.52,4.06-12.15,2.75-2.35,7.6-3.86,11.79-1.67,3.74,1.95,6.44,4.94,6.61,9.44.14,3.61.08,7.22,0,10.84-.1,6.06-4.8,10.28-10.77,10.77-6.12.5-11.78-5-11.71-10.61C88.56,205.87,88.54,204,88.54,201.12Z"/><path class="cls-1" d="M191.83,154.52c-3.87,0-7.74,0-11.61,0-4.15-.06-6.9-3-7-7.37s2.76-7.57,7.11-7.6q11.61-.07,23.22,0c4.37,0,7.19,3.07,7.15,7.56s-2.85,7.38-7.3,7.41C199.57,154.55,195.7,154.52,191.83,154.52Z"/></g></g></svg>